<?xml version="1.0" encoding="UTF-8"?>
<svg version="1.1" xmlns="http://www.w3.org/2000/svg" width="96" height="96">
<path d="M0 0 C31.68 0 63.36 0 96 0 C96 31.68 96 63.36 96 96 C64.32 96 32.64 96 0 96 C0 64.32 0 32.64 0 0 Z " fill="#FEFDFC" transform="translate(0,0)"/>
<path d="M0 0 C2.23840332 2.23840332 2.76031775 3.79493496 3.8125 6.75 C7.36597282 15.73059495 12.39615148 19.22433055 21 23 C18.93739449 25.06260551 17.35806517 25.82499969 14.75 27.0625 C9.50566169 29.90459302 6.64705748 33.71533881 4 39 C3.64667013 40.32817427 3.31012867 41.66107913 3 43 C3.85754883 42.97381592 4.71509766 42.94763184 5.59863281 42.9206543 C8.78916189 42.83529403 11.97910807 42.77268487 15.17041016 42.7253418 C16.54983702 42.7002407 17.92913142 42.66615127 19.30810547 42.62280273 C21.29335872 42.56197125 23.27959359 42.53642063 25.265625 42.51171875 C27.05661621 42.47244263 27.05661621 42.47244263 28.88378906 42.43237305 C32 43 32 43 34.39648438 45.32226562 C36.42496142 48.70964934 36.4082654 50.89543138 36.25 54.8125 C36.21390625 55.97394531 36.1778125 57.13539062 36.140625 58.33203125 C36.09421875 59.21246094 36.0478125 60.09289063 36 61 C34.68 61.33 33.36 61.66 32 62 C32.01571045 62.73114014 32.0314209 63.46228027 32.04760742 64.21557617 C32.11010351 67.5394716 32.14903752 70.8632432 32.1875 74.1875 C32.21263672 75.33798828 32.23777344 76.48847656 32.26367188 77.67382812 C32.27333984 78.78564453 32.28300781 79.89746094 32.29296875 81.04296875 C32.3086792 82.06414795 32.32438965 83.08532715 32.34057617 84.13745117 C31.94517863 87.46077459 30.96790197 89.31742158 29 92 C26.49704844 93.25147578 24.7721224 93.14045813 21.97119141 93.16113281 C20.92315338 93.17074036 19.87511536 93.1803479 18.7953186 93.19024658 C17.09065933 93.1966214 17.09065933 93.1966214 15.3515625 93.203125 C14.18748871 93.20882507 13.02341492 93.21452515 11.82406616 93.22039795 C9.35765495 93.22985722 6.89123104 93.2363856 4.42480469 93.24023438 C0.64756271 93.24994201 -3.12913578 93.28095834 -6.90625 93.3125 C-9.29947593 93.31902962 -11.69270575 93.32428025 -14.0859375 93.328125 C-15.21832855 93.3404718 -16.3507196 93.3528186 -17.51742554 93.36553955 C-18.57176788 93.36253845 -19.62611023 93.35953735 -20.71240234 93.35644531 C-21.63902679 93.36009094 -22.56565125 93.36373657 -23.52035522 93.36749268 C-26.49661512 92.92639977 -27.84395036 92.07289234 -30 90 C-31.0592918 86.82212459 -31.11458939 84.57411057 -31.09765625 81.23828125 C-31.09443359 80.12001953 -31.09121094 79.00175781 -31.08789062 77.84960938 C-31.07951172 76.68236328 -31.07113281 75.51511719 -31.0625 74.3125 C-31.05798828 73.13365234 -31.05347656 71.95480469 -31.04882812 70.74023438 C-31.03703273 67.82677211 -31.0205727 64.91341137 -31 62 C-32.32 61.67 -33.64 61.34 -35 61 C-35.1357683 58.93933896 -35.23233903 56.87607243 -35.3125 54.8125 C-35.37050781 53.66394531 -35.42851563 52.51539063 -35.48828125 51.33203125 C-34.84647799 46.95236582 -33.41135635 45.74803706 -30 43 C-26.86206055 42.43237305 -26.86206055 42.43237305 -23.38671875 42.51171875 C-22.13955078 42.52783203 -20.89238281 42.54394531 -19.60742188 42.56054688 C-18.31384766 42.60244141 -17.02027344 42.64433594 -15.6875 42.6875 C-14.37458984 42.71005859 -13.06167969 42.73261719 -11.70898438 42.75585938 C-8.4714987 42.81472275 -5.23633 42.89691196 -2 43 C-2.63069598 41.55636515 -3.26401447 40.11387584 -3.8984375 38.671875 C-4.25083496 37.8684668 -4.60323242 37.06505859 -4.96630859 36.23730469 C-8.19040672 29.2591197 -13.26117263 27.02218403 -20 24 C-20 23.34 -20 22.68 -20 22 C-18.783125 21.608125 -17.56625 21.21625 -16.3125 20.8125 C-8.69157321 17.90098396 -5.47172149 12.00679556 -2 5 C-1.29289322 3.35008418 -0.60028404 1.69170958 0 0 Z " fill="#E68272" transform="translate(48,1)"/>
<path d="M0 0 C8.58 0 17.16 0 26 0 C26.061875 4.063125 26.12375 8.12625 26.1875 12.3125 C26.21481201 13.59036377 26.24212402 14.86822754 26.27026367 16.18481445 C26.27775635 17.1924585 26.28524902 18.20010254 26.29296875 19.23828125 C26.3086792 20.26993408 26.32438965 21.30158691 26.34057617 22.36450195 C26 25 26 25 24.81445312 26.84179688 C22.33335216 28.42553516 20.6068886 28.34155064 17.67578125 28.29296875 C16.74934814 28.28547607 15.82291504 28.2779834 14.8684082 28.27026367 C13.6949585 28.24295166 12.52150879 28.21563965 11.3125 28.1875 C7.579375 28.125625 3.84625 28.06375 0 28 C0 18.76 0 9.52 0 0 Z " fill="#FEF6F1" transform="translate(50,63)"/>
<path d="M0 0 C4.35988072 -0.09890664 8.71916673 -0.17148376 13.07983398 -0.21972656 C14.56302261 -0.23983759 16.04613199 -0.26713074 17.52905273 -0.30175781 C19.66149435 -0.35030352 21.79288777 -0.37297195 23.92578125 -0.390625 C25.20880127 -0.41157227 26.49182129 -0.43251953 27.8137207 -0.45410156 C31 0 31 0 32.92382812 1.82226562 C34.43473036 4.87971752 34.28912669 7.36244358 34.1875 10.75 C34.14689453 12.50570312 34.14689453 12.50570312 34.10546875 14.296875 C34.07066406 15.18890625 34.03585938 16.0809375 34 17 C32.68 17.33 31.36 17.66 30 18 C30.01571045 18.73114014 30.0314209 19.46228027 30.04760742 20.21557617 C30.11010351 23.5394716 30.14903752 26.8632432 30.1875 30.1875 C30.21263672 31.33798828 30.23777344 32.48847656 30.26367188 33.67382812 C30.27333984 34.78564453 30.28300781 35.89746094 30.29296875 37.04296875 C30.3086792 38.06414795 30.32438965 39.08532715 30.34057617 40.13745117 C29.94517863 43.46077459 28.96790197 45.31742158 27 48 C24.47255912 49.26372044 22.73619692 49.12022795 19.90771484 49.11352539 C18.31629166 49.11341209 18.31629166 49.11341209 16.69271851 49.11329651 C14.96923691 49.10555458 14.96923691 49.10555458 13.2109375 49.09765625 C12.03737701 49.0962413 10.86381653 49.09482635 9.6546936 49.09336853 C5.89477015 49.08775689 2.13490555 49.07520238 -1.625 49.0625 C-4.16926998 49.0574865 -6.71354088 49.05292333 -9.2578125 49.04882812 C-15.50522853 49.03778368 -21.75261006 49.02103418 -28 49 C-28 48.34 -28 47.68 -28 47 C-25.44276771 45.72138385 -23.63262898 45.88663391 -20.7734375 45.90234375 C-19.3800415 45.90609009 -19.3800415 45.90609009 -17.95849609 45.90991211 C-16.77594238 45.91901611 -15.59338867 45.92812012 -14.375 45.9375 C-8.744375 45.9684375 -8.744375 45.9684375 -3 46 C-3 36.76 -3 27.52 -3 18 C-11.58 18 -20.16 18 -29 18 C-29 17.34 -29 16.68 -29 16 C-21.08 16.33 -13.16 16.66 -5 17 C-5 16.34 -5 15.68 -5 15 C-4.34 15 -3.68 15 -3 15 C-3 12.03 -3 9.06 -3 6 C-2.01 6.33 -1.02 6.66 0 7 C0 9.64 0 12.28 0 15 C10.23 15 20.46 15 31 15 C30.63379316 6.97949852 30.63379316 6.97949852 29 4 C19.43 3.67 9.86 3.34 0 3 C0 2.01 0 1.02 0 0 Z M0 18 C0 27.24 0 36.48 0 46 C3.733125 46.061875 7.46625 46.12375 11.3125 46.1875 C12.48594971 46.21481201 13.65939941 46.24212402 14.8684082 46.27026367 C15.79484131 46.27775635 16.72127441 46.28524902 17.67578125 46.29296875 C18.62364502 46.3086792 19.57150879 46.32438965 20.5480957 46.34057617 C23.00759019 46.17262546 23.00759019 46.17262546 24.81445312 44.84179688 C26.49003747 42.23870621 26.33986251 40.31763791 26.29296875 37.23828125 C26.28547607 36.23063721 26.2779834 35.22299316 26.27026367 34.18481445 C26.24295166 32.90695068 26.21563965 31.62908691 26.1875 30.3125 C26.125625 26.249375 26.06375 22.18625 26 18 C17.42 18 8.84 18 0 18 Z " fill="#DE7A48" transform="translate(50,45)"/>
<path d="M0 0 C8.25 0 16.5 0 25 0 C25 8.58 25 17.16 25 26 C21.24625 26.04125 17.4925 26.0825 13.625 26.125 C12.44244629 26.14320801 11.25989258 26.16141602 10.04150391 26.18017578 C9.11257324 26.1851709 8.18364258 26.19016602 7.2265625 26.1953125 C5.79691162 26.21102295 5.79691162 26.21102295 4.33837891 26.22705078 C2 26 2 26 0 24 C-0.22705078 21.56982422 -0.22705078 21.56982422 -0.1953125 18.5546875 C-0.19031738 17.58515137 -0.18532227 16.61561523 -0.18017578 15.61669922 C-0.16196777 14.38193848 -0.14375977 13.14717773 -0.125 11.875 C-0.08375 7.95625 -0.0425 4.0375 0 0 Z " fill="#FEFCFB" transform="translate(21,64)"/>
<path d="M0 0 C2.23840332 2.23840332 2.76031775 3.79493496 3.8125 6.75 C7.36597282 15.73059495 12.39615148 19.22433055 21 23 C18.93739449 25.06260551 17.35806517 25.82499969 14.75 27.0625 C9.40560361 29.94554797 6.95097434 33.83337607 4 39 C3.34 39.99 2.68 40.98 2 42 C2 40.68 2 39.36 2 38 C0.68 38 -0.64 38 -2 38 C-2.33 38.66 -2.66 39.32 -3 40 C-3.61875 38.6696875 -3.61875 38.6696875 -4.25 37.3125 C-8.15395775 29.92286568 -12.53465791 27.34800647 -20 24 C-20 23.34 -20 22.68 -20 22 C-18.783125 21.608125 -17.56625 21.21625 -16.3125 20.8125 C-8.69157321 17.90098396 -5.47172149 12.00679556 -2 5 C-1.29289322 3.35008418 -0.60028404 1.69170958 0 0 Z " fill="#D86F65" transform="translate(48,1)"/>
<path d="M0 0 C4.09333905 -0.07408587 8.18641933 -0.1285704 12.28027344 -0.16479492 C13.67324622 -0.17989358 15.06617138 -0.20037444 16.45898438 -0.22631836 C18.45942885 -0.26265122 20.46021827 -0.27811192 22.4609375 -0.29296875 C24.26763916 -0.31653442 24.26763916 -0.31653442 26.11083984 -0.34057617 C27.0642627 -0.22818604 28.01768555 -0.1157959 29 0 C31 3 31 3 31 12 C20.77 12 10.54 12 0 12 C0 8.04 0 4.08 0 0 Z " fill="#FDF3EC" transform="translate(50,48)"/>
<path d="M0 0 C1.25683594 0.00322266 2.51367188 0.00644531 3.80859375 0.00976562 C5.12730469 0.01814453 6.44601563 0.02652344 7.8046875 0.03515625 C9.14452961 0.04017136 10.4843735 0.04473424 11.82421875 0.04882812 C15.10941956 0.06064539 18.39453147 0.07712008 21.6796875 0.09765625 C21.6796875 4.05765625 21.6796875 8.01765625 21.6796875 12.09765625 C11.7796875 12.09765625 1.8796875 12.09765625 -8.3203125 12.09765625 C-8.3203125 8.46765625 -8.3203125 4.83765625 -8.3203125 1.09765625 C-5.50207058 -0.31146471 -3.14779968 -0.01417928 0 0 Z " fill="#FDF3F1" transform="translate(25.3203125,47.90234375)"/>
<path d="M0 0 C4.35988072 -0.09890664 8.71916673 -0.17148376 13.07983398 -0.21972656 C14.56302261 -0.23983759 16.04613199 -0.26713074 17.52905273 -0.30175781 C19.66149435 -0.35030352 21.79288777 -0.37297195 23.92578125 -0.390625 C25.20880127 -0.41157227 26.49182129 -0.43251953 27.8137207 -0.45410156 C31 0 31 0 32.92382812 1.82226562 C34.43473036 4.87971752 34.28912669 7.36244358 34.1875 10.75 C34.14689453 12.50570312 34.14689453 12.50570312 34.10546875 14.296875 C34.07066406 15.18890625 34.03585938 16.0809375 34 17 C33.01 17.495 33.01 17.495 32 18 C32 17.34 32 16.68 32 16 C29.03 16.495 29.03 16.495 26 17 C26 17.33 26 17.66 26 18 C17.42 18 8.84 18 0 18 C0 26.58 0 35.16 0 44 C-1.485 44.495 -1.485 44.495 -3 45 C-3 36.09 -3 27.18 -3 18 C-11.58 18 -20.16 18 -29 18 C-29 17.34 -29 16.68 -29 16 C-21.08 16.33 -13.16 16.66 -5 17 C-5 16.34 -5 15.68 -5 15 C-4.34 15 -3.68 15 -3 15 C-3 12.03 -3 9.06 -3 6 C-2.01 6.33 -1.02 6.66 0 7 C0 9.64 0 12.28 0 15 C10.23 15 20.46 15 31 15 C30.63379316 6.97949852 30.63379316 6.97949852 29 4 C19.43 3.67 9.86 3.34 0 3 C0 2.01 0 1.02 0 0 Z " fill="#D9754C" transform="translate(50,45)"/>
<path d="M0 0 C2.94181937 2.87006768 5.59660129 5.95395938 8.28125 9.0625 C9.80026938 10.77484912 11.36215149 12.40209901 13 14 C12.25363281 14.38800781 11.50726563 14.77601562 10.73828125 15.17578125 C7.68850972 17.20751207 6.20109089 19.14737257 4.1875 22.1875 C3.58292969 23.08855469 2.97835937 23.98960938 2.35546875 24.91796875 C1.90816406 25.60503906 1.46085937 26.29210937 1 27 C-1.94181937 24.12993232 -4.59660129 21.04604062 -7.28125 17.9375 C-8.80026938 16.22515088 -10.36215149 14.59790099 -12 13 C-11.20335937 12.34644531 -11.20335937 12.34644531 -10.390625 11.6796875 C-6.12916103 8.08699343 -2.81865152 4.81519634 0 0 Z " fill="#FDF3F1" transform="translate(48,11)"/>
<path d="M0 0 C1.32 0 2.64 0 4 0 C4.495 1.98 4.495 1.98 5 4 C14.57 4.33 24.14 4.66 34 5 C34 5.33 34 5.66 34 6 C24.1 6 14.2 6 4 6 C4 8.31 4 10.62 4 13 C3 15.4375 3 15.4375 2 17 C1.505 13.04 1.505 13.04 1 9 C-8.9 9.33 -18.8 9.66 -29 10 C-29 13.63 -29 17.26 -29 21 C-29.33 20.34 -29.66 19.68 -30 19 C-30.66 19 -31.32 19 -32 19 C-32 19.99 -32 20.98 -32 22 C-31.34 22.33 -30.68 22.66 -30 23 C-30.99 23 -31.98 23 -33 23 C-33.1357683 20.93933896 -33.23233903 18.87607243 -33.3125 16.8125 C-33.37050781 15.66394531 -33.42851563 14.51539063 -33.48828125 13.33203125 C-32.84647799 8.95236582 -31.41135635 7.74803706 -28 5 C-24.86206055 4.43237305 -24.86206055 4.43237305 -21.38671875 4.51171875 C-20.13955078 4.52783203 -18.89238281 4.54394531 -17.60742188 4.56054688 C-16.31384766 4.60244141 -15.02027344 4.64433594 -13.6875 4.6875 C-12.37458984 4.71005859 -11.06167969 4.73261719 -9.70898438 4.75585938 C-6.4714987 4.81472275 -3.23633 4.89691196 0 5 C0 3.35 0 1.7 0 0 Z " fill="#E67D6D" transform="translate(46,39)"/>
<path d="M0 0 C0.99 0.33 1.98 0.66 3 1 C3 4.3 3 7.6 3 11 C11.58 11 20.16 11 29 11 C29 11.33 29 11.66 29 12 C20.42 12 11.84 12 3 12 C3 20.58 3 29.16 3 38 C1.515 38.495 1.515 38.495 0 39 C0 30.09 0 21.18 0 12 C-8.58 12 -17.16 12 -26 12 C-26 11.34 -26 10.68 -26 10 C-18.08 10.33 -10.16 10.66 -2 11 C-2 10.34 -2 9.68 -2 9 C-1.34 9 -0.68 9 0 9 C0 6.03 0 3.06 0 0 Z " fill="#D56947" transform="translate(47,51)"/>
<path d="M0 0 C0.5787085 0.813479 1.15741699 1.62695801 1.75366211 2.46508789 C5.21538893 5.89430172 8.88173155 5.59073625 13.54457092 5.61778259 C14.66552658 5.59825027 15.78648224 5.57871796 16.94140625 5.55859375 C18.1012352 5.55626236 19.26106415 5.55393097 20.45603943 5.55152893 C22.9046058 5.54179691 25.35314983 5.52002269 27.80151367 5.48706055 C31.55225905 5.43763495 35.30169266 5.42557807 39.05273438 5.41992188 C41.43230564 5.40583636 43.81186551 5.38963213 46.19140625 5.37109375 C47.87587608 5.3630497 47.87587608 5.3630497 49.59437561 5.35484314 C50.63903488 5.33885574 51.68369415 5.32286835 52.76000977 5.30639648 C53.6775856 5.29575668 54.59516144 5.28511688 55.5405426 5.27415466 C58.11882541 4.98675458 59.7770301 4.30367696 62 3 C62.495 5.475 62.495 5.475 63 8 C55.39390612 8.11599547 47.78790426 8.20476637 40.18112659 8.25906086 C36.64867155 8.28512388 33.11682287 8.32045866 29.5847168 8.37719727 C25.52126339 8.44206064 21.45844402 8.46620732 17.39453125 8.48828125 C16.1297847 8.51408768 14.86503815 8.5398941 13.56196594 8.56648254 C3.79522783 8.56960611 3.79522783 8.56960611 0.6628418 5.46948242 C-0.16026489 4.24708862 -0.16026489 4.24708862 -1 3 C-0.67 2.01 -0.34 1.02 0 0 Z " fill="#FEECE4" transform="translate(17,88)"/>
<path d="M0 0 C0.33 0 0.66 0 1 0 C1.33 8.91 1.66 17.82 2 27 C9.59 27 17.18 27 25 27 C25 27.66 25 28.32 25 29 C15.76 29 6.52 29 -3 29 C-3 28.34 -3 27.68 -3 27 C-2.34 26.67 -1.68 26.34 -1 26 C-0.67 17.42 -0.34 8.84 0 0 Z " fill="#E47A3E" transform="translate(48,64)"/>
<path d="M0 0 C1.94326172 0.01933594 1.94326172 0.01933594 3.92578125 0.0390625 C5.28907324 0.07248134 6.65235449 0.10634109 8.015625 0.140625 C9.39450564 0.16069793 10.77341412 0.17894733 12.15234375 0.1953125 C15.52414244 0.24247052 18.89453187 0.30827962 22.265625 0.390625 C22.265625 0.720625 22.265625 1.050625 22.265625 1.390625 C13.025625 1.720625 3.785625 2.050625 -5.734375 2.390625 C-5.404375 3.050625 -5.074375 3.710625 -4.734375 4.390625 C-5.394375 4.390625 -6.054375 4.390625 -6.734375 4.390625 C-6.734375 8.020625 -6.734375 11.650625 -6.734375 15.390625 C-7.064375 14.730625 -7.394375 14.070625 -7.734375 13.390625 C-8.394375 13.390625 -9.054375 13.390625 -9.734375 13.390625 C-9.734375 14.380625 -9.734375 15.370625 -9.734375 16.390625 C-9.074375 16.720625 -8.414375 17.050625 -7.734375 17.390625 C-8.724375 17.390625 -9.714375 17.390625 -10.734375 17.390625 C-10.84269669 15.30844138 -10.92011041 13.22463371 -10.984375 11.140625 C-11.03078125 9.98046875 -11.0771875 8.8203125 -11.125 7.625 C-10.734375 4.390625 -10.734375 4.390625 -9.13085938 2.21289062 C-5.93610141 -0.21637521 -3.9836332 -0.0698883 0 0 Z " fill="#D86B67" transform="translate(23.734375,44.609375)"/>
<path d="M0 0 C0.33 0 0.66 0 1 0 C1 7.92 1 15.84 1 24 C1.66 24 2.32 24 3 24 C2.8125 25.875 2.8125 25.875 2 28 C-0.5625 29.25 -0.5625 29.25 -3 30 C-3 28.68 -3 27.36 -3 26 C-2.34 26 -1.68 26 -1 26 C-0.67 17.42 -0.34 8.84 0 0 Z " fill="#DB8D54" transform="translate(76,64)"/>
<path d="M0 0 C0.33 0 0.66 0 1 0 C1.01981934 0.70608398 1.03963867 1.41216797 1.06005859 2.13964844 C1.15540415 5.34346994 1.26504513 8.54664801 1.375 11.75 C1.42140625 13.41675781 1.42140625 13.41675781 1.46875 15.1171875 C1.50742187 16.18710938 1.54609375 17.25703125 1.5859375 18.359375 C1.6173584 19.34389648 1.6487793 20.32841797 1.68115234 21.34277344 C2.00102258 24.00852201 2.64368621 25.70616405 4 28 C2.68 28.33 1.36 28.66 0 29 C-0.66 28.01 -1.32 27.02 -2 26 C-1.34 26 -0.68 26 0 26 C0 17.42 0 8.84 0 0 Z " fill="#D28472" transform="translate(20,64)"/>
<path d="M0 0 C1.625 2.5 1.625 2.5 3 5 C2.01 5.495 2.01 5.495 1 6 C0.67 6.99 0.34 7.98 0 9 C-0.66 9 -1.32 9 -2 9 C-3.38232443 7.37373596 -4.71937515 5.7074998 -6 4 C-2.25 0 -2.25 0 0 0 Z " fill="#D47369" transform="translate(21,20)"/>
<path d="M0 0 C0.99 0 1.98 0 3 0 C1.69386058 3.91841827 0.16870152 6.32640809 -3 9 C-3.66 9 -4.32 9 -5 9 C-4.42636089 5.12793601 -2.65894107 2.81534937 0 0 Z " fill="#D16A62" transform="translate(43,13)"/>
<path d="M0 0 C0.33 0.99 0.66 1.98 1 3 C-0.49739583 4.20442708 -1.99479167 5.40885417 -3.4921875 6.61328125 C-5.25292107 8.12270545 -5.25292107 8.12270545 -7 11 C-7 6.27350947 -6.10874559 5.3752095 -3 2 C-2.01 1.34 -1.02 0.68 0 0 Z " fill="#FCE8E4" transform="translate(61,28)"/>
<path d="M0 0 C0.99 0.33 1.98 0.66 3 1 C3 3.64 3 6.28 3 9 C2.01 9 1.02 9 0 9 C0 6.03 0 3.06 0 0 Z " fill="#D0684C" transform="translate(47,51)"/>
<path d="M0 0 C2.97 1.98 2.97 1.98 6 4 C5.34 5.32 4.68 6.64 4 8 C4 6.68 4 5.36 4 4 C2.68 4 1.36 4 0 4 C-0.33 4.66 -0.66 5.32 -1 6 C-1.33 4.68 -1.66 3.36 -2 2 C-1.34 2 -0.68 2 0 2 C0 1.34 0 0.68 0 0 Z " fill="#DE7D6F" transform="translate(46,35)"/>
<path d="M0 0 C2.9375 0.375 2.9375 0.375 6 1 C6.33 1.66 6.66 2.32 7 3 C4.69 3.33 2.38 3.66 0 4 C0 2.68 0 1.36 0 0 Z " fill="#D57053" transform="translate(62,22)"/>
<path d="M0 0 C0 4.38968456 -2.12805101 5.76905739 -5 9 C-5.99 8.67 -6.98 8.34 -8 8 C-5.33333333 5.33333333 -2.66666667 2.66666667 0 0 Z " fill="#FDDEDB" transform="translate(44,17)"/>
<path d="M0 0 C1.32 0.66 2.64 1.32 4 2 C4 2.66 4 3.32 4 4 C2.68 4.33 1.36 4.66 0 5 C-0.66 4.01 -1.32 3.02 -2 2 C-1.34 2 -0.68 2 0 2 C0 1.34 0 0.68 0 0 Z " fill="#DB7F65" transform="translate(20,88)"/>
</svg>
