<svg version="1.1" id="Layer_1" xmlns="http://www.w3.org/2000/svg" xmlns:xlink="http://www.w3.org/1999/xlink" x="0px" y="0px"
	 width="100%" viewBox="0 0 283 178" enable-background="new 0 0 283 178" xml:space="preserve">
<path fill="#FDFDFD" opacity="1.000000" stroke="none" 
	d="
M170.000000,179.000000 
	C113.695541,179.000000 57.391087,179.000000 1.043315,179.000000 
	C1.043315,119.725983 1.043315,60.451927 1.043315,1.088936 
	C95.225616,1.088936 189.451340,1.088936 283.838531,1.088936 
	C283.838531,60.333008 283.838531,119.666451 283.838531,179.000000 
	C268.922058,179.000000 253.929688,179.000000 238.536499,178.776611 
	C238.135696,178.553207 238.073639,178.090378 238.236557,177.639969 
	C238.399475,167.921509 238.399475,158.653473 238.399475,148.910187 
	C233.161362,148.910187 228.363220,148.910187 223.516052,148.447891 
	C223.388199,129.293472 223.309387,110.601357 223.400787,91.798943 
	C223.745255,91.479485 223.886124,91.249817 224.462799,91.013092 
	C234.951385,91.031677 244.970779,91.036842 255.111694,91.412430 
	C256.011597,95.558327 256.789948,99.333809 257.838501,103.481857 
	C266.326477,103.854439 274.544281,103.854439 282.990112,103.854439 
	C282.990112,89.254478 283.003113,75.012428 282.947479,60.770657 
	C282.944977,60.130177 282.319977,59.492134 281.532837,58.721306 
	C226.458557,58.568554 171.836319,58.537231 117.214165,58.587570 
	C115.899010,58.588783 114.584686,59.501160 113.185265,60.450996 
	C113.100555,75.181526 113.100555,89.449623 113.100555,103.757614 
	C121.961212,103.757614 130.364319,103.757614 138.610077,103.757614 
	C139.546967,99.281502 140.414047,95.138809 141.228210,91.248993 
	C144.161163,91.248993 146.437469,91.248993 149.029602,91.248993 
	C145.852493,103.497299 138.035187,111.474403 127.298805,116.689690 
	C115.435715,122.452316 102.936768,123.511497 89.928802,121.197327 
	C79.824936,119.399803 70.505196,116.038010 62.240471,109.972885 
	C48.417267,99.828644 43.457436,84.389923 48.619179,67.983849 
	C55.670464,45.572060 82.539894,31.005281 107.723473,35.466194 
	C121.480934,37.903133 133.466125,43.776489 144.764725,52.437523 
	C153.435883,52.852875 161.794693,52.956474 170.153427,52.950203 
	C171.103180,52.949490 172.052490,52.331501 173.102020,51.540333 
	C173.088196,35.064327 172.974365,19.047726 172.636078,2.680660 
	C162.998718,2.330192 153.585846,2.330192 143.861053,2.330192 
	C143.861053,7.219553 143.861053,11.471287 143.861053,16.135336 
	C131.208496,9.906785 118.771210,4.689348 104.747398,4.611179 
	C96.897850,4.567426 88.942871,2.717053 81.225510,3.516330 
	C56.941883,6.031355 36.378445,16.587669 20.358938,35.115334 
	C6.296798,51.379169 -0.769784,70.169022 3.657230,91.823257 
	C8.998835,117.951103 26.374447,133.971680 49.972733,143.968613 
	C74.957077,154.552719 100.401939,152.138077 125.787064,145.457657 
	C132.610504,143.661972 139.251816,141.174210 145.921616,139.455658 
	C145.578323,142.035950 146.001038,143.201157 148.657852,143.137756 
	C157.758072,142.920624 166.864349,142.956924 176.388107,142.771805 
	C176.807907,125.552383 176.807907,108.457741 176.807907,90.652618 
	C179.939926,91.199165 182.287445,91.608810 184.534470,92.475723 
	C184.422348,94.919739 184.411575,96.906487 184.398941,98.893227 
	C184.292618,115.602531 184.185928,132.311829 183.608719,149.016968 
	C178.694138,149.012787 174.250198,149.012787 169.895508,149.012787 
	C169.895508,159.033340 169.895508,168.589478 169.862244,178.366486 
	C169.828964,178.587341 170.000000,179.000000 170.000000,179.000000 
z"/>
<path fill="#97A1AE" opacity="1.000000" stroke="none" 
	d="
M170.468658,179.000000 
	C170.000000,179.000000 169.828964,178.587341 170.336029,178.318344 
	C193.253265,178.063019 215.663452,178.076691 238.073639,178.090363 
	C238.073639,178.090378 238.135696,178.553207 238.067841,178.776611 
	C215.645767,179.000000 193.291550,179.000000 170.468658,179.000000 
z"/>
<path fill="#083258" opacity="1.000000" stroke="none" 
	d="
M238.236557,177.639954 
	C215.663452,178.076691 193.253265,178.063019 170.369293,178.097473 
	C169.895508,168.589478 169.895508,159.033340 169.895508,149.012787 
	C174.250198,149.012787 178.694138,149.012787 183.992828,148.897339 
	C185.231918,147.775085 185.947128,146.769669 185.951309,145.761322 
	C186.021088,128.972412 186.028046,112.183014 185.943604,95.394249 
	C185.937943,94.266823 185.090759,93.143631 184.634964,92.018463 
	C182.287445,91.608810 179.939926,91.199165 176.807907,90.652618 
	C176.807907,108.457741 176.807907,125.552383 176.083527,142.492188 
	C167.389236,142.223633 159.409668,142.289856 151.456497,141.863495 
	C149.584198,141.763123 147.800949,140.001526 145.976730,139.004150 
	C139.251816,141.174210 132.610504,143.661972 125.787064,145.457657 
	C100.401939,152.138077 74.957077,154.552719 49.972733,143.968613 
	C26.374447,133.971680 8.998835,117.951103 3.657230,91.823257 
	C-0.769784,70.169022 6.296798,51.379169 20.358938,35.115334 
	C36.378445,16.587669 56.941883,6.031355 81.225510,3.516330 
	C88.942871,2.717053 96.897850,4.567426 104.747398,4.611179 
	C118.771210,4.689348 131.208496,9.906785 143.861053,16.135336 
	C143.861053,11.471287 143.861053,7.219553 143.861053,2.330192 
	C153.585846,2.330192 162.998718,2.330192 172.366241,2.992928 
	C172.203583,19.758596 172.086273,35.861530 171.503540,51.976372 
	C162.176193,52.023270 153.314270,52.058254 144.452362,52.093239 
	C133.466125,43.776489 121.480934,37.903133 107.723473,35.466194 
	C82.539894,31.005281 55.670464,45.572060 48.619179,67.983849 
	C43.457436,84.389923 48.417267,99.828644 62.240471,109.972885 
	C70.505196,116.038010 79.824936,119.399803 89.928802,121.197327 
	C102.936768,123.511497 115.435715,122.452316 127.298805,116.689690 
	C138.035187,111.474403 145.852493,103.497299 149.029602,91.248993 
	C146.437469,91.248993 144.161163,91.248993 141.228210,91.248993 
	C140.414047,95.138809 139.546967,99.281502 138.610077,103.757614 
	C130.364319,103.757614 121.961212,103.757614 113.100555,103.757614 
	C113.100555,89.449623 113.100555,75.181526 113.636551,60.451321 
	C170.105560,60.001125 226.038574,60.013046 281.981995,60.491013 
	C281.994934,72.867592 281.776672,84.784264 282.107452,96.685677 
	C282.241608,101.512032 281.238129,103.551422 275.917267,103.117157 
	C269.841217,102.621269 263.688019,103.070671 257.568329,103.109283 
	C256.789948,99.333809 256.011597,95.558327 254.830811,91.101501 
	C246.331528,90.278778 238.234818,90.064529 230.137680,90.046814 
	C228.090347,90.042336 226.041656,90.665115 223.993591,90.999664 
	C223.886124,91.249817 223.745255,91.479485 223.063995,92.070862 
	C222.376663,93.079742 222.040009,93.706093 222.038788,94.333107 
	C222.005219,111.436920 221.977280,128.540939 222.067947,145.644302 
	C222.073730,146.735550 223.043671,147.821671 223.565079,148.910187 
	C228.363220,148.910187 233.161362,148.910187 238.399475,148.910187 
	C238.399475,158.653473 238.399475,167.921509 238.236557,177.639954 
M222.687012,86.095802 
	C230.853088,86.095734 239.019165,86.095604 247.185242,86.095589 
	C259.312347,86.095558 259.309387,86.096107 261.361694,97.891441 
	C261.411835,98.179565 261.720001,98.422798 261.978424,98.786346 
	C267.149414,98.786346 272.376953,98.786346 277.701050,98.786346 
	C277.701050,86.867043 277.701050,75.287964 277.701050,63.597187 
	C224.388245,63.597187 171.357376,63.597187 118.388062,63.597187 
	C118.388062,75.597649 118.388062,87.188049 118.388062,99.122986 
	C122.857460,99.122986 127.006531,98.984482 131.140915,99.171295 
	C133.934448,99.297516 134.873932,98.217270 135.142899,95.496643 
	C135.448074,92.409630 136.396378,89.386200 137.038452,86.456673 
	C143.184509,86.456673 148.903702,86.456673 154.819962,86.456673 
	C153.195221,99.875290 146.778305,109.887413 136.052200,117.265083 
	C112.089241,133.747375 71.465385,129.045654 51.948338,107.470886 
	C45.836079,100.714188 42.197739,92.797173 41.914391,83.591171 
	C41.241402,61.725399 52.996025,43.383965 73.566315,35.044224 
	C98.135757,25.083113 120.818558,30.270205 142.138885,44.551998 
	C143.914520,45.741440 145.677292,47.757710 147.537064,47.869030 
	C154.281097,48.272705 161.063919,48.028141 167.902832,48.028141 
	C167.902832,34.140175 167.902832,20.894548 167.902832,7.414066 
	C161.533371,7.414066 155.469025,7.414066 148.830887,7.414066 
	C148.830887,13.209255 148.830887,18.732845 148.830887,24.987986 
	C146.232071,23.495083 144.376877,22.452656 142.543701,21.372847 
	C105.917747,-0.201237 55.083927,2.501100 24.167494,38.331234 
	C10.521268,54.146320 3.767581,72.320015 9.061268,93.299515 
	C15.033197,116.966980 31.435743,131.557739 53.374680,139.805237 
	C85.087349,151.726990 115.832001,145.953827 145.756485,132.496735 
	C147.351746,131.779343 148.872818,130.896942 150.654877,129.974091 
	C150.829605,132.979996 150.969376,135.384399 151.109619,137.797028 
	C158.209793,137.797028 164.802658,137.797028 172.034195,137.797028 
	C172.034195,120.492905 172.034195,103.451660 172.034195,86.481865 
	C178.084122,86.481865 183.484299,86.481865 188.820557,86.481865 
	C188.820557,109.120209 188.820557,131.370712 188.820557,154.264374 
	C183.796646,154.264374 179.081696,154.264374 174.460327,154.264374 
	C174.460327,160.863068 174.460327,166.810623 174.460327,172.608231 
	C175.004425,172.921448 175.283844,173.222702 175.564529,173.223877 
	C193.888199,173.300735 212.212189,173.392044 230.535172,173.298157 
	C231.490723,173.293243 233.218613,171.730042 233.261322,170.829437 
	C233.518799,165.401733 233.389297,159.955658 233.389297,153.936310 
	C228.240585,153.936310 223.665039,153.936310 218.759308,153.936310 
	C218.759308,131.875671 218.721375,110.402580 218.885086,88.931030 
	C218.892334,87.979919 220.738174,87.042831 222.687012,86.095802 
z"/>
<path fill="#00234F" opacity="1.000000" stroke="none" 
	d="
M281.971588,60.024971 
	C226.038574,60.013046 170.105560,60.001125 113.721260,59.988880 
	C114.584686,59.501160 115.899010,58.588783 117.214165,58.587570 
	C171.836319,58.537231 226.458557,58.568554 281.533569,59.014359 
	C281.981445,59.634373 281.976501,59.829670 281.971588,60.024971 
z"/>
<path fill="#00234F" opacity="1.000000" stroke="none" 
	d="
M184.534470,92.475723 
	C185.090759,93.143631 185.937943,94.266823 185.943604,95.394249 
	C186.028046,112.183014 186.021088,128.972412 185.951309,145.761322 
	C185.947128,146.769669 185.231918,147.775085 184.463470,148.901505 
	C184.185928,132.311829 184.292618,115.602531 184.398941,98.893227 
	C184.411575,96.906487 184.422348,94.919739 184.534470,92.475723 
z"/>
<path fill="#001549" opacity="1.000000" stroke="none" 
	d="
M281.981995,60.491013 
	C281.976501,59.829670 281.981445,59.634373 281.985657,59.146015 
	C282.319977,59.492134 282.944977,60.130177 282.947479,60.770657 
	C283.003113,75.012428 282.990112,89.254478 282.990112,103.854439 
	C274.544281,103.854439 266.326477,103.854439 257.838501,103.481857 
	C263.688019,103.070671 269.841217,102.621269 275.917267,103.117157 
	C281.238129,103.551422 282.241608,101.512032 282.107452,96.685677 
	C281.776672,84.784264 281.994934,72.867592 281.981995,60.491013 
z"/>
<path fill="#00234F" opacity="1.000000" stroke="none" 
	d="
M223.516052,148.447891 
	C223.043671,147.821671 222.073730,146.735550 222.067947,145.644302 
	C221.977280,128.540939 222.005219,111.436920 222.038788,94.333107 
	C222.040009,93.706093 222.376663,93.079742 222.893784,92.181152 
	C223.309387,110.601357 223.388199,129.293472 223.516052,148.447891 
z"/>
<path fill="#001D4C" opacity="1.000000" stroke="none" 
	d="
M171.968964,51.964462 
	C172.086273,35.861530 172.203583,19.758596 172.590714,3.343395 
	C172.974365,19.047726 173.088196,35.064327 172.843658,51.534374 
	C172.313156,51.980038 172.141052,51.972248 171.968964,51.964462 
z"/>
<path fill="#001247" opacity="1.000000" stroke="none" 
	d="
M145.921616,139.455658 
	C147.800949,140.001526 149.584198,141.763123 151.456497,141.863495 
	C159.409668,142.289856 167.389236,142.223633 175.663727,142.616943 
	C166.864349,142.956924 157.758072,142.920624 148.657852,143.137756 
	C146.001038,143.201157 145.578323,142.035950 145.921616,139.455658 
z"/>
<path fill="#000F46" opacity="1.000000" stroke="none" 
	d="
M224.462799,91.013092 
	C226.041656,90.665115 228.090347,90.042336 230.137680,90.046814 
	C238.234818,90.064529 246.331528,90.278778 254.709290,90.731079 
	C244.970779,91.036842 234.951385,91.031677 224.462799,91.013092 
z"/>
<path fill="#000643" opacity="1.000000" stroke="none" 
	d="
M171.503540,51.976372 
	C172.141052,51.972248 172.313156,51.980038 172.743637,51.993782 
	C172.052490,52.331501 171.103180,52.949490 170.153427,52.950203 
	C161.794693,52.956474 153.435883,52.852875 144.764725,52.437519 
	C153.314270,52.058254 162.176193,52.023270 171.503540,51.976372 
z"/>
<path fill="#B1A269" opacity="1.000000" stroke="none" 
	d="
M222.207306,86.097504 
	C220.738174,87.042831 218.892334,87.979919 218.885086,88.931030 
	C218.721375,110.402580 218.759308,131.875671 218.759308,153.936310 
	C223.665039,153.936310 228.240585,153.936310 233.389297,153.936310 
	C233.389297,159.955658 233.518799,165.401733 233.261322,170.829437 
	C233.218613,171.730042 231.490723,173.293243 230.535172,173.298157 
	C212.212189,173.392044 193.888199,173.300735 175.564529,173.223877 
	C175.283844,173.222702 175.004425,172.921448 174.460327,172.608231 
	C174.460327,166.810623 174.460327,160.863068 174.460327,154.264374 
	C179.081696,154.264374 183.796646,154.264374 188.820557,154.264374 
	C188.820557,131.370712 188.820557,109.120209 188.820557,86.481865 
	C183.484299,86.481865 178.084122,86.481865 172.034195,86.481865 
	C172.034195,103.451660 172.034195,120.492905 172.034195,137.797028 
	C164.802658,137.797028 158.209793,137.797028 151.109619,137.797028 
	C150.969376,135.384399 150.829605,132.979996 150.654877,129.974091 
	C148.872818,130.896942 147.351746,131.779343 145.756485,132.496735 
	C115.832001,145.953827 85.087349,151.726990 53.374680,139.805237 
	C31.435743,131.557739 15.033197,116.966980 9.061268,93.299515 
	C3.767581,72.320015 10.521268,54.146320 24.167494,38.331234 
	C55.083927,2.501100 105.917747,-0.201237 142.543701,21.372847 
	C144.376877,22.452656 146.232071,23.495083 148.830887,24.987986 
	C148.830887,18.732845 148.830887,13.209255 148.830887,7.414066 
	C155.469025,7.414066 161.533371,7.414066 167.902832,7.414066 
	C167.902832,20.894548 167.902832,34.140175 167.902832,48.028141 
	C161.063919,48.028141 154.281097,48.272705 147.537064,47.869030 
	C145.677292,47.757710 143.914520,45.741440 142.138885,44.551998 
	C120.818558,30.270205 98.135757,25.083113 73.566315,35.044224 
	C52.996025,43.383965 41.241402,61.725399 41.914391,83.591171 
	C42.197739,92.797173 45.836079,100.714188 51.948338,107.470886 
	C71.465385,129.045654 112.089241,133.747375 136.052200,117.265083 
	C146.778305,109.887413 153.195221,99.875290 154.819962,86.456673 
	C148.903702,86.456673 143.184509,86.456673 137.038452,86.456673 
	C136.396378,89.386200 135.448074,92.409630 135.142899,95.496643 
	C134.873932,98.217270 133.934448,99.297516 131.140915,99.171295 
	C127.006531,98.984482 122.857460,99.122986 118.388062,99.122986 
	C118.388062,87.188049 118.388062,75.597649 118.388062,63.597187 
	C171.357376,63.597187 224.388245,63.597187 277.701050,63.597187 
	C277.701050,75.287964 277.701050,86.867043 277.701050,98.786346 
	C272.376953,98.786346 267.149414,98.786346 261.978424,98.786346 
	C261.720001,98.422798 261.411835,98.179565 261.361694,97.891441 
	C259.309387,86.096107 259.312347,86.095558 247.185242,86.095589 
	C239.019165,86.095604 230.853088,86.095734 222.207306,86.097504 
z"/>
</svg>