<svg version="1.1" id="Layer_1" xmlns="http://www.w3.org/2000/svg" xmlns:xlink="http://www.w3.org/1999/xlink" x="0px" y="0px"
	 width="100%" viewBox="0 0 300 300" enable-background="new 0 0 300 300" xml:space="preserve">
<path fill="#AD9D63" opacity="1.000000" stroke="none" 
	d="
M1.000000,46.000000 
	C1.000000,36.312439 1.000000,26.624876 1.468657,16.468674 
	C101.624878,16.000021 201.312439,16.000011 301.000000,16.000000 
	C301.000000,25.687561 301.000000,35.375122 300.531342,45.531425 
	C250.828735,46.000340 201.594788,46.000462 152.360840,46.000751 
	C145.920258,46.000790 139.474106,46.171131 133.040527,45.959087 
	C125.086563,45.696934 117.077919,42.246624 109.219345,46.695763 
	C108.390327,47.165108 106.944298,46.635429 105.804131,46.449196 
	C99.735619,45.457985 93.879700,45.406677 88.999931,50.002838 
	C89.000000,50.000031 88.994270,50.000450 88.921326,49.639183 
	C87.084793,45.255432 83.381401,46.057533 80.219933,46.047882 
	C53.813488,45.967262 27.406691,46.000854 1.000000,46.000000 
z"/>
<path fill="#8D7D41" opacity="1.000000" stroke="none" 
	d="
M1.000000,255.000000 
	C1.000000,245.979111 1.000000,236.958206 1.468657,227.468475 
	C12.744957,226.999557 23.552599,226.999359 34.360241,226.999451 
	C42.394455,226.999512 50.429134,226.950668 58.462624,227.027054 
	C61.277599,227.053833 64.184853,227.910370 66.873123,227.419479 
	C69.053444,227.021347 70.969063,225.173599 73.002090,223.968796 
	C71.995628,222.312164 70.989159,220.655548 70.285706,218.828796 
	C73.066727,219.411179 75.544746,220.163681 78.101334,221.202896 
	C79.239769,222.619034 80.351494,224.750961 81.350250,224.699295 
	C85.091774,224.505737 89.048180,224.093384 91.368271,219.996460 
	C93.003372,220.944748 94.150063,222.164413 95.559364,222.732025 
	C97.747208,223.613159 100.157356,224.595795 102.384323,224.418427 
	C103.331741,224.342987 104.054428,221.445587 104.890030,219.868744 
	C104.900826,219.906876 104.823067,219.891495 105.160759,219.715424 
	C105.985794,215.695053 106.473137,211.850739 107.238373,207.874207 
	C108.355370,208.606750 109.503181,209.331390 109.972008,210.364243 
	C111.091164,212.829834 111.890091,215.440781 112.884331,218.317230 
	C113.008392,219.078079 113.066444,219.514725 112.896851,220.127304 
	C112.792816,221.163483 112.916443,222.023727 113.040062,222.883972 
	C115.342781,222.245926 117.645500,221.607895 120.265976,220.921448 
	C122.467232,220.537384 124.350723,220.201752 126.618431,219.907593 
	C128.291000,219.943939 129.579361,219.938766 131.147659,220.083649 
	C133.239044,223.206055 135.050476,226.178406 137.062881,229.420135 
	C138.508621,230.130310 139.753403,230.571136 141.078369,231.340485 
	C141.935928,233.995132 142.733994,236.291153 146.468658,234.998505 
	C170.382355,234.999252 193.827576,234.950760 217.272232,235.045013 
	C221.516754,235.062073 225.758911,235.664658 230.384171,236.084747 
	C234.438629,236.730148 238.099777,237.415771 241.792648,237.742477 
	C242.576019,237.811783 243.475281,236.571259 244.321136,235.934204 
	C243.546814,235.289459 242.772491,234.644730 242.106354,233.678711 
	C243.476547,232.570938 244.738571,231.784454 246.291595,231.124985 
	C247.389603,231.501495 248.196640,231.751022 249.363831,231.964828 
	C252.987244,230.715485 255.804214,230.393326 258.569336,233.561218 
	C259.678711,234.832214 262.547333,234.918442 264.621246,234.938919 
	C276.746490,235.058670 288.873566,234.999069 301.000000,235.000000 
	C301.000000,241.354401 301.000000,247.708786 300.531342,254.531586 
	C200.375122,255.000000 100.687561,255.000000 1.000000,255.000000 
z"/>
<path fill="#8B793B" opacity="1.000000" stroke="none" 
	d="
M1.000000,255.468628 
	C100.687561,255.000000 200.375122,255.000000 300.531342,255.000000 
	C301.000000,262.687592 301.000000,270.375153 300.531342,278.531372 
	C200.375122,279.000000 100.687561,279.000000 1.000000,279.000000 
	C1.000000,271.312408 1.000000,263.624847 1.000000,255.468628 
z"/>
<path fill="#97874B" opacity="1.000000" stroke="none" 
	d="
M301.000000,167.000000 
	C301.000000,172.688034 301.000000,178.376083 300.531342,184.532059 
	C273.125854,185.000000 246.188522,185.086090 219.252686,184.922684 
	C214.253128,184.892349 209.727097,185.001450 206.970383,189.659729 
	C206.287827,187.879639 205.641602,186.441650 205.096237,184.715637 
	C204.517075,183.435257 203.837051,182.442917 203.157013,181.450562 
	C202.443527,182.638870 201.730057,183.827179 200.888428,185.301056 
	C200.495773,186.375168 200.231262,187.163727 199.680115,188.123627 
	C197.858353,190.112717 196.323227,191.930496 195.122406,193.352448 
	C192.632858,191.118408 190.148514,188.133881 189.545670,188.474960 
	C186.454453,190.223831 183.847580,192.828766 180.581619,195.541412 
	C178.033127,195.243927 174.224411,195.217148 170.666931,194.258286 
	C167.549240,193.417969 165.160965,193.668304 162.715179,196.078857 
	C161.980301,196.494583 161.513550,196.813461 161.012024,197.347412 
	C160.977219,197.562515 160.831924,197.973358 160.566711,198.153137 
	C159.979477,200.876740 159.657440,203.420547 159.239838,206.719299 
	C157.798218,205.512192 156.884491,204.747101 155.882904,203.862106 
	C155.795074,203.742203 155.848999,203.449860 155.866577,203.038330 
	C154.851807,196.712891 153.111420,195.111847 147.489975,195.028961 
	C144.335083,194.982437 141.178833,195.028961 137.751068,194.879639 
	C133.442184,194.019577 130.909821,200.015198 126.157501,197.225693 
	C125.580833,197.193024 125.281319,197.068863 124.883965,196.655762 
	C123.161438,196.721161 121.569038,196.997574 119.930092,197.330658 
	C119.883545,197.387329 119.755371,197.316055 119.380501,197.178940 
	C116.796585,196.052094 114.617821,194.325806 112.371887,194.233475 
	C108.308182,194.066422 104.204391,194.874329 99.817665,195.304581 
	C99.804916,195.210129 99.932388,196.154236 100.028198,197.329498 
	C99.996536,197.560684 99.854607,198.005234 99.527931,197.970505 
	C96.469841,197.623322 93.738434,197.310867 90.781143,196.760956 
	C89.061531,195.597977 87.242073,193.593307 86.129097,193.929276 
	C80.606712,195.596130 80.873520,193.335541 82.264725,189.341415 
	C82.499969,188.666031 80.875496,187.342880 80.110245,186.319000 
	C79.302132,187.127563 78.150055,187.801956 77.769562,188.777359 
	C77.247993,190.114395 77.311928,191.679840 77.124931,193.147400 
	C75.435387,192.360916 73.377998,191.944763 72.134308,190.709412 
	C69.687111,188.278595 67.304008,186.734497 63.534340,188.372513 
	C62.808163,188.176208 62.403210,188.024948 61.790443,187.578079 
	C54.797363,184.260330 50.128365,186.669830 48.529442,193.886383 
	C47.818054,193.940887 47.411457,193.970444 46.658047,193.925110 
	C43.608097,194.626480 40.904957,195.402725 38.679794,196.041702 
	C34.830017,195.348221 31.103168,194.215851 27.343145,194.092194 
	C18.570576,193.803650 9.782058,194.000046 1.000000,194.000000 
	C1.000000,185.312439 1.000000,176.624863 1.468657,167.468658 
	C101.624878,167.000000 201.312439,167.000000 301.000000,167.000000 
z"/>
<path fill="#877638" opacity="1.000000" stroke="none" 
	d="
M1.000000,279.468536 
	C100.687561,279.000000 200.375122,279.000000 300.531342,279.000000 
	C301.000000,285.687653 301.000000,292.375275 300.531342,299.529907 
	C200.375122,299.997925 100.687561,299.998962 1.000000,300.000000 
	C1.000000,293.312347 1.000000,286.624725 1.000000,279.468536 
z"/>
<path fill="#A89960" opacity="1.000000" stroke="none" 
	d="
M1.000000,46.375000 
	C27.406691,46.000854 53.813488,45.967262 80.219933,46.047882 
	C83.381401,46.057533 87.084793,45.255432 88.561142,49.580425 
	C86.904816,49.352531 85.478424,48.301792 84.183472,48.444420 
	C82.991646,48.575691 81.941177,49.990376 80.828430,50.839691 
	C82.973846,52.125473 85.119270,53.411255 87.264687,54.697037 
	C87.843079,53.133240 88.421471,51.569443 88.999863,50.005646 
	C93.879700,45.406677 99.735619,45.457985 105.804131,46.449196 
	C106.944298,46.635429 108.390327,47.165108 109.219345,46.695763 
	C117.077919,42.246624 125.086563,45.696934 133.040527,45.959087 
	C139.474106,46.171131 145.920258,46.000790 152.360840,46.000751 
	C201.594788,46.000462 250.828735,46.000340 300.531342,46.000084 
	C301.000000,56.020893 301.000000,66.041786 300.531342,76.531097 
	C262.897552,76.999367 225.732315,77.040565 188.567444,76.941788 
	C184.369293,76.930634 180.173248,76.130104 176.904480,75.791710 
	C174.248978,77.010277 172.100662,77.996109 169.950317,78.514465 
	C169.948273,68.604233 169.948273,59.161476 169.948273,49.429985 
	C163.975113,49.429985 158.582077,49.429985 152.978149,49.429985 
	C152.594971,51.933136 152.252258,54.171932 151.858765,56.742496 
	C150.369049,56.142490 149.136856,55.714035 147.962051,55.163185 
	C113.104599,38.819023 74.074196,54.698559 63.646282,87.945419 
	C61.503426,85.859367 59.367855,84.031883 57.999916,81.745193 
	C56.296440,78.897614 54.720531,78.743484 52.588310,80.973595 
	C51.829666,81.767067 51.207218,82.690742 50.522602,83.554985 
	C50.493015,83.082840 50.463432,82.610703 50.433846,82.138565 
	C46.602871,81.425217 42.782944,80.176064 38.938889,80.096786 
	C26.297304,79.836090 13.646972,79.999512 1.000000,80.000000 
	C1.000000,77.299988 1.000000,74.599968 1.468657,71.450119 
	C20.091825,71.000595 38.246357,70.988846 56.400818,71.019875 
	C58.219040,71.022980 60.146420,70.945000 61.835369,71.488335 
	C68.310097,73.571259 70.648018,72.332588 73.027145,65.733131 
	C73.781425,63.640846 75.476570,61.905155 76.573067,59.913727 
	C77.583633,58.078384 78.368622,56.118839 79.252975,54.214012 
	C77.051590,54.018467 74.699867,53.266850 72.697708,53.808163 
	C71.171646,54.220757 69.925690,56.155102 68.857483,57.631256 
	C67.895462,58.960686 67.344475,60.587555 66.612198,62.083237 
	C65.962166,61.939106 65.312134,61.794979 64.662102,61.650848 
	C64.857903,57.812126 65.053696,53.973404 65.307365,49.000000 
	C44.387810,49.000000 22.693905,49.000000 1.000000,49.000000 
	C1.000000,48.250000 1.000000,47.500000 1.000000,46.375000 
M64.466537,81.332108 
	C63.761250,80.850304 63.055962,80.368507 62.350677,79.886711 
	C62.138012,80.864494 61.925350,81.842278 61.712685,82.820068 
	C62.575401,82.516777 63.438118,82.213486 64.466537,81.332108 
M96.221024,48.463791 
	C95.775108,48.831341 95.329193,49.198891 94.883278,49.566444 
	C95.217049,49.795235 95.550819,50.024021 95.884583,50.252808 
	C96.137123,49.694176 96.389664,49.135544 96.221024,48.463791 
z"/>
<path fill="#9A8A4E" opacity="1.000000" stroke="none" 
	d="
M301.000000,166.531372 
	C201.312439,167.000000 101.624878,167.000000 1.468657,167.000000 
	C1.000000,162.643097 1.000000,158.286194 1.468657,153.464645 
	C52.768009,153.000000 103.598808,152.957047 154.429184,153.084991 
	C158.320724,153.094788 162.209229,154.312195 166.336609,155.093567 
	C167.051498,155.472626 167.528915,155.726395 168.052094,156.243408 
	C168.076126,156.683456 168.054367,156.860245 168.029114,157.209747 
	C168.065079,157.618271 168.172440,157.817505 168.508484,158.013428 
	C168.669327,158.046692 168.922745,158.255707 169.156052,158.548889 
	C171.300797,159.228241 173.208527,159.924088 175.124313,159.946976 
	C183.444092,160.046417 191.766388,159.974747 200.087402,159.914642 
	C204.916077,159.879745 210.201553,161.156631 213.207916,155.511734 
	C213.413544,155.125641 214.437653,155.175430 215.127075,155.391418 
	C215.321838,156.741653 215.470642,157.722961 215.311279,158.779053 
	C214.447845,159.273148 213.892609,159.692444 213.337357,160.111725 
	C213.578522,160.349747 213.819672,160.587769 214.060837,160.825775 
	C214.706192,160.119293 215.351562,159.412811 216.408417,158.768661 
	C218.190155,158.359924 219.560425,157.888840 220.930679,157.417755 
	C219.955048,155.591034 218.979401,153.764297 218.018845,151.549683 
	C219.078064,145.000427 222.115662,141.920441 226.105011,142.618347 
	C229.818695,143.268051 233.594101,143.915955 237.346008,143.938049 
	C258.563416,144.063004 279.781891,143.999390 301.000000,144.000000 
	C301.000000,151.354248 301.000000,158.708496 301.000000,166.531372 
z"/>
<path fill="#B1A166" opacity="1.000000" stroke="none" 
	d="
M301.000000,15.527336 
	C201.312439,16.000011 101.624878,16.000021 1.468657,16.000015 
	C1.000000,11.006758 1.000000,6.013515 1.000000,1.036805 
	C101.000008,1.036805 201.000015,1.036805 301.000000,1.036805 
	C301.000000,5.733964 301.000000,10.394319 301.000000,15.527336 
z"/>
<path fill="#9F8F55" opacity="1.000000" stroke="none" 
	d="
M301.000000,143.531342 
	C279.781891,143.999390 258.563416,144.063004 237.346008,143.938049 
	C233.594101,143.915955 229.818695,143.268051 226.105011,142.618347 
	C222.115662,141.920441 219.078064,145.000427 217.799225,151.710327 
	C217.095581,152.531082 216.626633,152.803299 215.874817,153.066254 
	C215.403381,153.049164 215.214844,153.041351 215.019989,152.602936 
	C214.305786,149.755844 213.597900,147.339371 212.888092,144.558914 
	C212.094681,139.405899 211.921021,139.258850 208.679718,140.964966 
	C207.903137,140.975082 207.458679,140.934387 206.850525,140.615021 
	C204.911407,139.537384 203.135956,138.738403 201.289673,137.479538 
	C201.261154,127.033600 201.303452,117.047554 201.662659,106.940399 
	C204.341217,105.659782 206.702911,104.500275 209.508911,103.275482 
	C212.947037,103.251793 215.940811,103.293388 219.059814,103.657837 
	C220.792007,106.315369 222.399002,108.650040 224.473083,111.044647 
	C229.540756,111.061928 234.141357,111.019264 238.844391,110.846588 
	C239.054382,110.510941 239.081665,110.295120 239.005112,110.051315 
	C238.981522,110.033485 239.030853,110.000862 239.264954,109.867889 
	C239.971237,109.479546 240.443405,109.224182 241.389496,108.974655 
	C261.575623,108.986992 281.287811,108.993492 301.000000,109.000000 
	C301.000000,120.354225 301.000000,131.708450 301.000000,143.531342 
M222.497787,112.480553 
	C222.497787,112.480553 222.508301,112.513084 222.497787,112.480553 
z"/>
<path fill="#9C8C51" opacity="1.000000" stroke="none" 
	d="
M166.099136,154.968277 
	C162.209229,154.312195 158.320724,153.094788 154.429184,153.084991 
	C103.598808,152.957047 52.768009,153.000000 1.468657,153.000000 
	C1.000000,146.312363 1.000000,139.624710 1.468657,132.468536 
	C22.256620,131.999924 42.576786,132.093475 62.894371,131.906631 
	C66.237770,131.875885 69.551727,130.495987 72.916267,129.981323 
	C74.219269,129.781998 75.667236,130.097687 76.975014,130.452255 
	C79.707764,131.193176 82.391212,132.115906 85.436989,133.038406 
	C108.122086,145.426849 130.544861,141.658035 152.795471,133.970154 
	C154.844238,135.329468 157.019028,136.702866 159.263260,136.827667 
	C162.813416,137.025101 166.410095,136.385971 170.288895,136.246124 
	C172.518021,136.705704 174.445358,137.020035 176.372681,137.334351 
	C176.418930,137.757965 176.465179,138.181564 176.511444,138.605179 
	C174.339417,139.365509 172.167404,140.125839 169.676437,140.943161 
	C169.141495,141.000702 168.925507,141.001236 168.545288,141.112976 
	C168.181488,141.414688 168.057632,141.645828 168.032684,142.191040 
	C168.031967,142.645859 168.008072,142.827225 167.684433,143.206543 
	C166.999451,145.048813 166.439178,146.675613 166.272278,148.341812 
	C166.052673,150.534424 166.142410,152.758011 166.099136,154.968277 
z"/>
<path fill="#A4955B" opacity="1.000000" stroke="none" 
	d="
M169.952347,78.981934 
	C172.100662,77.996109 174.248978,77.010277 176.904480,75.791710 
	C180.173248,76.130104 184.369293,76.930634 188.567444,76.941788 
	C225.732315,77.040565 262.897552,76.999367 300.531342,76.999756 
	C301.000000,80.692909 301.000000,84.385818 300.531342,88.539368 
	C290.628326,89.000000 281.191711,89.128685 271.760162,88.966248 
	C260.860779,88.778519 249.965790,88.334335 238.989838,87.630112 
	C238.805725,85.999863 238.700653,84.740997 238.807556,83.355438 
	C239.438782,83.068291 239.858047,82.907837 240.277313,82.747383 
	C240.014221,82.511887 239.751144,82.276390 239.488052,82.040894 
	C239.171646,82.502853 238.855240,82.964813 238.193512,83.539261 
	C236.644379,83.621956 235.440552,83.592148 233.887817,83.289352 
	C231.273575,82.676620 229.009079,82.048409 226.742722,82.041534 
	C202.792587,81.968948 178.841919,82.046059 154.892166,81.927063 
	C152.059341,81.912987 149.231110,80.974236 146.400757,80.464111 
	C146.429092,80.652779 146.457428,80.841438 146.485764,81.030106 
	C140.997543,81.030106 135.509323,81.030106 128.792862,81.030106 
	C130.690796,82.386101 131.791367,83.172401 132.869141,84.400307 
	C132.756592,86.895729 132.666809,88.949554 132.282135,91.145447 
	C131.436691,91.887009 130.516876,92.419098 130.393234,93.096504 
	C129.264282,99.281921 125.092674,100.130661 119.664482,100.106293 
	C111.886833,100.071381 104.106842,100.790512 96.325905,101.145042 
	C93.223549,101.286400 93.472168,99.498886 93.846436,97.178131 
	C94.713829,91.799622 95.261574,86.369576 95.962433,80.964691 
	C95.985962,80.968964 95.945869,80.974129 96.127762,80.802567 
	C96.545120,80.395218 96.775665,80.154716 96.959320,79.936203 
	C96.917351,79.962891 96.864067,79.878883 97.257668,79.864441 
	C101.489288,79.317337 105.279137,78.736534 104.256149,73.211327 
	C104.307098,73.128960 104.488373,73.197235 104.838348,73.296623 
	C106.119324,73.266380 107.050323,73.136749 108.075027,73.350891 
	C109.792084,74.581734 111.395851,76.177055 113.042465,76.222580 
	C117.906487,76.357063 122.800400,76.027046 127.658554,75.603043 
	C133.895538,75.058693 140.307816,78.902428 146.720612,74.923645 
	C149.766006,76.387253 152.372253,78.599770 155.215164,78.963715 
	C160.049103,79.582558 165.032028,79.037758 169.952347,78.981934 
z"/>
<path fill="#A49459" opacity="1.000000" stroke="none" 
	d="
M1.000000,80.468658 
	C13.646972,79.999512 26.297304,79.836090 38.938889,80.096786 
	C42.782944,80.176064 46.602871,81.425217 50.433846,82.138565 
	C50.463432,82.610703 50.493015,83.082840 50.522602,83.554985 
	C51.207218,82.690742 51.829666,81.767067 52.588310,80.973595 
	C54.720531,78.743484 56.296440,78.897614 57.999916,81.745193 
	C59.367855,84.031883 61.503426,85.859367 63.664627,88.283669 
	C63.929794,89.115067 63.828693,89.553429 63.398785,90.138481 
	C59.821220,94.484276 60.133911,100.873375 63.863632,104.356995 
	C64.365509,106.374947 64.745293,108.042992 64.844528,109.926033 
	C63.149940,110.495445 60.986282,111.618256 60.438923,111.084282 
	C55.485920,106.252357 49.654346,109.182579 44.286583,109.087296 
	C29.861750,108.831245 15.429379,108.999947 1.000000,109.000000 
	C1.000000,99.645775 1.000000,90.291542 1.000000,80.468658 
z"/>
<path fill="#928246" opacity="1.000000" stroke="none" 
	d="
M1.000000,194.468658 
	C9.782058,194.000046 18.570576,193.803650 27.343145,194.092194 
	C31.103168,194.215851 34.830017,195.348221 38.679794,196.041702 
	C40.904957,195.402725 43.608097,194.626480 46.463692,194.229324 
	C45.863941,196.053635 44.852268,197.423508 44.406719,198.957764 
	C42.888649,204.185257 44.110645,207.456940 48.028519,209.295563 
	C48.363976,209.959991 48.575733,210.327286 48.759422,211.044601 
	C50.803356,218.090271 55.460819,220.984161 62.257324,219.786652 
	C64.037094,219.473053 65.811211,219.127426 67.986763,218.834991 
	C68.917961,218.915283 69.450333,218.957092 69.982697,218.998917 
	C70.989159,220.655548 71.995628,222.312164 73.002090,223.968796 
	C70.969063,225.173599 69.053444,227.021347 66.873123,227.419479 
	C64.184853,227.910370 61.277599,227.053833 58.462624,227.027054 
	C50.429134,226.950668 42.394455,226.999512 34.360241,226.999451 
	C23.552599,226.999359 12.744957,226.999557 1.468657,226.999817 
	C1.000000,216.312439 1.000000,205.624878 1.000000,194.468658 
z"/>
<path fill="#948449" opacity="1.000000" stroke="none" 
	d="
M207.006714,190.001831 
	C209.727097,185.001450 214.253128,184.892349 219.252686,184.922684 
	C246.188522,185.086090 273.125854,185.000000 300.531342,185.000000 
	C301.000000,192.020950 301.000000,199.041901 300.531342,206.531433 
	C289.933624,207.000000 279.798981,207.201660 269.677582,206.923477 
	C263.717804,206.759659 258.156372,206.757126 254.955429,212.588531 
	C254.341721,207.784882 253.773697,203.395187 253.103577,198.622070 
	C250.818863,198.046677 248.633774,197.879288 246.454086,197.658356 
	C238.028610,196.804504 236.498672,197.696259 233.699341,205.202927 
	C232.243301,204.610458 230.988098,203.844025 229.562531,202.853638 
	C229.309311,202.076782 229.226440,201.523834 229.270416,200.675018 
	C228.266937,199.489288 227.136612,198.599472 226.222504,197.458954 
	C226.300522,197.380493 226.162338,197.552734 225.836426,197.371414 
	C220.936340,196.069763 216.225174,195.115402 211.504410,194.211227 
	C211.390671,194.189438 211.169724,194.727386 210.668213,195.001801 
	C209.897110,194.995514 209.456573,194.991714 208.893814,194.720337 
	C208.183304,193.966293 207.595001,193.479843 207.006287,192.619568 
	C207.006149,191.497757 207.006424,190.749802 207.006714,190.001831 
z"/>
<path fill="#9F9055" opacity="1.000000" stroke="none" 
	d="
M1.000000,109.468620 
	C15.429379,108.999947 29.861750,108.831245 44.286583,109.087296 
	C49.654346,109.182579 55.485920,106.252357 60.438923,111.084282 
	C60.986282,111.618256 63.149940,110.495445 65.066711,110.155396 
	C65.782265,110.985519 65.995087,111.801270 66.066795,112.934174 
	C65.130348,115.824211 64.823654,118.030800 69.002281,117.300400 
	C74.520203,122.689911 79.807556,127.826942 85.094902,132.963959 
	C82.391212,132.115906 79.707764,131.193176 76.975014,130.452255 
	C75.667236,130.097687 74.219269,129.781998 72.916267,129.981323 
	C69.551727,130.495987 66.237770,131.875885 62.894371,131.906631 
	C42.576786,132.093475 22.256620,131.999924 1.468657,132.000000 
	C1.000000,124.645744 1.000000,117.291496 1.000000,109.468620 
z"/>
<path fill="#A8995F" opacity="1.000000" stroke="none" 
	d="
M1.000000,49.468578 
	C22.693905,49.000000 44.387810,49.000000 65.307365,49.000000 
	C65.053696,53.973404 64.857903,57.812126 64.662102,61.650848 
	C65.312134,61.794979 65.962166,61.939106 66.612198,62.083237 
	C67.344475,60.587555 67.895462,58.960686 68.857483,57.631256 
	C69.925690,56.155102 71.171646,54.220757 72.697708,53.808163 
	C74.699867,53.266850 77.051590,54.018467 79.252975,54.214012 
	C78.368622,56.118839 77.583633,58.078384 76.573067,59.913727 
	C75.476570,61.905155 73.781425,63.640846 73.027145,65.733131 
	C70.648018,72.332588 68.310097,73.571259 61.835369,71.488335 
	C60.146420,70.945000 58.219040,71.022980 56.400818,71.019875 
	C38.246357,70.988846 20.091825,71.000595 1.468657,71.000137 
	C1.000000,63.979053 1.000000,56.958103 1.000000,49.468578 
z"/>
<path fill="#8E8042" opacity="1.000000" stroke="none" 
	d="
M253.205688,199.005508 
	C253.773697,203.395187 254.341721,207.784882 254.954926,213.050415 
	C255.020691,216.754410 254.704041,219.646362 255.221329,222.380524 
	C255.440079,223.536667 257.408051,225.200806 258.589691,225.208023 
	C272.725494,225.294205 286.862976,225.112000 301.000000,225.000000 
	C301.000000,228.030594 301.000000,231.061188 301.000000,234.545898 
	C288.873566,234.999069 276.746490,235.058670 264.621246,234.938919 
	C262.547333,234.918442 259.678711,234.832214 258.569336,233.561218 
	C255.804214,230.393326 252.987244,230.715485 249.246155,231.712219 
	C247.845734,231.329529 246.923172,231.163757 246.000595,230.997986 
	C244.738571,231.784454 243.476547,232.570938 241.789764,233.803223 
	C239.643326,233.971893 237.544449,234.224991 236.270416,233.318619 
	C232.389832,230.557938 230.940933,232.428711 230.002167,235.996948 
	C225.758911,235.664658 221.516754,235.062073 217.272232,235.045013 
	C193.827576,234.950760 170.382355,234.999252 146.464630,234.610443 
	C145.328583,232.147018 144.665207,230.071991 144.001068,227.664169 
	C144.000412,226.887589 144.000504,226.443802 144.438950,226.000504 
	C152.899612,228.184540 159.078690,225.312195 164.409851,219.062347 
	C167.200165,219.406006 169.593323,219.712021 171.716553,220.188904 
	C167.744720,222.866272 167.733704,223.059265 171.318649,226.365707 
	C172.570251,224.523346 173.800659,222.712204 175.267242,220.929825 
	C175.503418,220.958588 175.973633,220.885666 176.157196,220.989410 
	C176.893402,221.072998 177.446045,221.052811 178.100220,221.370514 
	C179.439148,224.533356 180.932556,227.445236 184.549194,226.744705 
	C185.892700,226.484467 186.865891,224.312469 188.381836,223.025116 
	C190.835175,223.687149 192.914627,224.336349 195.240265,225.130875 
	C197.990784,224.522079 200.495102,223.767944 203.371948,223.009033 
	C204.489563,222.996872 205.234650,222.989487 206.318970,223.024307 
	C208.431427,221.899002 210.260529,227.711639 212.323776,222.888306 
	C213.761169,222.505112 214.880341,222.257294 216.052643,222.316742 
	C216.598099,223.161606 217.090424,223.699203 217.582748,224.236816 
	C218.052826,223.154404 218.522919,222.072006 218.993637,220.615997 
	C218.997559,219.495224 219.000870,218.748047 219.358063,217.921631 
	C221.134720,217.563522 222.557480,217.284653 223.942657,217.402451 
	C223.607315,220.193237 223.309540,222.587357 223.088776,225.334930 
	C224.844376,230.703949 224.844376,230.703949 228.491074,230.557373 
	C227.990555,228.690125 227.496506,226.846985 227.079529,224.739395 
	C228.107162,223.317505 229.057724,222.160065 230.275238,221.204773 
	C231.801010,222.305649 233.059830,223.204391 234.329346,224.440552 
	C240.394363,230.580063 246.532089,230.738693 251.754791,224.915207 
	C252.324829,222.671448 252.912033,220.741425 252.965668,218.796707 
	C253.147476,212.202438 253.140533,205.602982 253.205688,199.005508 
z"/>
<path fill="#A39459" opacity="1.000000" stroke="none" 
	d="
M239.068909,88.001503 
	C249.965790,88.334335 260.860779,88.778519 271.760162,88.966248 
	C281.191711,89.128685 290.628326,89.000000 300.531342,89.000000 
	C301.000000,95.354401 301.000000,101.708794 301.000000,108.531601 
	C281.287811,108.993492 261.575623,108.986992 241.249603,108.589447 
	C240.100510,102.800125 239.565231,97.401840 238.960510,91.605995 
	C238.950333,90.139458 239.009613,89.070480 239.068909,88.001503 
z"/>
<path fill="#908045" opacity="1.000000" stroke="none" 
	d="
M301.000000,224.532059 
	C286.862976,225.112000 272.725494,225.294205 258.589691,225.208023 
	C257.408051,225.200806 255.440079,223.536667 255.221329,222.380524 
	C254.704041,219.646362 255.020691,216.754410 255.000641,213.464386 
	C258.156372,206.757126 263.717804,206.759659 269.677582,206.923477 
	C279.798981,207.201660 289.933624,207.000000 300.531342,207.000000 
	C301.000000,212.688034 301.000000,218.376083 301.000000,224.532059 
z"/>
<path fill="#CAB981" opacity="1.000000" stroke="none" 
	d="
M1.000000,300.500000 
	C100.687561,299.998962 200.375122,299.997925 300.531342,299.998444 
	C299.500000,300.333313 298.000153,300.957611 296.499969,300.958374 
	C205.666672,301.004791 114.833336,301.000000 24.000000,301.000000 
	C16.333334,301.000000 8.666667,301.000000 1.000000,300.500000 
z"/>
<path fill="#93844B" opacity="1.000000" stroke="none" 
	d="
M70.285706,218.828796 
	C69.450333,218.957092 68.917961,218.915283 68.012619,218.465973 
	C68.871460,215.632278 70.103279,213.206055 71.335106,210.779846 
	C70.899559,210.293289 70.464012,209.806747 70.028465,209.320190 
	C68.393097,210.365417 66.817650,211.524246 65.106888,212.426498 
	C63.061703,213.505096 60.717144,215.376572 58.841228,215.036240 
	C56.932003,214.689865 54.664410,212.350784 53.950844,210.378723 
	C53.043381,207.870850 53.541161,204.854507 53.686684,201.903595 
	C54.188618,199.744278 54.436962,197.738754 54.830849,195.863831 
	C54.976398,195.994431 54.681198,195.732468 54.978912,195.636292 
	C55.638729,194.864624 56.000835,194.189133 56.424576,193.421295 
	C56.486206,193.328934 56.706257,193.358826 57.052307,193.448456 
	C58.292088,193.328735 59.185825,193.119400 60.403034,192.883652 
	C61.145222,192.960251 61.563934,193.063263 62.155857,193.329376 
	C62.569397,193.703323 62.834934,193.875244 63.309555,194.304291 
	C64.196823,196.036423 64.900208,197.472519 65.578323,198.857010 
	C67.531685,198.329224 69.200302,197.878357 70.848320,197.433060 
	C69.690010,192.085129 68.775742,190.931152 63.855560,188.417572 
	C67.304008,186.734497 69.687111,188.278595 72.134308,190.709412 
	C73.377998,191.944763 75.435387,192.360916 77.124931,193.147400 
	C77.311928,191.679840 77.247993,190.114395 77.769562,188.777359 
	C78.150055,187.801956 79.302132,187.127563 80.110245,186.319000 
	C80.875496,187.342880 82.499969,188.666031 82.264725,189.341415 
	C80.873520,193.335541 80.606712,195.596130 86.129097,193.929276 
	C87.242073,193.593307 89.061531,195.597977 90.761795,197.067429 
	C90.956017,197.815704 90.943703,198.020050 90.559944,198.077240 
	C83.194794,195.884567 78.304825,197.470337 75.843292,203.503403 
	C74.726692,206.240128 75.289139,209.661880 75.119110,213.109650 
	C75.768463,214.297623 76.388618,215.148849 77.151718,216.217560 
	C77.528236,216.691711 77.761818,216.948380 77.997581,217.577454 
	C78.007431,218.938629 78.015099,219.927414 78.022766,220.916183 
	C75.544746,220.163681 73.066727,219.411179 70.285706,218.828796 
z"/>
<path fill="#F9F7E8" opacity="1.000000" stroke="none" 
	d="
M99.854599,198.005234 
	C99.854607,198.005234 99.996536,197.560684 100.434906,197.291260 
	C106.124138,197.451538 111.375000,197.881241 116.625854,198.310944 
	C116.616364,198.739517 116.606873,199.168091 116.597382,199.596664 
	C117.650047,198.836456 118.702705,198.076263 119.755371,197.316055 
	C119.755371,197.316055 119.883545,197.387329 120.350868,197.299316 
	C122.216827,197.096481 123.615456,196.981644 125.014091,196.866806 
	C125.281319,197.068863 125.580833,197.193024 126.416359,197.487061 
	C128.292374,200.536026 130.443512,203.227783 130.856033,206.163788 
	C131.488510,210.665405 130.924118,215.335190 130.867706,219.933594 
	C129.579361,219.938766 128.291000,219.943939 126.602509,219.449387 
	C126.181656,215.118988 126.138016,211.288254 126.147583,207.457642 
	C126.155067,204.459244 126.005020,201.370010 121.978600,201.504990 
	C118.543983,201.620148 117.842232,204.293518 117.874321,207.214478 
	C117.918182,211.207642 117.960373,215.200851 117.727264,219.419220 
	C116.008987,219.746719 114.566742,219.849045 113.124496,219.951355 
	C113.066444,219.514725 113.008392,219.078079 112.951614,217.857391 
	C112.945831,213.320084 113.128998,209.554291 112.882462,205.816818 
	C112.589149,201.370255 110.027565,200.406677 105.674454,203.179245 
	C105.275742,204.558395 105.195404,205.757507 105.027786,207.291199 
	C104.977432,208.081512 105.014359,208.537216 104.983475,209.445160 
	C104.884796,213.228775 104.853928,216.560135 104.823067,219.891495 
	C104.823067,219.891495 104.900826,219.906876 104.461594,219.913040 
	C102.781509,219.843109 101.540665,219.766998 99.969246,219.670639 
	C99.969246,215.832047 99.984138,212.375031 99.965157,208.918198 
	C99.945183,205.280457 99.892815,201.642883 99.854599,198.005234 
z"/>
<path fill="#8F824F" opacity="1.000000" stroke="none" 
	d="
M99.527924,197.970505 
	C99.892815,201.642883 99.945183,205.280457 99.965157,208.918198 
	C99.984138,212.375031 99.969246,215.832047 99.969246,219.670639 
	C101.540665,219.766998 102.781509,219.843109 104.450798,219.874908 
	C104.054428,221.445587 103.331741,224.342987 102.384323,224.418427 
	C100.157356,224.595795 97.747208,223.613159 95.559364,222.732025 
	C94.150063,222.164413 93.003372,220.944748 91.369240,219.761810 
	C90.999489,219.506302 91.001442,219.036438 91.302948,218.837601 
	C96.621246,213.436325 96.288094,203.331467 90.931389,198.224396 
	C90.943703,198.020050 90.956017,197.815704 90.987671,197.304901 
	C93.738434,197.310867 96.469841,197.623322 99.527924,197.970505 
z"/>
<path fill="#90814C" opacity="1.000000" stroke="none" 
	d="
M131.147644,220.083649 
	C130.924118,215.335190 131.488510,210.665405 130.856033,206.163788 
	C130.443512,203.227783 128.292374,200.536026 126.661224,197.473495 
	C130.909821,200.015198 133.442184,194.019577 137.743225,195.225052 
	C137.998505,196.417236 137.989502,197.110046 137.697098,197.959778 
	C137.283325,198.724716 137.152939,199.332733 137.017700,200.219238 
	C137.016006,200.683350 137.019180,200.868988 136.992096,201.365784 
	C136.984436,202.092743 137.007050,202.508560 137.024216,203.210632 
	C137.021622,203.687729 137.024460,203.878586 136.999054,204.375885 
	C136.992462,205.091705 137.014114,205.501038 137.031219,206.204834 
	C137.029755,206.695602 137.032806,206.891922 136.993408,207.318207 
	C136.950943,207.548203 136.829041,207.999786 136.687241,208.295929 
	C136.645432,210.058472 136.745422,211.524872 136.906082,213.454956 
	C137.008011,218.915451 137.049271,223.912247 137.032990,228.969101 
	C136.975433,229.029175 136.861908,229.150772 136.861908,229.150772 
	C135.050476,226.178406 133.239044,223.206055 131.147644,220.083649 
z"/>
<path fill="#918450" opacity="1.000000" stroke="none" 
	d="
M118.003281,219.194031 
	C117.960373,215.200851 117.918182,211.207642 117.874321,207.214478 
	C117.842232,204.293518 118.543983,201.620148 121.978600,201.504990 
	C126.005020,201.370010 126.155067,204.459244 126.147583,207.457642 
	C126.138016,211.288254 126.181656,215.118988 126.218292,219.407898 
	C124.350723,220.201752 122.467232,220.537384 119.944977,220.623474 
	C118.871910,219.980606 118.437592,219.587326 118.003281,219.194031 
z"/>
<path fill="#918451" opacity="1.000000" stroke="none" 
	d="
M91.001442,219.036438 
	C91.001442,219.036438 90.999489,219.506302 90.998520,219.740936 
	C89.048180,224.093384 85.091774,224.505737 81.350250,224.699295 
	C80.351494,224.750961 79.239769,222.619034 78.101334,221.202896 
	C78.015099,219.927414 78.007431,218.938629 78.330833,217.690277 
	C82.428673,220.627991 86.640396,220.405975 91.001442,219.036438 
z"/>
<path fill="#928453" opacity="1.000000" stroke="none" 
	d="
M105.051277,208.992920 
	C105.014359,208.537216 104.977432,208.081512 105.208107,207.072433 
	C105.648079,205.345764 105.820457,204.172485 105.992828,202.999191 
	C110.027565,200.406677 112.589149,201.370255 112.882462,205.816818 
	C113.128998,209.554291 112.945831,213.320084 112.885612,217.533188 
	C111.890091,215.440781 111.091164,212.829834 109.972008,210.364243 
	C109.503181,209.331390 108.355370,208.606750 106.999802,207.995911 
	C106.005989,208.497528 105.528633,208.745224 105.051277,208.992920 
z"/>
<path fill="#908045" opacity="1.000000" stroke="none" 
	d="
M230.384171,236.084747 
	C230.940933,232.428711 232.389832,230.557938 236.270416,233.318619 
	C237.544449,234.224991 239.643326,233.971893 241.681580,234.124512 
	C242.772491,234.644730 243.546814,235.289459 244.321136,235.934204 
	C243.475281,236.571259 242.576019,237.811783 241.792648,237.742477 
	C238.099777,237.415771 234.438629,236.730148 230.384171,236.084747 
z"/>
<path fill="#908045" opacity="1.000000" stroke="none" 
	d="
M144.001831,227.996948 
	C144.665207,230.071991 145.328583,232.147018 145.995972,234.610107 
	C142.733994,236.291153 141.935928,233.995132 141.080719,231.026733 
	C141.002869,229.966461 141.002853,229.548447 141.203522,228.965958 
	C141.621643,228.534256 141.839111,228.267059 142.380768,228.000946 
	C143.137253,228.000336 143.569534,227.998642 144.001831,227.996948 
z"/>
<path fill="#928453" opacity="1.000000" stroke="none" 
	d="
M117.727257,219.419220 
	C118.437592,219.587326 118.871910,219.980606 119.627220,220.671875 
	C117.645500,221.607895 115.342781,222.245926 113.040062,222.883972 
	C112.916443,222.023727 112.792816,221.163483 112.896851,220.127289 
	C114.566742,219.849045 116.008987,219.746719 117.727257,219.419220 
z"/>
<path fill="#8F824F" opacity="1.000000" stroke="none" 
	d="
M104.983475,209.445160 
	C105.528633,208.745224 106.005989,208.497528 106.721916,208.128128 
	C106.473137,211.850739 105.985794,215.695053 105.160759,219.715424 
	C104.853928,216.560135 104.884796,213.228775 104.983475,209.445160 
z"/>
<path fill="#90814C" opacity="1.000000" stroke="none" 
	d="
M141.002838,229.130447 
	C141.002853,229.548447 141.002869,229.966461 141.000519,230.698212 
	C139.753403,230.571136 138.508621,230.130310 137.062881,229.420135 
	C136.861908,229.150772 136.975433,229.029175 137.424011,229.000549 
	C138.916000,229.024750 139.959412,229.077591 141.002838,229.130447 
z"/>
<path fill="#908045" opacity="1.000000" stroke="none" 
	d="
M246.291595,231.124985 
	C246.923172,231.163757 247.845734,231.329529 248.885986,231.747925 
	C248.196640,231.751022 247.389603,231.501495 246.291595,231.124985 
z"/>
<path fill="#90844F" opacity="1.000000" stroke="none" 
	d="
M205.979736,222.982101 
	C205.234650,222.989487 204.489563,222.996872 203.089417,222.853088 
	C201.678421,221.738113 200.922485,220.774307 200.592529,219.865692 
	C202.261581,219.845688 203.504654,219.770508 205.004593,219.679779 
	C205.004593,212.958954 205.016220,206.643021 204.992340,200.327240 
	C204.988663,199.356842 204.821487,198.387070 204.735382,197.474777 
	C201.175110,196.182480 200.036942,197.481934 200.113724,200.839828 
	C200.258438,207.169174 200.178787,213.503662 199.846985,219.919250 
	C197.999069,221.663513 196.496567,223.324524 194.994080,224.985535 
	C192.914627,224.336349 190.835175,223.687149 188.248047,222.743668 
	C186.722153,220.728256 182.887894,219.682434 186.648682,217.117752 
	C189.406143,218.476746 191.918289,219.592087 194.430435,220.707428 
	C194.821869,220.236099 195.213303,219.764786 195.604736,219.293457 
	C195.104889,218.147949 194.780136,216.147888 194.075195,216.003494 
	C190.864990,215.345779 190.834045,213.140137 190.848389,210.718842 
	C190.865982,207.752350 190.852585,204.785675 190.852585,202.637100 
	C192.827118,201.149200 194.103821,200.187149 195.380539,199.225113 
	C194.233551,198.438049 193.010254,197.738022 191.971558,196.827454 
	C191.446655,196.367325 191.370789,195.425201 190.890335,194.877975 
	C189.834900,193.675827 188.651199,192.586273 187.923737,191.856125 
	C185.756897,194.674637 183.528076,196.319412 183.339935,198.171478 
	C183.152008,200.021637 185.038879,202.064713 185.939590,204.057846 
	C186.128159,204.475189 185.993896,205.043808 185.988602,205.542511 
	C185.955032,208.700363 185.915878,211.858170 185.632477,214.784332 
	C184.393112,212.713120 183.399857,210.873581 182.406586,209.034027 
	C181.993195,209.147583 181.579788,209.261139 181.166397,209.374695 
	C181.166397,212.064392 180.955841,214.775436 181.225952,217.437729 
	C181.493011,220.069916 180.449203,221.067322 177.998672,221.032623 
	C177.446045,221.052811 176.893402,221.072998 176.383453,220.669495 
	C178.655411,220.123764 180.042709,219.502975 179.924210,216.712082 
	C179.691605,211.233444 179.759079,205.736526 179.872543,200.250687 
	C179.947388,196.631531 178.026062,196.656555 174.944992,197.464111 
	C174.944992,201.936966 175.384995,206.461533 174.732224,210.822540 
	C174.464539,212.610825 172.061340,214.995346 170.233673,215.425217 
	C167.299896,216.115219 165.879150,213.727600 165.867874,210.783401 
	C165.855133,207.457169 166.025131,204.116623 165.756516,200.811508 
	C165.645096,199.440506 164.602539,198.145157 163.825439,196.666565 
	C163.448425,196.327667 163.220383,196.149094 162.983337,195.982010 
	C165.160965,193.668304 167.549240,193.417969 170.666931,194.258286 
	C174.224411,195.217148 178.033127,195.243927 180.581619,195.541412 
	C183.847580,192.828766 186.454453,190.223831 189.545670,188.474960 
	C190.148514,188.133881 192.632858,191.118408 195.122406,193.352448 
	C196.323227,191.930496 197.858353,190.112717 199.728195,188.176025 
	C200.062927,188.057114 200.160721,188.160019 200.117706,188.580078 
	C200.074677,190.572556 200.074677,192.144958 200.074677,193.912552 
	C202.048370,193.912552 203.498093,193.912552 205.150879,194.015869 
	C205.901672,193.746918 206.449402,193.374664 206.998718,193.001068 
	C207.000305,192.999710 207.006714,192.993393 207.006714,192.993393 
	C207.595001,193.479843 208.183304,193.966293 209.117310,194.892303 
	C209.978439,195.555008 210.493851,195.778152 211.024048,196.280090 
	C211.048920,196.744736 211.059006,196.930588 211.045929,197.577316 
	C211.022781,205.284271 211.022781,212.530334 211.022781,219.532852 
	C214.743988,220.622940 215.962387,219.473694 215.857910,216.312744 
	C215.737381,212.666901 215.434128,208.905914 216.189285,205.406174 
	C216.538834,203.786224 219.100754,201.846786 220.866135,201.613297 
	C222.015854,201.461227 224.147476,203.907135 224.731705,205.576721 
	C225.400848,207.489044 224.844009,209.830353 224.661011,211.684021 
	C223.518036,208.905197 222.512787,206.461182 219.004166,207.742172 
	C219.004166,211.301102 219.004166,214.650986 219.004166,218.000854 
	C219.000870,218.748047 218.997559,219.495224 218.684937,220.687286 
	C217.583588,221.424591 216.791534,221.717041 215.999496,222.009491 
	C214.880341,222.257294 213.761169,222.505112 212.055725,222.652847 
	C210.961685,218.576630 210.559891,214.582138 209.877274,210.636246 
	C209.689224,209.549210 208.663147,208.607162 208.021606,207.598587 
	C207.498749,208.614532 206.601227,209.601242 206.519241,210.651611 
	C206.199280,214.750839 206.137497,218.870209 205.979736,222.982101 
z"/>
<path fill="#FAF8EE" opacity="1.000000" stroke="none" 
	d="
M141.203522,228.965958 
	C139.959412,229.077591 138.916000,229.024750 137.481552,228.940460 
	C137.049271,223.912247 137.008011,218.915451 136.973434,213.042633 
	C136.929764,210.777649 136.879410,209.388718 136.829041,207.999786 
	C136.829041,207.999786 136.950943,207.548203 137.224503,207.223236 
	C137.596527,206.764343 137.793274,206.525726 137.778809,206.512131 
	C137.547043,206.294586 137.288330,206.105759 137.035751,205.910385 
	C137.014114,205.501038 136.992462,205.091705 137.230652,204.287628 
	C137.589539,203.761032 137.784607,203.523010 137.773453,203.512909 
	C137.539520,203.301270 137.282303,203.115341 137.029648,202.924377 
	C137.007050,202.508560 136.984436,202.092743 137.221848,201.281555 
	C137.580307,200.756500 137.678757,200.626801 137.777206,200.497116 
	C137.525650,200.311676 137.274109,200.126221 137.022552,199.940765 
	C137.152939,199.332733 137.283325,198.724716 138.089752,198.023743 
	C144.868530,198.506577 151.994461,195.915237 155.848999,203.449860 
	C155.848999,203.449860 155.795074,203.742203 155.852722,204.302139 
	C155.989838,206.912674 156.069321,208.963272 156.058029,211.352661 
	C155.615402,213.045822 155.263535,214.400177 154.665955,215.942947 
	C153.681458,217.096588 152.942688,218.061798 152.030380,219.248108 
	C151.564301,219.699936 151.271759,219.930695 150.555695,220.066010 
	C147.542679,219.840347 144.953186,219.710129 142.056564,219.564468 
	C142.056564,222.433853 142.056564,225.216843 142.056564,227.999847 
	C141.839111,228.267059 141.621643,228.534256 141.203522,228.965958 
M151.185883,209.455780 
	C150.150223,207.006561 149.782959,203.439011 147.941330,202.338287 
	C143.968475,199.963791 140.918121,203.399246 142.039078,209.502029 
	C142.455399,211.768600 144.618149,214.918610 146.562408,215.418655 
	C149.492661,216.172256 151.027252,213.322891 151.185883,209.455780 
z"/>
<path fill="#F8F6E8" opacity="1.000000" stroke="none" 
	d="
M163.983414,196.815414 
	C164.602539,198.145157 165.645096,199.440506 165.756516,200.811508 
	C166.025131,204.116623 165.855133,207.457169 165.867874,210.783401 
	C165.879150,213.727600 167.299896,216.115219 170.233673,215.425217 
	C172.061340,214.995346 174.464539,212.610825 174.732224,210.822540 
	C175.384995,206.461533 174.944992,201.936966 174.944992,197.464111 
	C178.026062,196.656555 179.947388,196.631531 179.872543,200.250687 
	C179.759079,205.736526 179.691605,211.233444 179.924210,216.712082 
	C180.042709,219.502975 178.655411,220.123764 176.199875,220.565735 
	C175.973633,220.885666 175.503418,220.958588 175.090881,220.630676 
	C173.781067,220.207870 172.883759,220.112946 171.986465,220.018036 
	C169.593323,219.712021 167.200165,219.406006 164.237747,218.759644 
	C162.720367,216.276276 161.772263,214.133286 160.891098,211.530365 
	C160.915985,206.704742 160.873962,202.339050 160.831940,197.973358 
	C160.831924,197.973358 160.977219,197.562515 161.378662,197.298019 
	C162.514557,196.960815 163.248978,196.888107 163.983414,196.815414 
z"/>
<path fill="#F6F4DF" opacity="1.000000" stroke="none" 
	d="
M61.982651,193.166275 
	C61.563934,193.063263 61.145222,192.960251 60.175652,192.773438 
	C58.651951,192.912689 57.679104,193.135757 56.706257,193.358826 
	C56.706257,193.358826 56.486206,193.328934 56.189690,193.587479 
	C55.489185,194.474838 55.085197,195.103653 54.681202,195.732468 
	C54.681198,195.732468 54.976398,195.994431 54.611427,196.054153 
	C53.978912,196.626389 53.711369,197.138901 53.364120,197.258438 
	C52.259575,195.582214 51.234730,194.298950 50.313751,192.695862 
	C53.311455,188.389618 57.546371,187.852615 61.998260,187.873688 
	C62.403210,188.024948 62.808163,188.176208 63.534340,188.372513 
	C68.775742,190.931152 69.690010,192.085129 70.848320,197.433060 
	C69.200302,197.878357 67.531685,198.329224 65.578323,198.857010 
	C64.900208,197.472519 64.196823,196.036423 63.252174,194.032837 
	C62.668156,193.365662 62.325405,193.265961 61.982651,193.166275 
z"/>
<path fill="#92875B" opacity="1.000000" stroke="none" 
	d="
M155.866577,203.038330 
	C151.994461,195.915237 144.868530,198.506577 138.373138,197.866821 
	C137.989502,197.110046 137.998505,196.417236 138.015350,195.378998 
	C141.178833,195.028961 144.335083,194.982437 147.489975,195.028961 
	C153.111420,195.111847 154.851807,196.712891 155.866577,203.038330 
z"/>
<path fill="#918554" opacity="1.000000" stroke="none" 
	d="
M47.904819,208.998413 
	C44.110645,207.456940 42.888649,204.185257 44.406719,198.957764 
	C44.852268,197.423508 45.863941,196.053635 46.810501,194.304199 
	C47.411457,193.970444 47.818054,193.940887 48.589287,193.936478 
	C48.953922,193.961624 49.070080,194.062561 49.029045,194.473953 
	C48.626945,199.589706 48.265881,204.294052 47.904819,208.998413 
z"/>
<path fill="#8F824F" opacity="1.000000" stroke="none" 
	d="
M119.380501,197.178940 
	C118.702705,198.076263 117.650047,198.836456 116.597382,199.596664 
	C116.606873,199.168091 116.616364,198.739517 116.625854,198.310944 
	C111.375000,197.881241 106.124138,197.451538 100.466576,197.060089 
	C99.932388,196.154236 99.804916,195.210129 99.817665,195.304581 
	C104.204391,194.874329 108.308182,194.066422 112.371887,194.233475 
	C114.617821,194.325806 116.796585,196.052094 119.380501,197.178940 
z"/>
<path fill="#92875B" opacity="1.000000" stroke="none" 
	d="
M160.566727,198.153137 
	C160.873962,202.339050 160.915985,206.704742 160.576996,211.390686 
	C158.846924,211.478577 157.497849,211.246231 156.148788,211.013885 
	C156.069321,208.963272 155.989838,206.912674 155.940552,204.422043 
	C156.884491,204.747101 157.798218,205.512192 159.239838,206.719299 
	C159.657440,203.420547 159.979477,200.876740 160.566727,198.153137 
z"/>
<path fill="#918554" opacity="1.000000" stroke="none" 
	d="
M61.790443,187.578079 
	C57.546371,187.852615 53.311455,188.389618 50.181290,192.853271 
	C49.944958,193.330490 49.879112,193.736588 49.675716,193.815247 
	C49.472321,193.893921 49.070080,194.062561 49.070080,194.062561 
	C49.070080,194.062561 48.953922,193.961624 48.894073,193.911530 
	C50.128365,186.669830 54.797363,184.260330 61.790443,187.578079 
z"/>
<path fill="#90844F" opacity="1.000000" stroke="none" 
	d="
M206.970367,189.659729 
	C207.006424,190.749802 207.006149,191.497757 207.006287,192.619568 
	C207.006714,192.993393 207.000305,192.999710 206.711838,192.998657 
	C206.040802,192.995056 205.658234,192.992538 205.260590,192.573456 
	C205.929794,187.797791 203.099747,187.909576 200.160721,188.160019 
	C200.160721,188.160019 200.062927,188.057114 200.014832,188.004700 
	C200.231262,187.163727 200.495773,186.375168 201.285934,185.297485 
	C202.872849,185.006790 203.934113,185.005219 204.995377,185.003662 
	C205.641602,186.441650 206.287827,187.879639 206.970367,189.659729 
z"/>
<path fill="#948449" opacity="1.000000" stroke="none" 
	d="
M205.096237,184.715637 
	C203.934113,185.005219 202.872849,185.006790 201.414093,185.011932 
	C201.730057,183.827179 202.443527,182.638870 203.157013,181.450562 
	C203.837051,182.442917 204.517075,183.435257 205.096237,184.715637 
z"/>
<path fill="#8F824F" opacity="1.000000" stroke="none" 
	d="
M124.883965,196.655762 
	C123.615456,196.981644 122.216827,197.096481 120.397415,197.242661 
	C121.569038,196.997574 123.161438,196.721161 124.883965,196.655762 
z"/>
<path fill="#92875B" opacity="1.000000" stroke="none" 
	d="
M163.825439,196.666565 
	C163.248978,196.888107 162.514557,196.960815 161.413467,197.082916 
	C161.513550,196.813461 161.980301,196.494583 162.715179,196.078857 
	C163.220383,196.149094 163.448425,196.327667 163.825439,196.666565 
z"/>
<path fill="#FDFDF9" opacity="1.000000" stroke="none" 
	d="
M238.989838,87.630112 
	C239.009613,89.070480 238.950333,90.139458 238.869766,92.066040 
	C238.909271,98.616043 238.970062,104.308456 239.030853,110.000862 
	C239.030853,110.000862 238.981522,110.033485 238.896393,110.178886 
	C238.699646,110.532318 238.676544,110.749756 238.741943,110.976593 
	C234.141357,111.019264 229.540756,111.061928 224.459900,110.609772 
	C223.603012,106.883850 225.625702,101.867416 218.934601,103.334976 
	C215.940811,103.293388 212.947037,103.251793 209.079285,103.181580 
	C205.609192,103.912437 200.655197,100.533836 201.345764,107.061516 
	C201.303452,117.047554 201.261154,127.033600 201.206131,137.881424 
	C201.796646,143.079025 205.010513,140.348541 207.014206,140.893677 
	C207.458679,140.934387 207.903137,140.975082 209.008514,141.176865 
	C210.042343,143.584824 210.415298,145.831696 210.705902,148.457001 
	C210.676376,149.860840 210.729172,150.886292 210.652618,152.289886 
	C210.362183,154.305542 210.201096,155.943039 209.973618,158.255707 
	C196.168686,158.255707 182.545715,158.255707 168.922745,158.255707 
	C168.922745,158.255707 168.669327,158.046692 168.529938,157.838287 
	C168.360107,157.378647 168.240799,157.181030 168.032608,157.037048 
	C168.054367,156.860245 168.076126,156.683456 168.152161,155.791595 
	C168.132355,151.053894 168.058258,147.031235 167.984177,143.008591 
	C168.008072,142.827225 168.031967,142.645859 168.181885,142.065399 
	C168.477493,141.466400 168.611389,141.244873 168.709534,141.001755 
	C168.925507,141.001236 169.141495,141.000702 170.116470,141.016846 
	C172.998901,141.033524 175.122360,141.033524 177.861328,141.033524 
	C177.861328,129.417557 177.961578,118.305351 177.732635,107.199936 
	C177.704483,105.834030 175.917633,104.504387 174.945770,103.157944 
	C174.009598,104.555649 172.312286,105.927132 172.263077,107.355400 
	C171.982086,115.509071 172.192917,123.678886 171.978409,131.836411 
	C171.940598,133.274368 170.681946,134.680191 169.987091,136.100845 
	C166.410095,136.385971 162.813416,137.025101 159.263260,136.827667 
	C157.019028,136.702866 154.844238,135.329468 152.795471,133.970154 
	C130.544861,141.658035 108.122086,145.426849 85.436989,133.038422 
	C79.807556,127.826942 74.520203,122.689911 68.929001,116.986847 
	C67.819405,115.152878 67.013664,113.884949 66.207916,112.617020 
	C65.995087,111.801270 65.782265,110.985519 65.347260,109.940399 
	C64.745293,108.042992 64.365509,106.374947 63.900963,103.948502 
	C63.786667,98.790665 63.757130,94.391228 63.727592,89.991783 
	C63.828693,89.553429 63.929794,89.115067 64.012543,88.338455 
	C74.074196,54.698559 113.104599,38.819023 147.962051,55.163185 
	C149.136856,55.714035 150.369049,56.142490 151.858765,56.742496 
	C152.252258,54.171932 152.594971,51.933136 152.978149,49.429985 
	C158.582077,49.429985 163.975113,49.429985 169.948273,49.429985 
	C169.948273,59.161476 169.948273,68.604233 169.950317,78.514465 
	C165.032028,79.037758 160.049103,79.582558 155.215164,78.963715 
	C152.372253,78.599770 149.766006,76.387253 146.481247,74.655640 
	C134.120117,67.641563 121.952362,65.094627 108.686470,70.948486 
	C107.067940,71.722992 105.778152,72.460114 104.488373,73.197235 
	C104.488373,73.197235 104.307098,73.128960 103.950516,73.318359 
	C101.350639,75.631462 99.107353,77.755165 96.864059,79.878876 
	C96.864067,79.878883 96.917351,79.962891 96.697037,80.009720 
	C96.299774,80.362411 96.122826,80.668274 95.945877,80.974129 
	C95.945869,80.974129 95.985962,80.968964 95.663361,81.129669 
	C89.010529,90.479279 88.119438,99.880585 93.715324,109.846901 
	C97.312180,116.252945 103.751831,118.697823 109.740204,121.072647 
	C121.717926,125.822685 133.898178,125.561615 145.190018,118.541512 
	C150.623260,115.163673 154.353043,110.316772 155.865433,103.098045 
	C152.621368,103.295647 150.257538,103.439636 147.837708,103.587036 
	C147.571487,106.276848 147.362518,108.388206 147.128342,110.754257 
	C142.349960,110.754257 137.820587,110.754257 132.577026,110.754257 
	C132.577026,103.913017 132.577026,97.458199 132.577026,91.003372 
	C132.666809,88.949554 132.756592,86.895729 133.343628,84.363602 
	C155.324448,83.872627 176.808090,83.889641 198.291534,83.835640 
	C210.273422,83.805519 222.255005,83.657326 234.236725,83.562347 
	C235.440552,83.592148 236.644379,83.621956 238.222458,83.538025 
	C238.596710,83.424286 238.595596,83.482132 238.595596,83.482132 
	C238.700653,84.740997 238.805725,85.999863 238.989838,87.630112 
z"/>
<path fill="#A8995F" opacity="1.000000" stroke="none" 
	d="
M88.999931,50.002838 
	C88.421471,51.569443 87.843079,53.133240 87.264687,54.697037 
	C85.119270,53.411255 82.973846,52.125473 80.828430,50.839691 
	C81.941177,49.990376 82.991646,48.575691 84.183472,48.444420 
	C85.478424,48.301792 86.904816,49.352531 88.634079,49.941689 
	C88.994270,50.000450 89.000000,50.000031 88.999931,50.002838 
z"/>
<path fill="#A49459" opacity="1.000000" stroke="none" 
	d="
M64.383682,81.621155 
	C63.438118,82.213486 62.575401,82.516777 61.712685,82.820068 
	C61.925350,81.842278 62.138012,80.864494 62.350677,79.886711 
	C63.055962,80.368507 63.761250,80.850304 64.383682,81.621155 
z"/>
<path fill="#A8995F" opacity="1.000000" stroke="none" 
	d="
M96.431610,48.520348 
	C96.389664,49.135544 96.137123,49.694176 95.884583,50.252808 
	C95.550819,50.024021 95.217049,49.795235 94.883278,49.566444 
	C95.329193,49.198891 95.775108,48.831341 96.431610,48.520348 
z"/>
<path fill="#A3996E" opacity="1.000000" stroke="none" 
	d="
M169.156052,158.548889 
	C182.545715,158.255707 196.168686,158.255707 209.973618,158.255707 
	C210.201096,155.943039 210.362183,154.305542 210.907593,152.436966 
	C212.536743,152.481766 213.781525,152.757660 215.026321,153.033539 
	C215.214844,153.041351 215.403381,153.049164 215.784317,153.332611 
	C215.678177,154.079651 215.379639,154.551071 215.081116,155.022507 
	C214.437653,155.175430 213.413544,155.125641 213.207916,155.511734 
	C210.201553,161.156631 204.916077,159.879745 200.087402,159.914642 
	C191.766388,159.974747 183.444092,160.046417 175.124313,159.946976 
	C173.208527,159.924088 171.300797,159.228241 169.156052,158.548889 
z"/>
<path fill="#DCD1AC" opacity="1.000000" stroke="none" 
	d="
M215.127075,155.391418 
	C215.379639,154.551071 215.678177,154.079651 216.067200,153.341858 
	C216.626633,152.803299 217.095581,152.531082 217.784149,152.098236 
	C218.979401,153.764297 219.955048,155.591034 220.930679,157.417755 
	C219.560425,157.888840 218.190155,158.359924 216.314423,158.731476 
	C215.808929,158.631958 215.619431,158.704269 215.619446,158.704269 
	C215.470642,157.722961 215.321838,156.741653 215.127075,155.391418 
z"/>
<path fill="#A3996E" opacity="1.000000" stroke="none" 
	d="
M167.684433,143.206543 
	C168.058258,147.031235 168.132355,151.053894 168.106384,155.528351 
	C167.528915,155.726395 167.051498,155.472626 166.336609,155.093567 
	C166.142410,152.758011 166.052673,150.534424 166.272278,148.341812 
	C166.439178,146.675613 166.999451,145.048813 167.684433,143.206543 
z"/>
<path fill="#9F8F55" opacity="1.000000" stroke="none" 
	d="
M215.311264,158.779053 
	C215.619431,158.704269 215.808929,158.631958 215.902924,158.669144 
	C215.351562,159.412811 214.706192,160.119293 214.060837,160.825775 
	C213.819672,160.587769 213.578522,160.349747 213.337357,160.111725 
	C213.892609,159.692444 214.447845,159.273148 215.311264,158.779053 
z"/>
<path fill="#A3996E" opacity="1.000000" stroke="none" 
	d="
M168.029114,157.209747 
	C168.240799,157.181030 168.360107,157.378647 168.369095,157.805023 
	C168.172440,157.817505 168.065079,157.618271 168.029114,157.209747 
z"/>
<path fill="#AA9F74" opacity="1.000000" stroke="none" 
	d="
M219.059814,103.657837 
	C225.625702,101.867416 223.603012,106.883850 223.992813,110.549828 
	C222.399002,108.650040 220.792007,106.315369 219.059814,103.657837 
z"/>
<path fill="#998D4D" opacity="1.000000" stroke="none" 
	d="
M215.019989,152.602936 
	C213.781525,152.757660 212.536743,152.481766 211.036957,152.058807 
	C210.729172,150.886292 210.676376,149.860840 210.917450,148.221527 
	C211.770889,146.712723 212.330460,145.817810 212.890015,144.922897 
	C213.597900,147.339371 214.305786,149.755844 215.019989,152.602936 
z"/>
<path fill="#A3996E" opacity="1.000000" stroke="none" 
	d="
M212.888092,144.558914 
	C212.330460,145.817810 211.770889,146.712723 210.999786,147.843109 
	C210.415298,145.831696 210.042343,143.584824 209.340607,141.126038 
	C211.921021,139.258850 212.094681,139.405899 212.888092,144.558914 
z"/>
<path fill="#AA9F74" opacity="1.000000" stroke="none" 
	d="
M201.662659,106.940399 
	C200.655197,100.533836 205.609192,103.912437 208.634964,103.246864 
	C206.702911,104.500275 204.341217,105.659782 201.662659,106.940399 
z"/>
<path fill="#AA9F74" opacity="1.000000" stroke="none" 
	d="
M239.264954,109.867889 
	C238.970062,104.308456 238.909271,98.616043 238.939209,92.463593 
	C239.565231,97.401840 240.100510,102.800125 240.775696,108.583618 
	C240.443405,109.224182 239.971237,109.479546 239.264954,109.867889 
z"/>
<path fill="#A3996E" opacity="1.000000" stroke="none" 
	d="
M206.850525,140.615021 
	C205.010513,140.348541 201.796646,143.079025 201.276947,138.341324 
	C203.135956,138.738403 204.911407,139.537384 206.850525,140.615021 
z"/>
<path fill="#AA9F74" opacity="1.000000" stroke="none" 
	d="
M238.844391,110.846588 
	C238.676544,110.749756 238.699646,110.532318 238.919983,110.196716 
	C239.081665,110.295120 239.054382,110.510941 238.844391,110.846588 
z"/>
<path fill="#AA9F74" opacity="1.000000" stroke="none" 
	d="
M222.503052,112.496819 
	C222.508301,112.513084 222.497787,112.480553 222.503052,112.496819 
z"/>
<path fill="#A3996E" opacity="1.000000" stroke="none" 
	d="
M170.288910,136.246124 
	C170.681946,134.680191 171.940598,133.274368 171.978409,131.836411 
	C172.192917,123.678886 171.982086,115.509071 172.263077,107.355400 
	C172.312286,105.927132 174.009598,104.555649 174.945770,103.157944 
	C175.917633,104.504387 177.704483,105.834030 177.732635,107.199936 
	C177.961578,118.305351 177.861328,129.417557 177.861328,141.033524 
	C175.122360,141.033524 172.998901,141.033524 170.435410,140.959839 
	C172.167404,140.125839 174.339417,139.365509 176.511444,138.605179 
	C176.465179,138.181564 176.418930,137.757965 176.372681,137.334351 
	C174.445358,137.020035 172.518021,136.705704 170.288910,136.246124 
z"/>
<path fill="#A3996E" opacity="1.000000" stroke="none" 
	d="
M168.545288,141.112976 
	C168.611389,141.244873 168.477493,141.466400 168.158691,141.791962 
	C168.057632,141.645828 168.181488,141.414688 168.545288,141.112976 
z"/>
<path fill="#A1925A" opacity="1.000000" stroke="none" 
	d="
M132.282135,91.145447 
	C132.577026,97.458199 132.577026,103.913017 132.577026,110.754257 
	C137.820587,110.754257 142.349960,110.754257 147.128342,110.754257 
	C147.362518,108.388206 147.571487,106.276848 147.837708,103.587036 
	C150.257538,103.439636 152.621368,103.295647 155.865433,103.098045 
	C154.353043,110.316772 150.623260,115.163673 145.190018,118.541512 
	C133.898178,125.561615 121.717926,125.822685 109.740204,121.072647 
	C103.751831,118.697823 97.312180,116.252945 93.715324,109.846901 
	C88.119438,99.880585 89.010529,90.479279 95.639839,81.125397 
	C95.261574,86.369576 94.713829,91.799622 93.846436,97.178131 
	C93.472168,99.498886 93.223549,101.286400 96.325905,101.145042 
	C104.106842,100.790512 111.886833,100.071381 119.664482,100.106293 
	C125.092674,100.130661 129.264282,99.281921 130.393234,93.096504 
	C130.516876,92.419098 131.436691,91.887009 132.282135,91.145447 
z"/>
<path fill="#A89960" opacity="1.000000" stroke="none" 
	d="
M109.015221,70.911110 
	C121.952362,65.094627 134.120117,67.641563 146.148560,74.573105 
	C140.307816,78.902428 133.895538,75.058693 127.658554,75.603043 
	C122.800400,76.027046 117.906487,76.357063 113.042465,76.222580 
	C111.395851,76.177055 109.792084,74.581734 108.246078,73.111053 
	C108.554016,71.988678 108.784622,71.449898 109.015221,70.911110 
z"/>
<path fill="#A89960" opacity="1.000000" stroke="none" 
	d="
M233.887817,83.289352 
	C222.255005,83.657326 210.273422,83.805519 198.291534,83.835640 
	C176.808090,83.889641 155.324448,83.872627 133.366409,83.921997 
	C131.791367,83.172401 130.690796,82.386101 128.792862,81.030106 
	C135.509323,81.030106 140.997543,81.030106 146.485764,81.030106 
	C146.457428,80.841438 146.429092,80.652779 146.400757,80.464111 
	C149.231110,80.974236 152.059341,81.912987 154.892166,81.927063 
	C178.841919,82.046059 202.792587,81.968948 226.742722,82.041534 
	C229.009079,82.048409 231.273575,82.676620 233.887817,83.289352 
z"/>
<path fill="#A1925A" opacity="1.000000" stroke="none" 
	d="
M97.257660,79.864441 
	C99.107353,77.755165 101.350639,75.631462 103.899567,73.400726 
	C105.279137,78.736534 101.489288,79.317337 97.257660,79.864441 
z"/>
<path fill="#A1925A" opacity="1.000000" stroke="none" 
	d="
M108.686470,70.948486 
	C108.784622,71.449898 108.554016,71.988678 108.152359,72.767296 
	C107.050323,73.136749 106.119324,73.266380 104.838348,73.296623 
	C105.778152,72.460114 107.067940,71.722992 108.686470,70.948486 
z"/>
<path fill="#A39459" opacity="1.000000" stroke="none" 
	d="
M238.567780,83.425522 
	C238.855240,82.964813 239.171646,82.502853 239.488052,82.040894 
	C239.751144,82.276390 240.014221,82.511887 240.277313,82.747383 
	C239.858047,82.907837 239.438782,83.068291 238.807556,83.355438 
	C238.595596,83.482132 238.596710,83.424286 238.567780,83.425522 
z"/>
<path fill="#A1925A" opacity="1.000000" stroke="none" 
	d="
M96.127769,80.802567 
	C96.122826,80.668274 96.299774,80.362411 96.739006,79.983032 
	C96.775665,80.154716 96.545120,80.395218 96.127769,80.802567 
z"/>
<path fill="#A89960" opacity="1.000000" stroke="none" 
	d="
M63.398785,90.138481 
	C63.757130,94.391228 63.786667,98.790665 63.778873,103.598595 
	C60.133911,100.873375 59.821220,94.484276 63.398785,90.138481 
z"/>
<path fill="#FAF8EB" opacity="1.000000" stroke="none" 
	d="
M49.879112,193.736588 
	C49.879112,193.736588 49.944958,193.330490 50.077423,193.173096 
	C51.234730,194.298950 52.259575,195.582214 53.335049,197.625244 
	C53.401485,199.609146 53.417290,200.833267 53.433098,202.057373 
	C53.541161,204.854507 53.043381,207.870850 53.950844,210.378723 
	C54.664410,212.350784 56.932003,214.689865 58.841228,215.036240 
	C60.717144,215.376572 63.061703,213.505096 65.106888,212.426498 
	C66.817650,211.524246 68.393097,210.365417 70.028465,209.320190 
	C70.464012,209.806747 70.899559,210.293289 71.335106,210.779846 
	C70.103279,213.206055 68.871460,215.632278 67.613785,218.427505 
	C65.811211,219.127426 64.037094,219.473053 62.257324,219.786652 
	C55.460819,220.984161 50.803356,218.090271 48.806114,210.531357 
	C49.213615,204.357574 49.546364,199.047089 49.879112,193.736588 
z"/>
<path fill="#F6F4DF" opacity="1.000000" stroke="none" 
	d="
M49.675716,193.815247 
	C49.546364,199.047089 49.213615,204.357574 48.834183,210.181320 
	C48.575733,210.327286 48.363976,209.959991 48.028519,209.295563 
	C48.265881,204.294052 48.626945,199.589706 49.029045,194.473953 
	C49.070080,194.062561 49.472321,193.893921 49.675716,193.815247 
z"/>
<path fill="#FAF8EC" opacity="1.000000" stroke="none" 
	d="
M253.103577,198.622070 
	C253.140533,205.602982 253.147476,212.202438 252.965668,218.796707 
	C252.912033,220.741425 252.324829,222.671448 251.432617,224.771530 
	C249.998840,223.617783 249.114594,222.300705 248.162491,220.599792 
	C244.420792,219.768433 240.746948,219.320892 236.924988,218.585754 
	C235.970490,216.815079 235.164093,215.332001 234.347580,213.408051 
	C234.191696,210.321121 234.045944,207.675034 233.900177,205.028961 
	C236.498672,197.696259 238.028610,196.804504 246.454086,197.658356 
	C248.633774,197.879288 250.818863,198.046677 253.103577,198.622070 
M243.491928,201.291336 
	C238.867249,202.960175 236.693054,211.150467 240.465866,214.095947 
	C241.828995,215.160172 245.482681,215.099350 246.836670,214.002869 
	C249.990417,211.448883 248.078430,203.471497 243.491928,201.291336 
z"/>
<path fill="#F9F6E8" opacity="1.000000" stroke="none" 
	d="
M224.819824,211.985275 
	C224.844009,209.830353 225.400848,207.489044 224.731705,205.576721 
	C224.147476,203.907135 222.015854,201.461227 220.866135,201.613297 
	C219.100754,201.846786 216.538834,203.786224 216.189285,205.406174 
	C215.434128,208.905914 215.737381,212.666901 215.857910,216.312744 
	C215.962387,219.473694 214.743988,220.622940 211.022781,219.532852 
	C211.022781,212.530334 211.022781,205.284271 211.416336,197.530975 
	C216.547974,197.257477 221.286057,197.491241 226.024139,197.724991 
	C226.162338,197.552734 226.300522,197.380493 226.426361,197.712097 
	C227.323868,199.134277 228.233734,200.052582 229.143585,200.970901 
	C229.226440,201.523834 229.309311,202.076782 229.557770,203.315674 
	C229.836288,208.998199 229.949234,213.994766 229.980255,219.172745 
	C229.898346,219.354172 229.887421,219.752045 229.470612,219.813263 
	C223.309601,221.062164 225.487366,216.517548 224.883804,213.689850 
	C224.902405,212.895691 224.861115,212.440475 224.819824,211.985275 
z"/>
<path fill="#928659" opacity="1.000000" stroke="none" 
	d="
M230.062180,218.991318 
	C229.949234,213.994766 229.836288,208.998199 229.728119,203.539612 
	C230.988098,203.844025 232.243301,204.610458 233.699341,205.202927 
	C234.045944,207.675034 234.191696,210.321121 234.006470,213.526520 
	C232.471054,215.721008 231.266617,217.356155 230.062180,218.991318 
z"/>
<path fill="#928659" opacity="1.000000" stroke="none" 
	d="
M225.836426,197.371414 
	C221.286057,197.491241 216.547974,197.257477 211.439484,197.070068 
	C211.059006,196.930588 211.048920,196.744736 211.021759,196.030807 
	C211.004684,195.502731 210.998779,195.004272 210.998779,195.004272 
	C211.169724,194.727386 211.390671,194.189438 211.504410,194.211227 
	C216.225174,195.115402 220.936340,196.069763 225.836426,197.371414 
z"/>
<path fill="#928659" opacity="1.000000" stroke="none" 
	d="
M229.270416,200.675018 
	C228.233734,200.052582 227.323868,199.134277 226.210144,197.962799 
	C227.136612,198.599472 228.266937,199.489288 229.270416,200.675018 
z"/>
<path fill="#97874B" opacity="1.000000" stroke="none" 
	d="
M210.668213,195.001801 
	C210.998779,195.004272 211.004684,195.502731 211.006973,195.752014 
	C210.493851,195.778152 209.978439,195.555008 209.239532,195.159897 
	C209.456573,194.991714 209.897110,194.995514 210.668213,195.001801 
z"/>
<path fill="#A49459" opacity="1.000000" stroke="none" 
	d="
M66.066803,112.934174 
	C67.013664,113.884949 67.819405,115.152878 68.698425,116.734367 
	C64.823654,118.030800 65.130348,115.824211 66.066803,112.934174 
z"/>
<path fill="#908045" opacity="1.000000" stroke="none" 
	d="
M156.058029,211.352676 
	C157.497849,211.246231 158.846924,211.478577 160.510071,211.850601 
	C161.772263,214.133286 162.720367,216.276276 163.840576,218.721985 
	C159.078690,225.312195 152.899612,228.184540 144.331848,225.695450 
	C143.167969,222.704483 144.140869,221.381577 146.989120,221.241058 
	C148.333633,221.174728 149.650055,220.539108 150.979218,220.161438 
	C151.271759,219.930695 151.564301,219.699936 152.362915,219.180511 
	C153.549881,217.846069 154.230774,216.800308 154.911667,215.754532 
	C155.263535,214.400177 155.615402,213.045822 156.058029,211.352676 
z"/>
<path fill="#908045" opacity="1.000000" stroke="none" 
	d="
M186.403381,216.874100 
	C182.887894,219.682434 186.722153,220.728256 187.874161,222.730835 
	C186.865891,224.312469 185.892700,226.484467 184.549194,226.744705 
	C180.932556,227.445236 179.439148,224.533356 178.100220,221.370514 
	C180.449203,221.067322 181.493011,220.069916 181.225952,217.437729 
	C180.955841,214.775436 181.166397,212.064392 181.166397,209.374695 
	C181.579788,209.261139 181.993195,209.147583 182.406586,209.034027 
	C183.399857,210.873581 184.393112,212.713120 185.757416,215.082458 
	C186.220093,216.032852 186.311737,216.453476 186.403381,216.874100 
z"/>
<path fill="#F5F2DF" opacity="1.000000" stroke="none" 
	d="
M248.230347,220.983627 
	C249.114594,222.300705 249.998840,223.617783 251.205261,225.078537 
	C246.532089,230.738693 240.394363,230.580063 234.584122,224.266220 
	C235.547073,223.425369 236.265945,223.096283 237.359238,222.826370 
	C243.919571,225.865372 245.374313,225.601791 248.230347,220.983627 
z"/>
<path fill="#908045" opacity="1.000000" stroke="none" 
	d="
M206.318970,223.024307 
	C206.137497,218.870209 206.199280,214.750839 206.519241,210.651611 
	C206.601227,209.601242 207.498749,208.614532 208.021606,207.598587 
	C208.663147,208.607162 209.689224,209.549210 209.877274,210.636246 
	C210.559891,214.582138 210.961685,218.576630 211.737488,222.788239 
	C210.260529,227.711639 208.431427,221.899002 206.318970,223.024307 
z"/>
<path fill="#908045" opacity="1.000000" stroke="none" 
	d="
M236.984802,222.767212 
	C236.265945,223.096283 235.547073,223.425369 234.573441,223.928772 
	C233.059830,223.204391 231.801010,222.305649 230.247269,220.891891 
	C229.930710,220.168594 229.909073,219.960312 229.887421,219.752045 
	C229.887421,219.752045 229.898346,219.354172 229.980255,219.172745 
	C231.266617,217.356155 232.471054,215.721008 234.016602,213.967377 
	C235.164093,215.332001 235.970490,216.815079 236.919830,218.974976 
	C237.036804,220.690277 237.010803,221.728745 236.984802,222.767212 
z"/>
<path fill="#908045" opacity="1.000000" stroke="none" 
	d="
M224.661011,211.684021 
	C224.861115,212.440475 224.902405,212.895691 224.737396,213.965698 
	C224.347488,215.388916 224.163864,216.197342 223.980255,217.005768 
	C222.557480,217.284653 221.134720,217.563522 219.358063,217.921631 
	C219.004166,214.650986 219.004166,211.301102 219.004166,207.742172 
	C222.512787,206.461182 223.518036,208.905197 224.661011,211.684021 
z"/>
<path fill="#90844F" opacity="1.000000" stroke="none" 
	d="
M223.942657,217.402435 
	C224.163864,216.197342 224.347488,215.388916 224.677521,214.304657 
	C225.487366,216.517548 223.309601,221.062164 229.470612,219.813263 
	C229.909073,219.960312 229.930710,220.168594 229.980316,220.689743 
	C229.057724,222.160065 228.107162,223.317505 226.680206,224.737091 
	C225.139786,224.993301 224.075775,224.987381 223.011780,224.981476 
	C223.309540,222.587357 223.607315,220.193237 223.942657,217.402435 
z"/>
<path fill="#908045" opacity="1.000000" stroke="none" 
	d="
M171.716553,220.188904 
	C172.883759,220.112946 173.781067,220.207870 174.854706,220.601929 
	C173.800659,222.712204 172.570251,224.523346 171.318649,226.365707 
	C167.733704,223.059265 167.744720,222.866272 171.716553,220.188904 
z"/>
<path fill="#908045" opacity="1.000000" stroke="none" 
	d="
M195.240280,225.130875 
	C196.496567,223.324524 197.999069,221.663513 199.793869,219.960251 
	C200.086166,219.917999 200.166550,219.810501 200.166550,219.810501 
	C200.922485,220.774307 201.678421,221.738113 202.716888,222.857864 
	C200.495102,223.767944 197.990784,224.522079 195.240280,225.130875 
z"/>
<path fill="#908045" opacity="1.000000" stroke="none" 
	d="
M223.088776,225.334915 
	C224.075775,224.987381 225.139786,224.993301 226.603119,225.001526 
	C227.496506,226.846985 227.990555,228.690125 228.491074,230.557373 
	C224.844376,230.703949 224.844376,230.703949 223.088776,225.334915 
z"/>
<path fill="#90814C" opacity="1.000000" stroke="none" 
	d="
M150.555695,220.066010 
	C149.650055,220.539108 148.333633,221.174728 146.989120,221.241058 
	C144.140869,221.381577 143.167969,222.704483 143.893509,225.694946 
	C144.000504,226.443802 144.000412,226.887589 144.001068,227.664169 
	C143.569534,227.998642 143.137253,228.000336 142.380768,228.000946 
	C142.056564,225.216843 142.056564,222.433853 142.056564,219.564468 
	C144.953186,219.710129 147.542679,219.840347 150.555695,220.066010 
z"/>
<path fill="#908045" opacity="1.000000" stroke="none" 
	d="
M216.052643,222.316742 
	C216.791534,221.717041 217.583588,221.424591 218.684326,221.060867 
	C218.522919,222.072006 218.052826,223.154404 217.582748,224.236816 
	C217.090424,223.699203 216.598099,223.161606 216.052643,222.316742 
z"/>
<path fill="#F8F5E8" opacity="1.000000" stroke="none" 
	d="
M91.302948,218.837601 
	C86.640396,220.405975 82.428673,220.627991 78.328651,217.317871 
	C77.761818,216.948380 77.528236,216.691711 77.170998,215.876740 
	C76.394867,214.469910 75.742386,213.621399 75.089905,212.772888 
	C75.289139,209.661880 74.726692,206.240128 75.843292,203.503403 
	C78.304825,197.470337 83.194794,195.884567 90.559944,198.077240 
	C96.288094,203.331467 96.621246,213.436325 91.302948,218.837601 
M85.501610,201.347015 
	C81.928009,201.596359 80.765053,203.724457 80.923927,207.852417 
	C80.958366,209.326843 80.587914,210.980347 81.138939,212.226318 
	C81.711922,213.521942 83.010193,214.798431 84.305908,215.369659 
	C85.210373,215.768402 86.974174,215.343048 87.785576,214.634613 
	C91.466240,211.420944 90.450150,204.264984 85.501610,201.347015 
z"/>
<path fill="#9A8E61" opacity="1.000000" stroke="none" 
	d="
M53.686684,201.903595 
	C53.417290,200.833267 53.401485,199.609146 53.414749,198.018219 
	C53.711369,197.138901 53.978912,196.626389 54.465881,195.923553 
	C54.436962,197.738754 54.188618,199.744278 53.686684,201.903595 
z"/>
<path fill="#918451" opacity="1.000000" stroke="none" 
	d="
M75.119110,213.109650 
	C75.742386,213.621399 76.394867,214.469910 77.028061,215.659241 
	C76.388618,215.148849 75.768463,214.297623 75.119110,213.109650 
z"/>
<path fill="#9A8E61" opacity="1.000000" stroke="none" 
	d="
M54.978916,195.636292 
	C55.085197,195.103653 55.489185,194.474838 56.128059,193.679840 
	C56.000835,194.189133 55.638729,194.864624 54.978916,195.636292 
z"/>
<path fill="#9A8E61" opacity="1.000000" stroke="none" 
	d="
M57.052307,193.448456 
	C57.679104,193.135757 58.651951,192.912689 59.852180,192.799835 
	C59.185825,193.119400 58.292088,193.328735 57.052307,193.448456 
z"/>
<path fill="#9A8E61" opacity="1.000000" stroke="none" 
	d="
M62.155857,193.329376 
	C62.325405,193.265961 62.668156,193.365662 63.068291,193.736786 
	C62.834934,193.875244 62.569397,193.703323 62.155857,193.329376 
z"/>
<path fill="#8F824F" opacity="1.000000" stroke="none" 
	d="
M105.674454,203.179245 
	C105.820457,204.172485 105.648079,205.345764 105.295380,206.737823 
	C105.195404,205.757507 105.275742,204.558395 105.674454,203.179245 
z"/>
<path fill="#92875B" opacity="1.000000" stroke="none" 
	d="
M136.687241,208.295929 
	C136.879410,209.388718 136.929764,210.777649 136.912766,212.578918 
	C136.745422,211.524872 136.645432,210.058472 136.687241,208.295929 
z"/>
<path fill="#92875B" opacity="1.000000" stroke="none" 
	d="
M137.031219,206.204834 
	C137.288330,206.105759 137.547043,206.294586 137.778809,206.512131 
	C137.793274,206.525726 137.596527,206.764343 137.266968,206.993256 
	C137.032806,206.891922 137.029755,206.695602 137.031219,206.204834 
z"/>
<path fill="#92875B" opacity="1.000000" stroke="none" 
	d="
M137.024216,203.210632 
	C137.282303,203.115341 137.539520,203.301270 137.773453,203.512909 
	C137.784607,203.523010 137.589539,203.761032 137.258896,203.981171 
	C137.024460,203.878586 137.021622,203.687729 137.024216,203.210632 
z"/>
<path fill="#92875B" opacity="1.000000" stroke="none" 
	d="
M137.017700,200.219238 
	C137.274109,200.126221 137.525650,200.311676 137.777206,200.497116 
	C137.678757,200.626801 137.580307,200.756500 137.252106,200.970398 
	C137.019180,200.868988 137.016006,200.683350 137.017700,200.219238 
z"/>
<path fill="#FAF8EA" opacity="1.000000" stroke="none" 
	d="
M186.648682,217.117752 
	C186.311737,216.453476 186.220093,216.032852 186.003510,215.314117 
	C185.915878,211.858170 185.955032,208.700363 185.988602,205.542511 
	C185.993896,205.043808 186.128159,204.475189 185.939590,204.057846 
	C185.038879,202.064713 183.152008,200.021637 183.339935,198.171478 
	C183.528076,196.319412 185.756897,194.674637 187.923737,191.856125 
	C188.651199,192.586273 189.834900,193.675827 190.890335,194.877975 
	C191.370789,195.425201 191.446655,196.367325 191.971558,196.827454 
	C193.010254,197.738022 194.233551,198.438049 195.380539,199.225113 
	C194.103821,200.187149 192.827118,201.149200 190.852585,202.637100 
	C190.852585,204.785675 190.865982,207.752350 190.848389,210.718842 
	C190.834045,213.140137 190.864990,215.345779 194.075195,216.003494 
	C194.780136,216.147888 195.104889,218.147949 195.604736,219.293457 
	C195.213303,219.764786 194.821869,220.236099 194.430435,220.707428 
	C191.918289,219.592087 189.406143,218.476746 186.648682,217.117752 
z"/>
<path fill="#F9F7EA" opacity="1.000000" stroke="none" 
	d="
M200.139282,219.877014 
	C200.178787,213.503662 200.258438,207.169174 200.113724,200.839828 
	C200.036942,197.481934 201.175110,196.182480 204.735382,197.474777 
	C204.821487,198.387070 204.988663,199.356842 204.992340,200.327240 
	C205.016220,206.643021 205.004593,212.958954 205.004593,219.679779 
	C203.504654,219.770508 202.261581,219.845688 200.592529,219.865692 
	C200.166550,219.810501 200.086166,219.917999 200.139282,219.877014 
z"/>
<path fill="#FBF7DF" opacity="1.000000" stroke="none" 
	d="
M200.117706,188.580078 
	C203.099747,187.909576 205.929794,187.797791 205.154633,192.795609 
	C205.063751,193.434326 204.947815,193.912552 204.947815,193.912552 
	C203.498093,193.912552 202.048370,193.912552 200.074677,193.912552 
	C200.074677,192.144958 200.074677,190.572556 200.117706,188.580078 
z"/>
<path fill="#97874B" opacity="1.000000" stroke="none" 
	d="
M205.150879,194.015869 
	C204.947815,193.912552 205.063751,193.434326 205.169708,193.212158 
	C205.658234,192.992538 206.040802,192.995056 206.710236,193.000000 
	C206.449402,193.374664 205.901672,193.746918 205.150879,194.015869 
z"/>
<path fill="#8F844B" opacity="1.000000" stroke="none" 
	d="
M151.163559,209.867889 
	C151.027252,213.322891 149.492661,216.172256 146.562408,215.418655 
	C144.618149,214.918610 142.455399,211.768600 142.039078,209.502029 
	C140.918121,203.399246 143.968475,199.963791 147.941330,202.338287 
	C149.782959,203.439011 150.150223,207.006561 151.163559,209.867889 
z"/>
<path fill="#92875B" opacity="1.000000" stroke="none" 
	d="
M154.665955,215.942947 
	C154.230774,216.800308 153.549881,217.846069 152.536438,218.959427 
	C152.942688,218.061798 153.681458,217.096588 154.665955,215.942947 
z"/>
<path fill="#948856" opacity="1.000000" stroke="none" 
	d="
M243.882782,201.322296 
	C248.078430,203.471497 249.990417,211.448883 246.836670,214.002869 
	C245.482681,215.099350 241.828995,215.160172 240.465866,214.095947 
	C236.693054,211.150467 238.867249,202.960175 243.882782,201.322296 
z"/>
<path fill="#938C5E" opacity="1.000000" stroke="none" 
	d="
M237.359238,222.826370 
	C237.010803,221.728745 237.036804,220.690277 237.067963,219.262573 
	C240.746948,219.320892 244.420792,219.768433 248.162491,220.599792 
	C245.374313,225.601791 243.919571,225.865372 237.359238,222.826370 
z"/>
<path fill="#8F8449" opacity="1.000000" stroke="none" 
	d="
M86.093094,201.587021 
	C90.450150,204.264984 91.466240,211.420944 87.785576,214.634613 
	C86.974174,215.343048 85.210373,215.768402 84.305908,215.369659 
	C83.010193,214.798431 81.711922,213.521942 81.138939,212.226318 
	C80.587914,210.980347 80.958366,209.326843 81.265121,207.563477 
	C82.769997,208.403168 83.933678,209.531784 85.097351,210.660416 
	C85.438774,208.950256 85.880089,207.252197 86.088837,205.525986 
	C86.245346,204.231750 86.102608,202.901337 86.093094,201.587021 
z"/>
<path fill="#978358" opacity="1.000000" stroke="none" 
	d="
M85.797348,201.467010 
	C86.102608,202.901337 86.245346,204.231750 86.088837,205.525986 
	C85.880089,207.252197 85.438774,208.950256 85.097351,210.660416 
	C83.933678,209.531784 82.769997,208.403168 81.347061,207.142487 
	C80.765053,203.724457 81.928009,201.596359 85.797348,201.467010 
z"/>
</svg>