<svg version="1.1" id="Layer_1" xmlns="http://www.w3.org/2000/svg" xmlns:xlink="http://www.w3.org/1999/xlink" x="0px" y="0px"
	 width="100%" viewBox="0 0 200 200" enable-background="new 0 0 200 200" xml:space="preserve">
<path fill="#9583CF" opacity="1.000000" stroke="none" 
	d="
M141.000000,201.000000 
	C94.000000,201.000000 47.500004,201.000000 1.000006,201.000000 
	C1.000004,134.333344 1.000004,67.666679 1.000002,1.000015 
	C67.666656,1.000010 134.333313,1.000010 200.999969,1.000005 
	C200.999985,67.666649 200.999985,134.333298 201.000000,200.999969 
	C181.166672,201.000000 161.333328,201.000000 141.000000,201.000000 
M178.213943,111.565041 
	C178.435455,111.298111 178.656967,111.031181 178.688309,110.794418 
	C178.688309,110.794418 178.657791,110.604317 179.413849,110.723679 
	C180.447296,109.351746 181.480743,107.979805 182.759048,106.627617 
	C182.759048,106.627617 182.740601,106.872581 183.314377,106.412933 
	C186.469894,101.069420 185.707092,98.873093 175.452316,98.405685 
	C176.237671,99.488060 176.896439,100.395966 177.472580,101.423546 
	C177.472580,101.423546 177.346725,101.350693 176.622543,101.336876 
	C175.783005,102.312645 174.943481,103.288406 173.889008,104.640030 
	C173.691818,104.869141 173.444016,105.007797 172.551529,105.188950 
	C172.073303,105.549110 171.595078,105.909271 171.277344,106.209213 
	C171.277344,106.209213 171.335999,106.370262 170.685654,106.388794 
	C170.160583,106.987091 169.635513,107.585388 169.082321,108.111404 
	C169.082321,108.111404 169.157776,108.129295 168.398163,108.122337 
	C165.156387,108.699699 161.914612,109.277061 158.836273,109.314209 
	C159.156601,108.858658 159.476929,108.403107 160.235474,107.551460 
	C160.484482,107.024788 160.733490,106.498116 161.198730,105.295044 
	C164.306381,102.457985 164.750839,99.394897 161.668030,95.672005 
	C161.435318,95.433464 161.182312,95.218849 161.016068,95.049416 
	C161.016068,95.049416 160.994492,95.156395 160.400757,94.709465 
	C156.226181,94.665230 152.463791,93.367241 148.749756,90.534584 
	C148.749283,89.252922 148.748810,87.971252 148.788437,85.884834 
	C147.461746,84.707306 146.200104,82.710091 144.788849,82.598099 
	C143.543228,82.499252 141.430496,84.243492 140.917068,85.625748 
	C139.028595,90.709938 137.646042,95.982048 135.861282,101.813065 
	C131.978790,106.414703 129.338470,112.401001 121.158966,114.725433 
	C122.248497,110.963737 122.976990,108.448570 124.196808,105.421425 
	C124.429108,104.755470 124.661407,104.089523 124.875854,102.875381 
	C125.191925,102.236404 125.508003,101.597427 126.254822,100.535713 
	C126.475639,99.982201 126.696457,99.428696 126.927216,98.964592 
	C126.927216,98.964592 126.837631,98.972771 127.180000,98.669456 
	C127.174248,98.120743 127.168503,97.572029 127.024811,96.373688 
	C126.949348,95.937653 126.873886,95.501610 127.287460,94.752419 
	C126.833122,93.778671 126.602028,92.209930 125.883484,91.940315 
	C123.521683,91.054123 120.797775,89.852875 119.295204,93.306091 
	C119.295204,93.306091 119.381355,93.309097 118.697929,93.535332 
	C113.725693,101.299118 112.323318,109.962303 111.772179,118.986153 
	C111.565163,122.375648 112.766853,123.839439 115.507599,124.983597 
	C119.241264,126.542252 122.291794,125.592178 124.890434,122.864113 
	C124.890434,122.864113 124.803925,122.798004 125.595375,122.879417 
	C131.753494,121.935669 136.185303,118.211365 137.014450,113.008423 
	C137.353973,112.678642 137.693497,112.348869 138.741623,111.961731 
	C142.645813,111.639572 143.932373,109.542801 142.930710,105.933769 
	C142.930710,105.933769 142.855362,105.984375 143.273880,105.575577 
	C143.517014,105.053535 143.760147,104.531494 143.998779,103.999969 
	C143.998779,103.999969 144.007462,104.002434 144.752487,104.022163 
	C150.439758,104.372833 148.152954,107.789619 147.342163,110.684250 
	C146.899414,112.264961 146.119766,113.932625 146.293015,115.470879 
	C146.831894,120.255821 149.710388,123.656029 154.426117,124.102257 
	C159.516632,124.583954 164.514252,123.419556 167.967316,118.932281 
	C167.967316,118.932281 167.891739,118.923958 168.484451,118.803749 
	C168.973694,118.464058 169.462952,118.124367 169.869476,117.867973 
	C169.869476,117.867973 169.788254,117.783195 170.605850,117.876266 
	C173.690048,118.089890 175.943939,117.368820 175.742615,113.551857 
	C175.742615,113.551857 175.759247,113.835022 176.183853,113.548195 
	C176.406921,113.291283 176.629990,113.034370 176.877396,112.851448 
	C176.877396,112.851448 176.802261,112.871956 177.209061,112.560242 
	C177.426605,112.297989 177.644135,112.035736 177.887070,111.859901 
	C177.887070,111.859901 177.799667,111.881660 178.213943,111.565041 
M100.999962,62.002422 
	C100.999962,62.002422 100.911987,61.999367 101.310570,61.634945 
	C101.525307,61.346889 101.740044,61.058834 102.115196,60.386860 
	C102.283173,60.147396 102.510239,59.997337 103.540810,59.913261 
	C108.895287,58.919746 105.299835,55.041794 105.767914,52.512054 
	C105.816719,52.248283 103.930412,51.626465 102.170105,51.086369 
	C100.882294,51.079113 99.594482,51.071861 97.825638,51.321766 
	C97.550797,51.557663 97.275955,51.793556 96.997459,51.992672 
	C96.997459,51.992672 97.027817,52.013775 96.312004,52.060181 
	C94.875488,53.372372 93.438965,54.684566 91.629570,56.435699 
	C91.422722,56.967468 91.215874,57.499233 90.994873,57.994640 
	C90.994873,57.994640 91.031563,58.007912 90.463028,58.184708 
	C89.968826,58.763851 89.474625,59.342999 88.808304,60.081581 
	C88.808304,60.081581 88.579391,60.030163 88.024956,60.326134 
	C87.687950,60.572777 87.350945,60.819424 87.258141,61.027630 
	C87.258141,61.027630 87.299408,61.271366 86.551300,61.273869 
	C85.389313,62.550343 84.227333,63.826817 83.031982,65.039276 
	C83.031982,65.039276 83.102043,65.056641 82.520164,65.192734 
	C82.055367,65.549889 81.590561,65.907043 81.336967,66.245758 
	C81.336967,66.245758 81.356018,66.456917 80.648239,66.379112 
	C79.798553,67.308929 78.948868,68.238739 78.033440,69.083076 
	C78.033440,69.083076 78.119514,69.018120 77.707321,69.315613 
	C77.472198,69.558517 77.237076,69.801422 76.998199,69.992928 
	C76.998199,69.992928 77.042862,70.018639 76.296448,70.031677 
	C75.202606,71.033272 74.108765,72.034874 73.000359,72.994682 
	C73.000359,72.994682 73.038689,73.016914 72.364410,73.074242 
	C71.595268,73.758095 70.826126,74.441956 70.041489,75.059105 
	C70.041489,75.059105 70.109962,75.060349 69.514771,75.183273 
	C69.023994,75.524086 68.533218,75.864891 67.998726,76.082535 
	C67.998726,76.082535 68.122139,76.039543 67.716461,76.359863 
	C67.483215,76.613869 67.249977,76.867882 67.053818,77.054260 
	C67.053818,77.054260 67.120720,77.092651 66.377449,76.988853 
	C65.243462,75.646240 64.109474,74.303627 63.006207,72.996086 
	C63.006207,72.996086 62.959934,72.990761 63.350391,72.698341 
	C63.599537,72.487244 63.824436,72.252876 64.383575,71.521431 
	C64.541962,70.954010 64.700348,70.386597 64.840416,69.889168 
	C64.840416,69.889168 64.772247,69.864929 65.492531,69.687469 
	C68.929123,67.234375 68.996582,63.927528 66.335365,61.387463 
	C64.270683,59.416767 61.012695,58.459881 58.906052,62.742561 
	C58.693844,62.915699 58.452084,63.020977 57.668446,63.178558 
	C57.524525,63.828148 57.380600,64.477737 57.066994,65.673874 
	C56.727554,66.123672 56.388115,66.573463 55.418552,67.276985 
	C54.969994,68.255074 54.521435,69.233170 53.895283,70.863335 
	C51.797798,74.253380 49.700314,77.643425 47.054470,81.428352 
	C46.745110,82.010841 46.435749,82.593338 46.100155,83.055893 
	C46.100155,83.055893 46.220608,83.032166 45.778839,83.465843 
	C45.553913,84.031609 45.328987,84.597382 45.136665,85.078796 
	C45.136665,85.078796 45.219952,85.114021 44.533710,85.300865 
	C42.273560,88.344666 39.574566,88.981224 35.710026,88.260147 
	C31.477459,87.470406 26.823965,87.558121 24.136992,92.181946 
	C24.136992,92.181946 24.211058,92.175079 23.442785,92.148682 
	C19.214355,92.430374 20.088833,96.300232 19.026381,98.727913 
	C18.888889,99.042076 20.558468,100.147079 21.717161,101.152527 
	C21.886421,101.386230 21.984406,101.646736 22.217899,102.524704 
	C22.865936,102.985542 23.513971,103.446388 24.055384,103.903488 
	C24.055384,103.903488 24.061501,103.796974 24.291733,104.320801 
	C25.236347,104.810944 26.180964,105.301086 27.951912,105.788521 
	C29.847286,105.895134 31.742659,106.001755 34.268951,106.143860 
	C33.143867,109.139206 32.087502,111.387482 31.450386,113.748878 
	C29.124411,122.369812 26.726999,130.981812 24.802328,139.695663 
	C24.020227,143.236572 25.647654,145.935806 30.398245,146.122528 
	C31.158226,145.308365 31.918209,144.494186 32.832531,143.773239 
	C32.832531,143.773239 32.737232,143.926285 33.255348,143.435242 
	C35.507618,136.768478 37.489880,129.992905 40.116055,123.476845 
	C41.628086,119.725197 44.181927,116.393433 46.744827,113.348007 
	C52.482655,121.268753 57.741318,129.600433 64.087105,136.999786 
	C71.049080,145.117615 80.244514,150.263367 90.866486,152.387665 
	C99.784645,154.171234 108.051521,152.409546 115.275337,146.843094 
	C116.297470,146.055466 117.105942,143.273514 116.541382,142.525299 
	C115.567680,141.234894 113.501335,140.550156 111.768204,140.137772 
	C110.806694,139.908981 109.591438,140.746643 107.775482,141.207809 
	C107.146080,141.536850 106.516678,141.865875 105.712799,142.290771 
	C105.712799,142.290771 105.612587,142.118759 104.689323,142.133499 
	C98.738533,142.142899 92.787743,142.152313 86.937531,142.121872 
	C86.937531,142.121872 86.974510,142.223541 86.535202,141.782211 
	C85.961220,141.572891 85.387230,141.363571 84.919083,141.090363 
	C84.919083,141.090363 84.980919,141.197418 84.488968,140.759048 
	C83.875252,140.551773 83.261528,140.344498 82.095146,140.022705 
	C81.366814,139.453842 80.638474,138.884979 79.629662,137.845749 
	C79.392052,137.570053 79.154442,137.294357 79.004059,137.073532 
	C79.004059,137.073532 78.948952,137.160614 78.617577,136.759857 
	C78.360268,136.528503 78.102959,136.297150 77.966423,136.110489 
	C77.966423,136.110489 77.920120,136.230667 77.535553,135.788895 
	C77.022278,135.526733 76.508995,135.264572 76.000000,135.000000 
	C76.000000,135.000000 75.997772,135.004120 75.792267,134.432800 
	C75.177551,133.958923 74.562828,133.485062 73.357285,132.702881 
	C66.314034,123.078575 59.260914,113.461456 52.233223,103.825806 
	C49.962490,100.712395 50.801964,98.376686 54.014149,96.474335 
	C70.336937,86.807510 85.843582,76.020126 100.154465,62.659897 
	C100.437332,62.411415 100.720200,62.162933 100.999962,62.002422 
M83.685104,118.244392 
	C84.957443,117.585480 86.229790,116.926567 87.516655,116.260132 
	C92.146706,126.717857 100.203651,128.082703 106.295059,119.598083 
	C107.083435,118.499969 107.494331,116.136078 106.851784,115.273476 
	C106.150505,114.332031 104.009338,114.153824 102.515411,114.205864 
	C101.221596,114.250923 99.955208,115.083618 98.185143,115.754471 
	C98.513222,114.259666 98.557594,113.407478 98.882759,112.680962 
	C101.055443,107.826439 103.622902,103.112869 105.330032,98.103996 
	C105.978111,96.202469 105.295418,93.156090 104.033203,91.583534 
	C103.392662,90.785515 100.101616,92.032768 98.038116,92.488152 
	C96.677681,92.788376 95.313934,93.820732 94.046486,93.678764 
	C82.221931,92.354324 73.313675,98.337624 71.051170,110.220490 
	C70.455978,113.346489 71.398224,117.859261 73.429794,120.126381 
	C76.242676,123.265427 80.086639,121.030838 83.685104,118.244392 
M159.714432,84.302711 
	C160.098785,86.200592 160.483139,88.098465 160.867493,89.996346 
	C162.754440,89.402649 164.869339,89.159683 166.467178,88.121162 
	C168.227219,86.977226 169.582947,85.163269 170.987732,83.531769 
	C173.136810,81.035820 173.446579,77.774895 170.890594,76.109711 
	C169.458435,75.176674 165.899155,76.228630 164.090790,77.507149 
	C162.220261,78.829605 161.308914,81.508781 159.714432,84.302711 
z"/>
<path fill="#FBF9FD" opacity="1.000000" stroke="none" 
	d="
M29.954365,145.756866 
	C25.647654,145.935806 24.020227,143.236572 24.802328,139.695663 
	C26.726999,130.981812 29.124411,122.369812 31.450386,113.748878 
	C32.087502,111.387482 33.143867,109.139206 34.268951,106.143860 
	C31.742659,106.001755 29.847286,105.895134 27.437687,105.474823 
	C25.969477,104.706406 25.015488,104.251694 24.061501,103.796974 
	C24.061501,103.796974 24.055384,103.903488 23.947544,103.655960 
	C23.230177,102.916977 22.620647,102.425522 22.011118,101.934059 
	C21.984406,101.646736 21.886421,101.386230 21.487125,100.635376 
	C22.241747,97.470505 23.226402,94.822792 24.211060,92.175079 
	C24.211058,92.175079 24.136992,92.181946 24.492191,92.104416 
	C28.771650,91.319099 33.042221,89.290367 36.540466,90.207512 
	C42.036377,91.648376 44.019268,89.701752 45.219952,85.114021 
	C45.219952,85.114021 45.136665,85.078796 45.383972,84.941437 
	C45.827724,84.213440 46.024166,83.622803 46.220612,83.032166 
	C46.220608,83.032166 46.100155,83.055893 46.405800,82.945419 
	C47.008572,82.234459 47.305702,81.633965 47.602829,81.033478 
	C49.700314,77.643425 51.797798,74.253380 54.228619,70.332001 
	C55.057526,68.874863 55.553101,67.949059 56.048672,67.023262 
	C56.388115,66.573463 56.727554,66.123672 57.376625,65.209579 
	C57.851097,64.182983 58.015934,63.620689 58.180771,63.058395 
	C58.452084,63.020977 58.693844,62.915699 59.352520,62.423355 
	C61.566990,62.265957 64.775482,62.167141 64.859863,62.633549 
	C65.281227,64.962494 64.882492,67.439804 64.772247,69.864929 
	C64.772247,69.864929 64.840416,69.889168 64.631424,70.004715 
	C64.287323,70.440323 64.152214,70.760376 63.823700,71.281746 
	C63.406845,71.985626 63.183392,72.488197 62.959934,72.990761 
	C62.959934,72.990761 63.006207,72.996086 62.740730,73.207825 
	C60.763493,76.444847 59.051735,79.470123 57.339977,82.495407 
	C57.655079,82.758499 57.970181,83.021591 58.285278,83.284691 
	C61.230427,81.220680 64.175575,79.156662 67.120720,77.092651 
	C67.120720,77.092651 67.053818,77.054260 67.309204,77.009056 
	C67.750450,76.655746 67.936295,76.347649 68.122139,76.039543 
	C68.122139,76.039543 67.998726,76.082535 68.334015,76.121704 
	C69.149529,75.794037 69.629745,75.427193 70.109962,75.060349 
	C70.109962,75.060349 70.041489,75.059105 70.351929,75.011749 
	C71.454468,74.315239 72.246582,73.666077 73.038689,73.016914 
	C73.038689,73.016914 73.000359,72.994682 73.311287,72.913361 
	C74.762428,71.894234 75.902641,70.956436 77.042862,70.018639 
	C77.042862,70.018639 76.998199,69.992928 77.251450,69.926567 
	C77.709641,69.579514 77.914581,69.298813 78.119514,69.018120 
	C78.119514,69.018120 78.033440,69.083076 78.361832,69.018837 
	C79.578827,68.122040 80.467422,67.289474 81.356018,66.456917 
	C81.356018,66.456917 81.336967,66.245758 81.543671,66.256805 
	C82.200935,65.864113 82.651489,65.460373 83.102043,65.056641 
	C83.102043,65.056641 83.031982,65.039276 83.345932,64.942383 
	C84.873055,63.654110 86.086227,62.462738 87.299408,61.271366 
	C87.299408,61.271366 87.258141,61.027630 87.473419,61.023476 
	C87.985596,60.689606 88.282494,60.359886 88.579391,60.030167 
	C88.579391,60.030163 88.808304,60.081581 89.162354,59.894310 
	C90.021461,59.140663 90.526512,58.574287 91.031563,58.007912 
	C91.031563,58.007912 90.994873,57.994640 91.262726,57.882683 
	C92.023033,57.183262 92.515495,56.595791 93.292999,55.866051 
	C94.727966,54.487114 95.877892,53.250446 97.027817,52.013779 
	C97.027817,52.013775 96.997459,51.992672 97.261559,51.917877 
	C97.785995,51.583588 98.046333,51.324097 98.306671,51.064606 
	C99.594482,51.071861 100.882294,51.079113 102.768860,51.406487 
	C106.270157,54.678493 104.815750,57.327244 102.796379,59.936684 
	C102.510239,59.997337 102.283173,60.147396 101.791809,60.719162 
	C101.282951,61.367432 101.097466,61.683399 100.911987,61.999367 
	C100.911987,61.999367 100.999962,62.002422 100.722794,62.046349 
	C100.184097,62.373093 99.922554,62.655907 99.661018,62.938721 
	C85.843582,76.020126 70.336937,86.807510 54.014149,96.474335 
	C50.801964,98.376686 49.962490,100.712395 52.233223,103.825806 
	C59.260914,113.461456 66.314034,123.078575 73.778748,133.122131 
	C74.799400,134.028961 75.398590,134.516541 75.997772,135.004120 
	C75.997772,135.004120 76.000000,135.000000 76.164612,135.253448 
	C76.859520,135.748154 77.389816,135.989410 77.920120,136.230667 
	C77.920120,136.230667 77.966423,136.110489 77.939590,136.388519 
	C78.258156,136.831238 78.603554,136.995926 78.948952,137.160614 
	C78.948952,137.160614 79.004059,137.073532 78.986679,137.344177 
	C79.282921,137.848602 79.596527,138.082352 79.910141,138.316116 
	C80.638474,138.884979 81.366814,139.453842 82.598083,140.323593 
	C83.727654,140.815460 84.354286,141.006439 84.980919,141.197418 
	C84.980919,141.197418 84.919083,141.090363 85.046432,141.386078 
	C85.774017,141.862381 86.374268,142.042969 86.974510,142.223541 
	C86.974510,142.223541 86.937531,142.121872 87.130119,142.412582 
	C93.493256,144.821304 99.625565,145.743042 105.612587,142.118759 
	C105.612587,142.118759 105.712799,142.290771 106.160133,142.200943 
	C107.235161,141.775284 107.862862,141.439453 108.490562,141.103638 
	C109.591438,140.746643 110.806694,139.908981 111.768204,140.137772 
	C113.501335,140.550156 115.567680,141.234894 116.541382,142.525299 
	C117.105942,143.273514 116.297470,146.055466 115.275337,146.843094 
	C108.051521,152.409546 99.784645,154.171234 90.866486,152.387665 
	C80.244514,150.263367 71.049080,145.117615 64.087105,136.999786 
	C57.741318,129.600433 52.482655,121.268753 46.427391,112.804291 
	C45.541576,111.403313 44.973194,110.546043 44.404812,109.688782 
	C43.866459,109.639633 43.328110,109.590485 42.789757,109.541336 
	C39.438915,121.002983 36.088074,132.464630 32.737232,143.926285 
	C32.737232,143.926285 32.832531,143.773239 32.494202,143.846985 
	C31.422037,144.532776 30.688202,145.144821 29.954365,145.756866 
z"/>
<path fill="#FBF9FD" opacity="1.000000" stroke="none" 
	d="
M83.373695,118.439102 
	C80.086639,121.030838 76.242676,123.265427 73.429794,120.126381 
	C71.398224,117.859261 70.455978,113.346489 71.051170,110.220490 
	C73.313675,98.337624 82.221931,92.354324 94.046486,93.678764 
	C95.313934,93.820732 96.677681,92.788376 98.038116,92.488152 
	C100.101616,92.032768 103.392662,90.785515 104.033203,91.583534 
	C105.295418,93.156090 105.978111,96.202469 105.330032,98.103996 
	C103.622902,103.112869 101.055443,107.826439 98.882759,112.680962 
	C98.557594,113.407478 98.513222,114.259666 98.185143,115.754471 
	C99.955208,115.083618 101.221596,114.250923 102.515411,114.205864 
	C104.009338,114.153824 106.150505,114.332031 106.851784,115.273476 
	C107.494331,116.136078 107.083435,118.499969 106.295059,119.598083 
	C100.203651,128.082703 92.146706,126.717857 87.516655,116.260132 
	C86.229790,116.926567 84.957443,117.585480 83.373695,118.439102 
z"/>
<path fill="#FBF8FC" opacity="1.000000" stroke="none" 
	d="
M138.033020,112.019089 
	C137.693497,112.348869 137.353973,112.678642 136.611893,113.405167 
	C132.407532,116.800613 128.605728,119.799309 124.803925,122.798004 
	C124.803925,122.798004 124.890434,122.864113 124.523880,122.881485 
	C116.159142,125.352570 112.831139,123.121216 113.981979,114.793068 
	C114.986755,107.521881 117.522179,100.462219 119.381355,93.309097 
	C119.381355,93.309097 119.295204,93.306091 119.678436,93.297974 
	C122.307251,93.881760 124.552841,94.473663 126.798424,95.065575 
	C126.873886,95.501610 126.949348,95.937653 127.004089,97.016693 
	C126.934784,98.097389 126.886208,98.535080 126.837631,98.972771 
	C126.837631,98.972771 126.927216,98.964592 126.690292,99.117439 
	C126.243614,99.833008 126.033852,100.395729 125.824081,100.958450 
	C125.508003,101.597427 125.191925,102.236404 124.626350,103.399384 
	C124.153053,104.593391 123.929268,105.263397 123.705475,105.933395 
	C122.976990,108.448570 122.248497,110.963737 121.158966,114.725433 
	C129.338470,112.401001 131.978790,106.414703 136.237183,101.277374 
	C138.166992,96.997864 139.989120,93.339035 141.209091,89.489388 
	C142.852249,84.304283 144.104584,83.693367 148.748352,86.689590 
	C148.748810,87.971252 148.749283,89.252922 148.876770,91.138535 
	C147.338348,95.829132 145.672913,99.915787 144.007462,104.002434 
	C144.007462,104.002434 143.998779,103.999969 143.784073,104.200851 
	C143.331360,104.929276 143.093353,105.456825 142.855362,105.984375 
	C142.855362,105.984375 142.930710,105.933769 142.634613,106.084152 
	C140.903336,108.162727 139.468185,110.090912 138.033020,112.019089 
z"/>
<path fill="#FBF8FD" opacity="1.000000" stroke="none" 
	d="
M161.982620,96.059128 
	C164.750839,99.394897 164.306381,102.457985 160.873199,105.832367 
	C160.297531,106.895645 160.047409,107.421600 159.797272,107.947556 
	C159.476929,108.403107 159.156601,108.858658 158.533188,109.796700 
	C157.670837,111.524284 157.111588,112.769379 156.552322,114.014473 
	C156.942017,114.467094 157.331711,114.919716 157.721390,115.372330 
	C161.533524,112.957985 165.345642,110.543633 169.157776,108.129288 
	C169.157776,108.129295 169.082321,108.111404 169.378662,108.054260 
	C170.228683,107.454834 170.782333,106.912552 171.335999,106.370262 
	C171.335999,106.370262 171.277344,106.209213 171.509613,106.220276 
	C172.209793,105.839561 172.677689,105.447777 173.145599,105.055992 
	C173.444016,105.007797 173.691818,104.869141 174.293076,104.328568 
	C175.580338,103.128296 176.463531,102.239494 177.346725,101.350693 
	C177.346725,101.350693 177.472580,101.423546 177.877090,101.240402 
	C183.763214,99.932243 183.358353,103.320793 182.740601,106.872581 
	C182.740601,106.872581 182.759048,106.627617 182.361023,106.751801 
	C180.861267,108.118759 179.759521,109.361534 178.657791,110.604317 
	C178.657791,110.604317 178.688309,110.794418 178.491211,110.834946 
	C178.129303,111.210876 177.964493,111.546272 177.799683,111.881660 
	C177.799667,111.881660 177.887070,111.859901 177.579590,111.860352 
	C177.115494,112.197845 176.958878,112.534897 176.802246,112.871948 
	C176.802261,112.871956 176.877396,112.851448 176.567505,112.843155 
	C176.091492,113.168259 175.925369,113.501640 175.759247,113.835022 
	C175.759247,113.835022 175.742615,113.551857 175.307404,113.663071 
	C173.177536,115.110588 171.482895,116.446884 169.788254,117.783188 
	C169.788254,117.783195 169.869476,117.867973 169.610794,117.880020 
	C168.865326,118.236031 168.378525,118.579994 167.891739,118.923958 
	C167.891739,118.923958 167.967316,118.932281 167.582367,118.987671 
	C163.892654,120.067757 160.646027,121.644264 157.270798,121.999664 
	C150.702271,122.691292 147.314529,119.046082 148.793228,112.683762 
	C149.867355,108.062187 152.039062,103.684227 153.845673,99.248260 
	C155.128876,96.097443 157.562668,94.688087 160.994492,95.156395 
	C160.994492,95.156395 161.016068,95.049416 161.045074,95.291641 
	C161.376923,95.708946 161.679764,95.884041 161.982620,96.059128 
z"/>
<path fill="#998BC7" opacity="1.000000" stroke="none" 
	d="
M160.697632,94.932930 
	C157.562668,94.688087 155.128876,96.097443 153.845673,99.248260 
	C152.039062,103.684227 149.867355,108.062187 148.793228,112.683762 
	C147.314529,119.046082 150.702271,122.691292 157.270798,121.999664 
	C160.646027,121.644264 163.892654,120.067757 167.558960,118.957718 
	C164.514252,123.419556 159.516632,124.583954 154.426117,124.102257 
	C149.710388,123.656029 146.831894,120.255821 146.293015,115.470879 
	C146.119766,113.932625 146.899414,112.264961 147.342163,110.684250 
	C148.152954,107.789619 150.439758,104.372833 144.379974,104.012299 
	C145.672913,99.915787 147.338348,95.829132 149.031525,91.361618 
	C152.463791,93.367241 156.226181,94.665230 160.697632,94.932930 
z"/>
<path fill="#F9F6FC" opacity="1.000000" stroke="none" 
	d="
M159.846222,83.948601 
	C161.308914,81.508781 162.220261,78.829605 164.090790,77.507149 
	C165.899155,76.228630 169.458435,75.176674 170.890594,76.109711 
	C173.446579,77.774895 173.136810,81.035820 170.987732,83.531769 
	C169.582947,85.163269 168.227219,86.977226 166.467178,88.121162 
	C164.869339,89.159683 162.754440,89.402649 160.867493,89.996346 
	C160.483139,88.098465 160.098785,86.200592 159.846222,83.948601 
z"/>
<path fill="#998BC7" opacity="1.000000" stroke="none" 
	d="
M119.039642,93.422211 
	C117.522179,100.462219 114.986755,107.521881 113.981979,114.793068 
	C112.831139,123.121216 116.159142,125.352570 124.555573,122.837227 
	C122.291794,125.592178 119.241264,126.542252 115.507599,124.983597 
	C112.766853,123.839439 111.565163,122.375648 111.772179,118.986153 
	C112.323318,109.962303 113.725693,101.299118 119.039642,93.422211 
z"/>
<path fill="#9B8FC2" opacity="1.000000" stroke="none" 
	d="
M32.996292,143.680756 
	C36.088074,132.464630 39.438915,121.002983 42.789757,109.541336 
	C43.328110,109.590485 43.866459,109.639633 44.404812,109.688782 
	C44.973194,110.546043 45.541576,111.403313 46.188385,112.566620 
	C44.181927,116.393433 41.628086,119.725197 40.116055,123.476845 
	C37.489880,129.992905 35.507618,136.768478 32.996292,143.680756 
z"/>
<path fill="#998BC7" opacity="1.000000" stroke="none" 
	d="
M148.768402,86.287216 
	C144.104584,83.693367 142.852249,84.304283 141.209091,89.489388 
	C139.989120,93.339035 138.166992,96.997864 136.343109,100.962570 
	C137.646042,95.982048 139.028595,90.709938 140.917068,85.625748 
	C141.430496,84.243492 143.543228,82.499252 144.788849,82.598099 
	C146.200104,82.710091 147.461746,84.707306 148.768402,86.287216 
z"/>
<path fill="#9487C0" opacity="1.000000" stroke="none" 
	d="
M44.876831,85.207443 
	C44.019268,89.701752 42.036377,91.648376 36.540466,90.207512 
	C33.042221,89.290367 28.771650,91.319099 24.498062,92.141144 
	C26.823965,87.558121 31.477459,87.470406 35.710026,88.260147 
	C39.574566,88.981224 42.273560,88.344666 44.876831,85.207443 
z"/>
<path fill="#988BC0" opacity="1.000000" stroke="none" 
	d="
M66.749084,77.040756 
	C64.175575,79.156662 61.230427,81.220680 58.285278,83.284691 
	C57.970181,83.021591 57.655079,82.758499 57.339977,82.495407 
	C59.051735,79.470123 60.763493,76.444847 62.725365,73.190292 
	C64.109474,74.303627 65.243462,75.646240 66.749084,77.040756 
z"/>
<path fill="#998BC7" opacity="1.000000" stroke="none" 
	d="
M168.777969,108.125809 
	C165.345642,110.543633 161.533524,112.957985 157.721390,115.372330 
	C157.331711,114.919716 156.942017,114.467094 156.552322,114.014473 
	C157.111588,112.769379 157.670837,111.524284 158.451477,110.066811 
	C161.914612,109.277061 165.156387,108.699699 168.777969,108.125809 
z"/>
<path fill="#998BC7" opacity="1.000000" stroke="none" 
	d="
M125.199646,122.838715 
	C128.605728,119.799309 132.407532,116.800613 136.514893,113.624130 
	C136.185303,118.211365 131.753494,121.935669 125.199646,122.838715 
z"/>
<path fill="#998BC7" opacity="1.000000" stroke="none" 
	d="
M183.027496,106.642761 
	C183.358353,103.320793 183.763214,99.932243 177.918396,101.180557 
	C176.896439,100.395966 176.237671,99.488060 175.452316,98.405685 
	C185.707092,98.873093 186.469894,101.069420 183.027496,106.642761 
z"/>
<path fill="#978AC4" opacity="1.000000" stroke="none" 
	d="
M65.132385,69.776199 
	C64.882492,67.439804 65.281227,64.962494 64.859863,62.633549 
	C64.775482,62.167141 61.566990,62.265957 59.468956,62.261101 
	C61.012695,58.459881 64.270683,59.416767 66.335365,61.387463 
	C68.996582,63.927528 68.929123,67.234375 65.132385,69.776199 
z"/>
<path fill="#968ABF" opacity="1.000000" stroke="none" 
	d="
M105.150955,142.126129 
	C99.625565,145.743042 93.493256,144.821304 87.079834,142.432510 
	C92.787743,142.152313 98.738533,142.142899 105.150955,142.126129 
z"/>
<path fill="#9487C0" opacity="1.000000" stroke="none" 
	d="
M23.826923,92.161880 
	C23.226402,94.822792 22.241747,97.470505 21.324039,100.501984 
	C20.558468,100.147079 18.888889,99.042076 19.026381,98.727913 
	C20.088833,96.300232 19.214355,92.430374 23.826923,92.161880 
z"/>
<path fill="#998BC7" opacity="1.000000" stroke="none" 
	d="
M127.042938,94.908997 
	C124.552841,94.473663 122.307251,93.881760 119.681686,93.340942 
	C120.797775,89.852875 123.521683,91.054123 125.883484,91.940315 
	C126.602028,92.209930 126.833122,93.778671 127.042938,94.908997 
z"/>
<path fill="#9688C3" opacity="1.000000" stroke="none" 
	d="
M103.168594,59.924973 
	C104.815750,57.327244 106.270157,54.678493 103.154785,51.448685 
	C103.930412,51.626465 105.816719,52.248283 105.767914,52.512054 
	C105.299835,55.041794 108.895287,58.919746 103.168594,59.924973 
z"/>
<path fill="#998BC7" opacity="1.000000" stroke="none" 
	d="
M138.387329,111.990417 
	C139.468185,110.090912 140.903336,108.162727 142.608566,106.046989 
	C143.932373,109.542801 142.645813,111.639572 138.387329,111.990417 
z"/>
<path fill="#998BC7" opacity="1.000000" stroke="none" 
	d="
M170.197052,117.829727 
	C171.482895,116.446884 173.177536,115.110588 175.165726,113.669586 
	C175.943939,117.368820 173.690048,118.089890 170.197052,117.829727 
z"/>
<path fill="#998BC7" opacity="1.000000" stroke="none" 
	d="
M179.035828,110.664001 
	C179.759521,109.361534 180.861267,108.118759 182.238586,106.741920 
	C181.480743,107.979805 180.447296,109.351746 179.035828,110.664001 
z"/>
<path fill="#9688C3" opacity="1.000000" stroke="none" 
	d="
M96.669907,52.036980 
	C95.877892,53.250446 94.727966,54.487114 93.041649,55.862827 
	C92.337654,56.000168 92.170052,55.998466 92.002449,55.996761 
	C93.438965,54.684566 94.875488,53.372372 96.669907,52.036980 
z"/>
<path fill="#988BC0" opacity="1.000000" stroke="none" 
	d="
M86.925354,61.272617 
	C86.086227,62.462738 84.873055,63.654110 83.362617,64.974380 
	C84.227333,63.826817 85.389313,62.550343 86.925354,61.272617 
z"/>
<path fill="#988BC0" opacity="1.000000" stroke="none" 
	d="
M76.669655,70.025162 
	C75.902641,70.956436 74.762428,71.894234 73.318573,72.934250 
	C74.108765,72.034874 75.202606,71.033272 76.669655,70.025162 
z"/>
<path fill="#9B8FC2" opacity="1.000000" stroke="none" 
	d="
M30.176306,145.939697 
	C30.688202,145.144821 31.422037,144.532776 32.417030,143.800369 
	C31.918209,144.494186 31.158226,145.308365 30.176306,145.939697 
z"/>
<path fill="#998BC7" opacity="1.000000" stroke="none" 
	d="
M176.984634,101.343781 
	C176.463531,102.239494 175.580338,103.128296 174.400543,104.140640 
	C174.943481,103.288406 175.783005,102.312645 176.984634,101.343781 
z"/>
<path fill="#988BC0" opacity="1.000000" stroke="none" 
	d="
M81.002129,66.418015 
	C80.467422,67.289474 79.578827,68.122040 78.394707,69.061577 
	C78.948868,68.238739 79.798553,67.308929 81.002129,66.418015 
z"/>
<path fill="#9487C0" opacity="1.000000" stroke="none" 
	d="
M24.176617,104.058884 
	C25.015488,104.251694 25.969477,104.706406 27.024521,105.476181 
	C26.180964,105.301086 25.236347,104.810944 24.176617,104.058884 
z"/>
<path fill="#978AC4" opacity="1.000000" stroke="none" 
	d="
M55.733612,67.150124 
	C55.553101,67.949059 55.057526,68.874863 54.317413,70.005959 
	C54.521435,69.233170 54.969994,68.255074 55.733612,67.150124 
z"/>
<path fill="#988BC0" opacity="1.000000" stroke="none" 
	d="
M72.701553,73.045578 
	C72.246582,73.666077 71.454468,74.315239 70.359673,75.045105 
	C70.826126,74.441956 71.595268,73.758095 72.701553,73.045578 
z"/>
<path fill="#978AC4" opacity="1.000000" stroke="none" 
	d="
M57.924606,63.118477 
	C58.015934,63.620689 57.851097,64.182983 57.461472,64.936302 
	C57.380600,64.477737 57.524525,63.828148 57.924606,63.118477 
z"/>
<path fill="#998BC7" opacity="1.000000" stroke="none" 
	d="
M171.010834,106.379532 
	C170.782333,106.912552 170.228683,107.454834 169.392731,108.090401 
	C169.635513,107.585388 170.160583,106.987091 171.010834,106.379532 
z"/>
<path fill="#968ABF" opacity="1.000000" stroke="none" 
	d="
M75.895020,134.718460 
	C75.398590,134.516541 74.799400,134.028961 74.074158,133.276291 
	C74.562828,133.485062 75.177551,133.958923 75.895020,134.718460 
z"/>
<path fill="#988BC0" opacity="1.000000" stroke="none" 
	d="
M90.747299,58.096310 
	C90.526512,58.574287 90.021461,59.140663 89.248413,59.814590 
	C89.474625,59.342999 89.968826,58.763851 90.747299,58.096310 
z"/>
<path fill="#9487C0" opacity="1.000000" stroke="none" 
	d="
M22.114510,102.229385 
	C22.620647,102.425522 23.230177,102.916977 24.000856,103.657837 
	C23.513971,103.446388 22.865936,102.985542 22.114510,102.229385 
z"/>
<path fill="#988BC0" opacity="1.000000" stroke="none" 
	d="
M91.816010,56.216232 
	C92.170052,55.998466 92.337654,56.000168 92.756607,56.005096 
	C92.515495,56.595791 92.023033,57.183262 91.269798,57.900864 
	C91.215874,57.499233 91.422722,56.967468 91.816010,56.216232 
z"/>
<path fill="#988BC0" opacity="1.000000" stroke="none" 
	d="
M69.812363,75.121811 
	C69.629745,75.427193 69.149529,75.794037 68.355881,76.183289 
	C68.533218,75.864891 69.023994,75.524086 69.812363,75.121811 
z"/>
<path fill="#968ABF" opacity="1.000000" stroke="none" 
	d="
M77.727837,136.009781 
	C77.389816,135.989410 76.859520,135.748154 76.162468,135.254654 
	C76.508995,135.264572 77.022278,135.526733 77.727837,136.009781 
z"/>
<path fill="#998BC7" opacity="1.000000" stroke="none" 
	d="
M168.188095,118.863853 
	C168.378525,118.579994 168.865326,118.236031 169.652161,117.838371 
	C169.462952,118.124367 168.973694,118.464058 168.188095,118.863853 
z"/>
<path fill="#9487C0" opacity="1.000000" stroke="none" 
	d="
M47.328651,81.230911 
	C47.305702,81.633965 47.008572,82.234459 46.418915,83.005386 
	C46.435749,82.593338 46.745110,82.010841 47.328651,81.230911 
z"/>
<path fill="#988BC0" opacity="1.000000" stroke="none" 
	d="
M82.811104,65.124687 
	C82.651489,65.460373 82.200935,65.864113 81.438065,66.266022 
	C81.590561,65.907043 82.055367,65.549889 82.811104,65.124687 
z"/>
<path fill="#968ABF" opacity="1.000000" stroke="none" 
	d="
M84.734940,140.978241 
	C84.354286,141.006439 83.727654,140.815460 82.874420,140.380859 
	C83.261528,140.344498 83.875252,140.551773 84.734940,140.978241 
z"/>
<path fill="#9487C0" opacity="1.000000" stroke="none" 
	d="
M45.999725,83.249008 
	C46.024166,83.622803 45.827724,84.213440 45.367672,84.983612 
	C45.328987,84.597382 45.553913,84.031609 45.999725,83.249008 
z"/>
<path fill="#998BC7" opacity="1.000000" stroke="none" 
	d="
M127.008820,98.821114 
	C126.886208,98.535080 126.934784,98.097389 127.073059,97.341507 
	C127.168503,97.572029 127.174248,98.120743 127.008820,98.821114 
z"/>
<path fill="#968ABF" opacity="1.000000" stroke="none" 
	d="
M86.754852,142.002869 
	C86.374268,142.042969 85.774017,141.862381 84.993507,141.418030 
	C85.387230,141.363571 85.961220,141.572891 86.754852,142.002869 
z"/>
<path fill="#968ABF" opacity="1.000000" stroke="none" 
	d="
M108.133026,141.155731 
	C107.862862,141.439453 107.235161,141.775284 106.247375,142.153015 
	C106.516678,141.865875 107.146080,141.536850 108.133026,141.155731 
z"/>
<path fill="#978AC4" opacity="1.000000" stroke="none" 
	d="
M64.017097,71.080429 
	C64.152214,70.760376 64.287323,70.440323 64.640587,69.969727 
	C64.700348,70.386597 64.541962,70.954010 64.200607,71.529716 
	C64.017639,71.538002 64.017097,71.080429 64.017097,71.080429 
z"/>
<path fill="#998BC7" opacity="1.000000" stroke="none" 
	d="
M126.039459,100.747086 
	C126.033852,100.395729 126.243614,99.833008 126.685318,99.072739 
	C126.696457,99.428696 126.475639,99.982201 126.039459,100.747086 
z"/>
<path fill="#998BC7" opacity="1.000000" stroke="none" 
	d="
M160.016373,107.749512 
	C160.047409,107.421600 160.297531,106.895645 160.765076,106.170563 
	C160.733490,106.498116 160.484482,107.024788 160.016373,107.749512 
z"/>
<path fill="#988BC0" opacity="1.000000" stroke="none" 
	d="
M63.823700,71.281746 
	C64.017097,71.080429 64.017639,71.538002 64.021362,71.766624 
	C63.824436,72.252876 63.599537,72.487244 63.155163,72.844551 
	C63.183392,72.488197 63.406845,71.985626 63.823700,71.281746 
z"/>
<path fill="#998BC7" opacity="1.000000" stroke="none" 
	d="
M172.848572,105.122467 
	C172.677689,105.447777 172.209793,105.839561 171.429382,106.250389 
	C171.595078,105.909271 172.073303,105.549110 172.848572,105.122467 
z"/>
<path fill="#998BC7" opacity="1.000000" stroke="none" 
	d="
M143.064621,105.779976 
	C143.093353,105.456825 143.331360,104.929276 143.786316,104.205589 
	C143.760147,104.531494 143.517014,105.053535 143.064621,105.779976 
z"/>
<path fill="#998BC7" opacity="1.000000" stroke="none" 
	d="
M123.951141,105.677414 
	C123.929268,105.263397 124.153053,104.593391 124.635284,103.673477 
	C124.661407,104.089523 124.429108,104.755470 123.951141,105.677414 
z"/>
<path fill="#968ABF" opacity="1.000000" stroke="none" 
	d="
M79.769897,138.080933 
	C79.596527,138.082352 79.282921,137.848602 78.943069,137.316742 
	C79.154442,137.294357 79.392052,137.570053 79.769897,138.080933 
z"/>
<path fill="#968ABF" opacity="1.000000" stroke="none" 
	d="
M78.783264,136.960236 
	C78.603554,136.995926 78.258156,136.831238 77.879204,136.366180 
	C78.102959,136.297150 78.360268,136.528503 78.783264,136.960236 
z"/>
<path fill="#9688C3" opacity="1.000000" stroke="none" 
	d="
M98.066154,51.193184 
	C98.046333,51.324097 97.785995,51.583588 97.263382,51.936264 
	C97.275955,51.793556 97.550797,51.557663 98.066154,51.193184 
z"/>
<path fill="#988BC0" opacity="1.000000" stroke="none" 
	d="
M88.302170,60.178150 
	C88.282494,60.359886 87.985596,60.689606 87.351318,61.042698 
	C87.350945,60.819424 87.687950,60.572777 88.302170,60.178150 
z"/>
<path fill="#9688C3" opacity="1.000000" stroke="none" 
	d="
M101.111282,61.817154 
	C101.097466,61.683399 101.282951,61.367432 101.711609,60.911118 
	C101.740044,61.058834 101.525307,61.346889 101.111282,61.817154 
z"/>
<path fill="#9688C3" opacity="1.000000" stroke="none" 
	d="
M99.907745,62.799309 
	C99.922554,62.655907 100.184097,62.373093 100.724350,62.002365 
	C100.720200,62.162933 100.437332,62.411415 99.907745,62.799309 
z"/>
<path fill="#998BC7" opacity="1.000000" stroke="none" 
	d="
M175.971558,113.691605 
	C175.925369,113.501640 176.091492,113.168259 176.555328,112.806168 
	C176.629990,113.034370 176.406921,113.291283 175.971558,113.691605 
z"/>
<path fill="#998BC7" opacity="1.000000" stroke="none" 
	d="
M177.005646,112.716095 
	C176.958878,112.534897 177.115494,112.197845 177.566895,111.817139 
	C177.644135,112.035736 177.426605,112.297989 177.005646,112.716095 
z"/>
<path fill="#998BC7" opacity="1.000000" stroke="none" 
	d="
M178.006805,111.723351 
	C177.964493,111.546272 178.129303,111.210876 178.586304,110.819870 
	C178.656967,111.031181 178.435455,111.298111 178.006805,111.723351 
z"/>
<path fill="#988BC0" opacity="1.000000" stroke="none" 
	d="
M77.913422,69.166870 
	C77.914581,69.298813 77.709641,69.579514 77.253326,69.952271 
	C77.237076,69.801422 77.472198,69.558517 77.913422,69.166870 
z"/>
<path fill="#988BC0" opacity="1.000000" stroke="none" 
	d="
M67.919296,76.199707 
	C67.936295,76.347649 67.750450,76.655746 67.290665,77.042870 
	C67.249977,76.867882 67.483215,76.613869 67.919296,76.199707 
z"/>
<path fill="#998BC7" opacity="1.000000" stroke="none" 
	d="
M161.825317,95.865570 
	C161.679764,95.884041 161.376923,95.708946 160.991547,95.281006 
	C161.182312,95.218849 161.435318,95.433464 161.825317,95.865570 
z"/>
</svg>