<?xml version="1.0" encoding="UTF-8"?>
<svg version="1.1" xmlns="http://www.w3.org/2000/svg" width="200" height="200">
<path d="M0 0 C66 0 132 0 200 0 C200 66 200 132 200 200 C134 200 68 200 0 200 C0 134 0 68 0 0 Z " fill="#E0E0E0" transform="translate(0,0)"/>
<path d="M0 0 C3.50166167 1.87237069 5.69812954 3.89697849 7.8125 7.3125 C8.33497314 8.10543457 8.85744629 8.89836914 9.39575195 9.71533203 C11.4665304 14.97310381 11.18230094 19.89325738 11.10546875 25.4921875 C11.10122391 26.6600882 11.09697906 27.82798889 11.09260559 29.03128052 C11.075854 32.75025786 11.03820698 36.46868727 11 40.1875 C10.98494867 42.71353382 10.97126105 45.23957617 10.95898438 47.765625 C10.92596179 53.9481268 10.87420255 60.13022059 10.8125 66.3125 C4.2125 66.3125 -2.3875 66.3125 -9.1875 66.3125 C-9.22488281 63.13367188 -9.26226562 59.95484375 -9.30078125 56.6796875 C-9.34702842 53.59172796 -9.39825055 50.5038881 -9.44995117 47.41601562 C-9.48314938 45.2744884 -9.51119714 43.13287476 -9.53393555 40.99121094 C-9.56757504 37.90782946 -9.61989654 34.82523631 -9.67578125 31.7421875 C-9.68217117 30.78883514 -9.6885611 29.83548279 -9.69514465 28.85324097 C-9.80997616 23.62929824 -10.19082525 19.78917234 -13.1875 15.3125 C-17.19451694 12.64115537 -20.47626296 12.48596719 -25.1875 13.3125 C-28.46925318 15.84218474 -29.87993777 17.38981331 -31.1875 21.3125 C-31.30125872 22.80020605 -31.36357202 24.29217324 -31.39282227 25.78393555 C-31.41276749 26.68464279 -31.43271271 27.58535004 -31.45326233 28.51335144 C-31.47833107 29.96660576 -31.47833107 29.96660576 -31.50390625 31.44921875 C-31.52468735 32.44379593 -31.54546844 33.43837311 -31.56687927 34.46308899 C-31.63229412 37.64198867 -31.6912224 40.82097134 -31.75 44 C-31.79319288 46.15430548 -31.83680742 48.30860254 -31.88085938 50.46289062 C-31.98876123 55.74600991 -32.08789491 61.02919167 -32.1875 66.3125 C-39.1175 66.3125 -46.0475 66.3125 -53.1875 66.3125 C-53.1875 44.2025 -53.1875 22.0925 -53.1875 -0.6875 C-46.2575 -0.6875 -39.3275 -0.6875 -32.1875 -0.6875 C-31.8575 1.6225 -31.5275 3.9325 -31.1875 6.3125 C-30.72859375 5.90257813 -30.2696875 5.49265625 -29.796875 5.0703125 C-29.18328125 4.53148438 -28.5696875 3.99265625 -27.9375 3.4375 C-27.33421875 2.90382813 -26.7309375 2.37015625 -26.109375 1.8203125 C-19.12620475 -3.65835359 -8.02068867 -3.30185017 0 0 Z " fill="#1A3050" transform="translate(118.1875,66.6875)"/>
<path d="M0 0 C3.0625 0.3125 3.0625 0.3125 4.9375 1.4375 C6.59104531 4.19340884 6.45615568 6.16325452 6.0625 9.3125 C4.9375 11.1875 4.9375 11.1875 3.0625 12.3125 C0.0625 12.75 0.0625 12.75 -2.9375 12.3125 C-4.875 10.6875 -4.875 10.6875 -5.9375 8.3125 C-5.64908355 3.50555913 -5.26034464 0.55961113 0 0 Z " fill="#22344D" transform="translate(139.9375,120.6875)"/>
<path d="M0 0 C0.78375 0.04125 1.5675 0.0825 2.375 0.125 C1.385 0.62 1.385 0.62 0.375 1.125 C0.25125 1.764375 0.1275 2.40375 0 3.0625 C-0.20625 3.743125 -0.4125 4.42375 -0.625 5.125 C-1.264375 5.434375 -1.90375 5.74375 -2.5625 6.0625 C-4.88952391 6.99779303 -4.88952391 6.99779303 -5.875 9.75 C-6.1225 10.53375 -6.37 11.3175 -6.625 12.125 C-7.3125 10.5 -7.3125 10.5 -7.625 8.125 C-4.29846939 0.20468902 -4.29846939 0.20468902 0 0 Z " fill="#C9D1D8" transform="translate(93.625,79.875)"/>
<path d="M0 0 C1.32 0.66 2.64 1.32 4 2 C3.34 3.98 2.68 5.96 2 8 C0.68 7.67 -0.64 7.34 -2 7 C-1.125 2.25 -1.125 2.25 0 0 Z " fill="#162E4F" transform="translate(140,125)"/>
<path d="M0 0 C1.98 0 3.96 0 6 0 C5.34 1.98 4.68 3.96 4 6 C2 5.33333333 0 4.66666667 -2 4 C-1.34 2.68 -0.68 1.36 0 0 Z " fill="#293955" transform="translate(137,121)"/>
</svg>
