<svg version="1.1" id="Layer_1" xmlns="http://www.w3.org/2000/svg" xmlns:xlink="http://www.w3.org/1999/xlink" x="0px" y="0px"
	 width="100%" viewBox="0 0 200 200" enable-background="new 0 0 200 200" xml:space="preserve">
<path fill="#090C30" opacity="1.000000" stroke="none" 
	d="
M110.000000,201.000000 
	C73.355949,201.000000 37.211899,201.000000 1.033923,201.000000 
	C1.033923,134.397644 1.033923,67.795280 1.033923,1.096454 
	C67.560547,1.096454 134.121292,1.096454 200.841003,1.096454 
	C200.841003,67.666367 200.841003,134.333145 200.841003,201.000000 
	C170.795563,201.000000 140.647781,201.000000 110.000000,201.000000 
M124.033707,173.063156 
	C124.033707,173.063156 124.048264,173.143265 124.656525,173.100693 
	C125.130486,172.753494 125.604439,172.406296 125.996506,172.033112 
	C125.996506,172.033112 126.057243,172.093887 126.722694,171.996796 
	C128.163269,171.028198 129.603836,170.059616 131.695572,169.007568 
	C133.153061,168.100113 134.610535,167.192657 136.675995,166.156296 
	C137.159729,165.788696 137.643463,165.421097 138.692612,164.980606 
	C139.125977,164.638977 139.559326,164.297348 140.701416,163.892914 
	C148.349594,159.600677 155.834305,154.976669 163.690338,151.106339 
	C172.123260,146.951813 177.756393,141.822357 174.193619,131.466476 
	C173.934479,130.713242 174.074814,129.822571 174.146759,128.144806 
	C174.114319,126.427483 174.081879,124.710152 174.141418,122.139107 
	C174.110092,120.422913 174.078751,118.706726 174.129959,116.079002 
	C174.088806,112.718925 174.047668,109.358856 174.082916,105.122154 
	C174.393768,102.081444 174.704620,99.040741 175.056030,95.501556 
	C175.046021,95.335167 175.036026,95.168770 175.070541,94.071716 
	C174.781494,89.028206 174.492432,83.984688 174.235931,78.042549 
	C174.494217,74.436417 174.899521,70.833061 174.967758,67.223335 
	C175.030884,63.883583 176.103287,60.113190 171.866409,57.518444 
	C171.589386,57.326195 171.312363,57.133949 171.076111,56.906334 
	C171.076111,56.906334 171.081924,56.852669 170.899597,56.192554 
	C168.603195,55.103172 166.306808,54.013786 163.613388,52.422916 
	C162.093185,51.566257 160.572998,50.709599 158.671829,49.429214 
	C158.133118,49.271763 157.594406,49.114315 156.704727,48.379559 
	C155.504105,47.895069 154.303497,47.410580 152.902283,46.269600 
	C150.268188,44.512913 147.634094,42.756226 144.580963,40.469387 
	C142.056610,39.306656 139.532242,38.143925 136.678574,36.380085 
	C130.455795,32.911751 124.233017,29.443413 117.588562,25.464010 
	C114.724892,23.646353 111.861229,21.828695 108.365250,19.663029 
	C104.169418,16.260153 99.652512,15.868144 95.077538,18.649132 
	C92.563538,20.177317 90.339417,22.182383 87.270813,24.073927 
	C79.846397,28.378767 72.421982,32.683609 64.312256,37.078651 
	C62.539059,38.376678 60.765865,39.674706 58.263443,40.984676 
	C56.838642,41.966881 55.413845,42.949081 53.298412,44.037434 
	C51.867901,44.697140 50.437386,45.356842 48.327374,46.093262 
	C46.514820,47.347691 44.702271,48.602119 42.161179,49.925831 
	C40.062325,51.246124 37.963467,52.566414 35.140484,53.926769 
	C32.769524,55.952919 30.398565,57.979065 27.928560,60.600056 
	C27.908388,61.001175 27.888218,61.402298 27.416609,62.322342 
	C27.290020,63.211868 27.163431,64.101395 26.996817,65.925232 
	C27.035353,70.955704 27.073887,75.986183 27.032513,81.944603 
	C27.066303,86.969231 27.100092,91.993866 27.048653,97.887573 
	C27.054758,99.925209 27.060862,101.962845 26.999660,104.498062 
	C27.007397,104.665260 27.015133,104.832451 26.973164,105.670853 
	C27.005821,106.117683 27.038479,106.564522 26.988327,107.882477 
	C27.024740,109.924530 27.061153,111.966591 27.005507,114.826569 
	C27.062086,115.918816 27.118668,117.011070 27.074772,119.016701 
	C27.021997,124.982033 26.798100,130.953369 27.006950,136.909531 
	C27.082594,139.066788 28.193665,141.187729 28.878571,143.679749 
	C28.878571,143.679749 29.052883,143.995621 29.161648,144.662781 
	C31.441208,146.089096 33.720772,147.515396 36.296597,149.118423 
	C36.296597,149.118423 36.640488,149.145508 36.945194,149.686249 
	C37.630924,150.059372 38.316650,150.432495 39.356316,151.013397 
	C39.356316,151.013397 39.762199,151.074188 40.074280,151.491241 
	C40.387917,151.621292 40.701553,151.751358 41.372154,152.364075 
	C42.114639,152.628754 42.857124,152.893433 43.968327,153.756668 
	C45.612450,154.629379 47.256569,155.502090 49.168968,156.717880 
	C49.405842,156.904968 49.675148,157.002350 50.300182,157.542007 
	C51.200531,157.987808 52.100883,158.433624 53.321495,159.064285 
	C53.321495,159.064285 53.690052,159.094467 54.020500,159.526962 
	C54.343918,159.674896 54.667336,159.822815 55.291611,160.124863 
	C55.291611,160.124863 55.629379,160.111267 55.975334,160.561310 
	C56.313843,160.715256 56.652348,160.869217 56.996986,160.997650 
	C56.996986,160.997650 56.977802,161.017776 57.328381,161.589783 
	C58.536064,162.099945 59.743744,162.610123 60.981361,163.031967 
	C60.981361,163.031967 60.906460,163.087524 61.238369,163.604385 
	C61.788982,163.864502 62.339596,164.124634 63.171658,164.721710 
	C63.414989,164.902039 63.687996,164.997391 64.338341,165.576630 
	C67.239975,167.225296 70.141617,168.873962 73.530960,170.831680 
	C73.901680,170.926285 74.272392,171.020889 74.975212,171.731354 
	C78.943237,173.886414 82.911263,176.041489 86.908813,178.063278 
	C86.908813,178.063278 86.825165,178.171143 87.080894,178.795441 
	C88.718102,179.587219 90.355316,180.378998 92.222198,181.326706 
	C92.222198,181.326706 92.498367,181.298599 92.855339,181.883636 
	C93.857185,182.323914 94.859039,182.764191 95.953888,183.161606 
	C95.953888,183.161606 95.853462,183.141586 96.062569,183.616058 
	C96.365715,183.768646 96.668854,183.921249 97.356201,184.506622 
	C97.911018,184.626663 98.465828,184.746704 99.835915,185.068619 
	C102.050934,184.469727 104.265953,183.870850 106.764061,183.285614 
	C106.764061,183.285614 106.999161,183.127350 107.610619,183.081573 
	C108.084198,182.730438 108.557777,182.379303 108.997849,182.002930 
	C108.997849,182.002930 109.025841,182.036469 109.656998,181.958420 
	C110.180435,181.345459 110.703873,180.732483 111.903748,180.079239 
	C113.605881,179.073090 115.308014,178.066925 117.718910,177.116119 
	C119.477669,176.069855 121.236427,175.023575 123.489746,173.842056 
	C123.698189,173.581497 123.906631,173.320923 124.033707,173.063156 
z"/>
<path fill="#181C75" opacity="1.000000" stroke="none" 
	d="
M28.027607,60.005215 
	C30.398565,57.979065 32.769524,55.952919 35.831070,54.073860 
	C39.384449,55.476349 41.033409,57.097290 38.605484,60.248249 
	C38.151184,60.837841 38.066750,61.810818 38.037525,62.615074 
	C37.418381,79.653801 37.537876,96.626480 49.020863,110.793648 
	C53.797981,116.687416 58.214394,123.484581 66.429543,124.949020 
	C67.345215,126.629997 68.456749,128.409821 70.025536,129.026611 
	C76.106659,131.417480 82.325226,133.462326 88.524559,135.540710 
	C88.923973,135.674606 89.593163,135.003830 90.421318,134.764481 
	C91.154007,135.159653 91.602234,135.497726 92.209579,136.072021 
	C92.723167,136.415894 93.077637,136.523544 93.342049,136.636597 
	C93.251991,136.642014 93.410812,136.556366 93.345535,136.906052 
	C94.555817,137.762512 95.831375,138.269287 97.396469,138.826096 
	C98.130836,139.225998 98.575668,139.575882 99.230659,140.170471 
	C99.840164,140.567642 100.239502,140.720093 100.944626,140.857864 
	C102.742340,140.195267 104.234283,139.547379 106.062820,138.888336 
	C106.868034,138.463654 107.336655,138.050125 107.812775,137.708435 
	C107.820267,137.780289 107.680305,137.744537 107.946930,137.711304 
	C108.473579,137.442703 108.733589,137.207336 108.994095,136.989502 
	C108.994583,137.007034 108.966774,136.985382 109.271835,136.958557 
	C110.035530,136.572159 110.494156,136.212616 111.094223,135.598114 
	C111.772560,135.127823 112.309448,134.912476 113.103394,134.998322 
	C120.169884,136.854797 126.274117,132.805511 125.296204,127.336899 
	C125.376457,127.238724 125.630074,127.237770 125.878891,127.309067 
	C126.331375,127.129204 126.535042,126.878044 126.795212,126.708801 
	C126.851715,126.790703 126.689949,126.674789 127.031509,126.758125 
	C128.910004,126.887901 130.446915,126.934334 132.189514,127.203140 
	C133.929932,126.950142 135.464661,126.474770 136.999588,126.332840 
	C136.999847,127.110847 136.999924,127.555428 136.857376,128.318085 
	C136.476089,129.757034 136.237442,130.877914 135.749237,131.999207 
	C135.499695,131.999634 135.000610,132.000610 134.649109,132.045624 
	C132.531326,133.393387 130.765060,134.696167 128.565338,135.999725 
	C122.141464,135.299271 118.072990,138.210083 114.623642,142.991562 
	C113.499092,143.003159 112.749367,143.012054 111.666389,143.014862 
	C110.888664,143.006470 110.444199,143.004181 109.820099,142.785522 
	C108.760048,142.714279 107.879623,142.859436 106.749809,143.004181 
	C106.500412,143.003754 106.001625,143.004196 105.670227,142.964340 
	C102.557999,142.953201 99.777176,142.981903 96.580002,143.008377 
	C94.775833,143.005325 93.388023,143.004486 91.812447,142.688263 
	C84.242348,139.325821 76.515282,136.909470 69.548759,133.101669 
	C54.613480,124.938271 42.578327,113.998116 36.728233,97.139030 
	C33.702301,88.418739 31.122631,79.889290 31.971127,70.570229 
	C32.333916,66.585709 32.366657,62.571136 32.562229,58.288635 
	C30.727671,58.983105 29.377638,59.494160 28.027607,60.005215 
z"/>
<path fill="#262EC2" opacity="1.000000" stroke="none" 
	d="
M174.029404,128.995789 
	C174.074814,129.822571 173.934479,130.713242 174.193619,131.466476 
	C177.756393,141.822357 172.123260,146.951813 163.690338,151.106339 
	C155.834305,154.976669 148.349594,159.600677 140.406433,163.612076 
	C140.548920,162.418060 140.986404,161.504883 141.786560,159.834671 
	C135.847260,161.797440 130.692780,163.336243 125.659439,165.201874 
	C117.628510,168.178558 109.496513,170.529648 100.826302,169.934967 
	C98.936646,169.805359 96.500214,167.988266 95.333794,168.675781 
	C90.727486,171.390854 87.458710,168.157166 83.743607,166.860855 
	C82.342552,166.371994 80.467751,164.847397 79.709251,165.300873 
	C74.959572,168.140457 73.287186,165.133270 71.838440,161.141357 
	C67.783875,162.529022 64.508438,162.517670 65.401932,157.003143 
	C67.987892,157.629303 70.266731,158.034180 72.323524,158.942078 
	C74.709892,159.995438 76.794975,162.341766 79.196373,162.641754 
	C88.132355,163.758087 97.146706,164.238937 106.127220,165.009811 
	C111.971733,165.511520 116.989731,159.960205 123.168694,162.704239 
	C123.494598,162.848969 124.219398,162.001450 124.797890,161.688721 
	C126.674141,160.674484 128.610764,159.765778 130.448135,158.686951 
	C135.319229,155.826965 140.150467,152.899063 145.119034,149.789719 
	C145.442764,149.321045 145.695724,149.126877 146.304047,149.161987 
	C148.969147,151.448822 150.288818,150.876587 152.514832,148.435623 
	C155.589478,145.064056 159.798386,142.731873 163.494980,139.919693 
	C164.703156,139.000580 165.828537,137.972672 167.002838,136.621292 
	C168.614075,133.116440 169.055664,128.864014 174.029404,128.995789 
z"/>
<path fill="#1C2296" opacity="1.000000" stroke="none" 
	d="
M27.071136,107.011353 
	C27.038479,106.564522 27.005821,106.117683 27.139862,105.241547 
	C27.359274,104.713127 27.481453,104.577469 27.452038,104.521538 
	C27.352686,104.332603 27.199543,104.171944 27.066967,104.000481 
	C27.060862,101.962845 27.054758,99.925209 27.457512,97.465759 
	C28.876797,98.181358 30.179699,99.172020 30.838867,100.485695 
	C32.375267,103.547607 33.342361,106.910072 35.008049,109.889130 
	C38.483288,116.104561 42.968643,121.350670 48.373119,126.240814 
	C58.774925,135.652695 70.796234,141.841675 83.593445,146.821823 
	C86.449631,147.933334 89.850563,147.645050 93.333717,148.001404 
	C94.110779,148.001663 94.554810,148.001755 95.262321,148.258728 
	C102.456688,151.140076 109.076721,147.630051 115.864967,147.380264 
	C116.608467,147.352905 117.297089,145.834274 118.380974,145.004761 
	C119.836937,144.338974 120.923088,143.675751 122.382416,143.010330 
	C123.501755,143.002991 124.247932,142.997833 125.378983,142.984344 
	C134.465607,140.725159 141.477600,135.615189 148.635330,130.389420 
	C160.384567,121.811455 169.383499,111.690659 172.119171,96.934395 
	C172.255463,96.199203 173.349335,95.641541 174.120102,95.211502 
	C174.447601,95.685089 174.705139,95.877838 175.015472,96.000031 
	C174.704620,99.040741 174.393768,102.081444 173.696213,105.632584 
	C172.381989,107.440765 171.358673,108.681442 170.545258,110.047150 
	C168.276123,113.856964 166.325958,117.880020 163.801788,121.507065 
	C161.891037,124.252693 159.291687,126.519104 156.999390,128.999390 
	C157.000000,129.000000 156.998779,128.998779 156.663254,129.043945 
	C155.550812,130.058701 154.773880,131.028305 153.705566,132.151917 
	C151.943192,133.204727 150.472214,134.103516 148.647644,135.046906 
	C143.861328,138.393127 139.428589,141.694733 134.621582,144.996826 
	C133.498779,144.999237 132.750244,145.001144 131.637512,145.050827 
	C124.281532,147.984085 117.305153,150.258636 109.617615,151.447144 
	C96.900803,153.413193 85.440964,150.718933 74.125809,145.974319 
	C67.920540,143.372375 62.031403,140.016525 55.750473,136.999664 
	C55.501225,136.998703 55.002731,136.997665 54.952888,136.652084 
	C54.576107,135.747650 54.355507,135.077866 53.905960,134.646881 
	C48.705288,129.660889 43.422932,124.759293 38.263985,119.730919 
	C35.734219,117.265182 33.416489,114.581909 31.002003,111.589294 
	C31.343203,108.234550 30.327211,106.567398 27.071136,107.011353 
z"/>
<path fill="#2127AB" opacity="1.000000" stroke="none" 
	d="
M174.047424,116.990540 
	C174.078751,118.706726 174.110092,120.422913 173.746017,122.611588 
	C170.695145,125.453354 167.917267,127.702225 165.426849,130.233887 
	C163.740341,131.948303 162.458038,134.060318 160.746552,135.996399 
	C160.498138,135.998291 160.001205,136.001221 159.653610,136.047974 
	C156.910339,137.576767 154.522446,139.071548 152.117508,140.538406 
	C145.337662,144.673630 138.901672,149.600403 131.690460,152.751038 
	C118.490250,158.518311 104.553429,161.330643 89.622040,159.004684 
	C88.498245,159.003098 87.749039,159.002319 86.739502,158.745148 
	C79.985466,156.326843 73.491776,154.164948 66.685883,151.859070 
	C58.618580,146.830048 50.541798,142.378418 43.203362,136.931961 
	C36.534145,131.982193 30.314554,126.247543 27.175247,118.103317 
	C27.118668,117.011070 27.062086,115.918816 27.440166,114.414787 
	C28.915035,114.003632 29.955244,114.004257 30.996487,114.378967 
	C30.999304,115.501518 31.001087,116.249969 31.009775,117.362549 
	C34.006092,121.482224 36.701389,125.533501 40.081959,128.895767 
	C42.593758,131.393967 45.994297,132.998581 48.999489,135.000610 
	C49.000000,135.000000 48.998779,135.001221 49.064621,135.337021 
	C56.362991,141.366684 63.214153,147.588379 72.222916,150.609528 
	C80.827705,153.495224 89.135780,157.185684 98.547104,157.070724 
	C110.187645,156.928513 121.118736,153.844452 131.815598,149.765579 
	C133.853806,148.988373 135.289429,146.630859 137.252289,145.001831 
	C137.501495,145.001221 138.000000,145.000000 138.368073,144.991669 
	C144.963150,141.015152 151.251785,137.138046 157.365189,133.001923 
	C158.587067,132.175247 159.140411,130.360413 160.211609,128.740723 
	C161.592590,127.364235 162.702942,126.174339 163.947174,125.146553 
	C167.283295,122.390800 170.676743,119.704453 174.047424,116.990540 
z"/>
<path fill="#242BBA" opacity="1.000000" stroke="none" 
	d="
M27.125010,118.560013 
	C30.314554,126.247543 36.534145,131.982193 43.203362,136.931961 
	C50.541798,142.378418 58.618580,146.830048 66.760269,152.198517 
	C70.964020,154.807144 74.611748,157.391159 78.661438,158.886795 
	C81.119720,159.794708 84.199348,159.020233 86.999840,159.001541 
	C87.749039,159.002319 88.498245,159.003098 89.698692,159.347015 
	C91.996254,160.662720 93.966911,162.648422 95.668236,162.439636 
	C105.085495,161.283844 114.577972,160.165939 123.766548,157.904831 
	C131.050995,156.112289 137.935486,152.694366 144.997559,149.998169 
	C140.150467,152.899063 135.319229,155.826965 130.448135,158.686951 
	C128.610764,159.765778 126.674141,160.674484 124.797890,161.688721 
	C124.219398,162.001450 123.494598,162.848969 123.168694,162.704239 
	C116.989731,159.960205 111.971733,165.511520 106.127220,165.009811 
	C97.146706,164.238937 88.132355,163.758087 79.196373,162.641754 
	C76.794975,162.341766 74.709892,159.995438 72.323524,158.942078 
	C70.266731,158.034180 67.987892,157.629303 65.069199,157.002258 
	C63.887440,157.003006 63.443699,157.003540 62.837463,156.700684 
	C59.561749,154.105377 56.515690,151.713211 53.307121,149.563644 
	C51.691071,148.480972 49.780128,147.838486 47.947308,146.681610 
	C46.927845,145.577728 45.963615,144.789169 44.729774,143.865067 
	C43.640408,143.152817 42.820648,142.576096 41.955627,141.663803 
	C40.940044,140.552353 39.969719,139.776474 38.710781,138.849991 
	C37.281857,138.132507 36.141541,137.565643 34.926247,136.648712 
	C33.874577,134.493423 32.872913,132.701141 31.927038,130.879898 
	C30.516054,128.163101 29.230436,128.115341 28.016575,131.456543 
	C28.284964,135.712036 28.558620,139.518646 28.832275,143.325241 
	C28.193665,141.187729 27.082594,139.066788 27.006950,136.909531 
	C26.798100,130.953369 27.021997,124.982033 27.125010,118.560013 
z"/>
<path fill="#282FCB" opacity="1.000000" stroke="none" 
	d="
M62.999962,157.004059 
	C63.443699,157.003540 63.887440,157.003006 64.663910,157.003387 
	C64.508438,162.517670 67.783875,162.529022 71.838440,161.141357 
	C73.287186,165.133270 74.959572,168.140457 79.709251,165.300873 
	C80.467751,164.847397 82.342552,166.371994 83.743607,166.860855 
	C87.458710,168.157166 90.727486,171.390854 95.333794,168.675781 
	C96.500214,167.988266 98.936646,169.805359 100.826302,169.934967 
	C109.496513,170.529648 117.628510,168.178558 125.659439,165.201874 
	C130.692780,163.336243 135.847260,161.797440 141.786560,159.834671 
	C140.986404,161.504883 140.548920,162.418060 140.052063,163.643478 
	C139.559326,164.297348 139.125977,164.638977 138.082794,165.034729 
	C137.004654,165.487625 136.536331,165.886414 136.068008,166.285202 
	C134.610535,167.192657 133.153061,168.100113 131.168106,168.811981 
	C129.112839,169.775543 127.585037,170.934708 126.057236,172.093887 
	C126.057243,172.093887 125.996506,172.033112 125.727798,172.058716 
	C124.988815,172.437302 124.518539,172.790283 124.048264,173.143265 
	C124.048264,173.143265 124.033707,173.063156 123.841225,173.152069 
	C123.354591,173.418701 123.136742,173.664139 122.995178,173.977295 
	C121.236427,175.023575 119.477669,176.069855 117.290451,176.730164 
	C115.024269,175.797134 113.153381,174.691071 111.354469,174.797836 
	C102.661674,175.313705 93.767860,177.849579 85.439140,170.349442 
	C85.243507,172.894196 85.124649,174.440353 84.700073,175.819427 
	C81.143951,174.140076 77.893532,172.627792 74.643112,171.115494 
	C74.272392,171.020889 73.901680,170.926285 73.201790,170.377060 
	C69.911972,168.284210 66.951324,166.645981 63.990677,165.007751 
	C63.687996,164.997391 63.414989,164.902039 62.912655,164.244370 
	C62.071255,163.540527 61.488853,163.314026 60.906456,163.087524 
	C60.906460,163.087524 60.981361,163.031967 60.828079,162.817505 
	C60.116039,162.068985 59.557274,161.534943 59.062027,160.675873 
	C60.417023,159.235260 61.708496,158.119659 62.999962,157.004059 
z"/>
<path fill="#161A6A" opacity="1.000000" stroke="none" 
	d="
M90.136856,134.707382 
	C89.593163,135.003830 88.923973,135.674606 88.524559,135.540710 
	C82.325226,133.462326 76.106659,131.417480 70.025536,129.026611 
	C68.456749,128.409821 67.345215,126.629997 66.429543,124.949020 
	C58.214394,123.484581 53.797981,116.687416 49.020863,110.793648 
	C37.537876,96.626480 37.418381,79.653801 38.037525,62.615074 
	C38.066750,61.810818 38.151184,60.837841 38.605484,60.248249 
	C41.033409,57.097290 39.384449,55.476349 36.193130,54.053825 
	C37.963467,52.566414 40.062325,51.246124 42.806896,50.204483 
	C43.477612,53.259800 43.542080,56.036762 43.520531,58.813065 
	C43.441639,68.977478 42.528702,79.215485 43.451626,89.286316 
	C44.486652,100.580444 53.298523,108.152092 59.557648,116.803253 
	C60.799446,118.519630 63.785091,118.974335 66.094559,120.219543 
	C66.439758,120.679794 66.700371,120.872757 67.311790,121.155136 
	C75.125099,125.771225 82.630981,130.239304 90.136856,134.707382 
z"/>
<path fill="#191E82" opacity="1.000000" stroke="none" 
	d="
M27.978085,60.302635 
	C29.377638,59.494160 30.727671,58.983105 32.562229,58.288635 
	C32.366657,62.571136 32.333916,66.585709 31.971127,70.570229 
	C31.122631,79.889290 33.702301,88.418739 36.728233,97.139030 
	C42.578327,113.998116 54.613480,124.938271 69.548759,133.101669 
	C76.515282,136.909470 84.242348,139.325821 91.812744,143.062653 
	C92.000374,144.501419 91.999939,145.250412 91.594452,145.985703 
	C85.841721,145.400070 81.355972,142.865128 76.556465,140.570480 
	C67.339500,136.163818 58.599876,131.233917 51.085934,124.370399 
	C40.023693,114.265762 30.942005,103.010056 30.906197,86.854156 
	C30.900858,84.445946 31.119671,81.159454 27.112423,81.016655 
	C27.073887,75.986183 27.035353,70.955704 27.258797,65.216049 
	C27.636532,63.605721 27.752289,62.704571 27.868046,61.803417 
	C27.888218,61.402298 27.908388,61.001175 27.978085,60.302635 
z"/>
<path fill="#0E1147" opacity="1.000000" stroke="none" 
	d="
M67.004372,121.007133 
	C66.700371,120.872757 66.439758,120.679794 66.105728,119.843185 
	C65.991119,118.505768 65.993309,117.753380 65.998611,116.584633 
	C65.998260,114.780388 65.994804,113.392502 65.994102,111.604279 
	C65.995178,110.136604 65.993507,109.069267 65.983070,107.644028 
	C63.983055,105.523773 61.991806,103.761429 60.000290,101.749390 
	C60.000019,101.499695 59.999107,101.000305 59.951553,100.640320 
	C58.603123,98.186310 57.302246,96.092285 56.001297,93.623512 
	C56.000340,92.499260 55.999458,91.749763 55.986198,90.596893 
	C55.321003,82.013329 53.846527,73.789276 54.280163,65.667091 
	C54.615887,59.378796 57.338966,53.217953 59.209530,46.879860 
	C59.678787,46.557632 59.872993,46.305038 60.340195,45.928768 
	C62.118835,42.900188 63.558197,39.944317 64.997559,36.988449 
	C72.421982,32.683609 79.846397,28.378767 87.649368,24.404764 
	C89.351852,25.311213 90.702515,26.420103 91.994347,26.355337 
	C95.011696,26.204058 98.000778,25.489044 100.946159,25.307474 
	C96.817741,27.089993 92.773979,28.655788 88.665337,30.027208 
	C78.728111,33.344151 69.898483,38.070377 65.000786,48.250519 
	C65.000351,48.500244 64.999695,48.999695 64.648270,49.051033 
	C63.736900,49.436302 62.959221,49.632744 62.648857,50.124268 
	C54.742908,62.644871 54.880608,85.240517 62.666050,97.844398 
	C63.370144,98.984261 65.408287,99.300064 66.901680,100.461868 
	C66.985764,107.619171 66.995071,114.313156 67.004372,121.007133 
z"/>
<path fill="#0F114A" opacity="1.000000" stroke="none" 
	d="
M137.007904,36.981190 
	C139.532242,38.143925 142.056610,39.306656 144.791550,40.985115 
	C145.001907,41.667934 145.001663,41.835033 144.657120,42.044930 
	C141.026398,42.834797 140.851944,44.444519 142.672760,47.040363 
	C144.496582,49.640469 146.462143,52.296139 147.553665,55.229565 
	C154.264236,73.264328 152.279358,89.994629 139.593506,105.007759 
	C138.716232,106.045967 138.516602,107.656776 138.001205,109.439186 
	C138.003906,111.920815 138.007217,113.964554 138.005493,116.004494 
	C138.000458,116.000694 138.001923,116.002411 137.697708,116.001244 
	C136.989090,115.998466 136.584671,115.996857 136.106598,115.537186 
	C136.081055,111.046165 136.129166,107.013222 136.387894,102.740723 
	C136.735397,101.668449 136.872269,100.835739 137.356842,99.951447 
	C138.718353,98.873924 140.054626,98.017548 140.696854,96.796219 
	C148.483658,81.987808 149.757599,66.848755 142.151031,51.608967 
	C140.861847,49.026062 138.087936,47.184223 135.999695,44.750519 
	C135.999390,44.501034 135.998779,44.002068 135.855225,43.678036 
	C136.143753,41.229733 136.575821,39.105461 137.007904,36.981190 
z"/>
<path fill="#161B74" opacity="1.000000" stroke="none" 
	d="
M164.010406,52.924404 
	C166.306808,54.013786 168.603195,55.103172 170.754669,56.732449 
	C170.403595,57.848232 170.197433,58.424122 169.787842,59.156715 
	C169.720718,59.875652 169.857010,60.437885 169.994354,61.333244 
	C169.996124,62.110554 169.996841,62.554733 169.665939,63.007004 
	C166.636902,64.226624 166.687515,64.529617 170.000061,67.460892 
	C170.000290,71.614189 170.000458,75.306877 169.965057,79.316811 
	C169.956024,80.757118 169.982544,81.880180 170.007965,83.336029 
	C170.004578,84.112549 170.002289,84.556274 169.645477,85.087891 
	C167.194168,90.784058 165.097397,96.392334 163.000000,102.375320 
	C162.997971,103.499413 162.996536,104.248787 162.651886,105.046974 
	C157.872650,110.397392 153.436630,115.698997 148.791901,121.121414 
	C148.322693,121.443939 148.128296,121.696533 147.599854,121.999832 
	C146.132523,121.999374 145.065353,121.999077 144.155334,121.701309 
	C145.685547,119.784744 147.131332,118.221298 148.419678,116.537407 
	C156.048019,106.566986 165.276566,97.279305 162.998825,82.666061 
	C163.000061,81.888565 163.000641,81.444283 163.335388,80.791451 
	C165.881363,76.118202 165.536423,68.521019 163.007355,65.598068 
	C163.004089,64.132652 163.000824,63.066898 162.998383,61.573540 
	C163.336273,58.405430 163.673340,55.664917 164.010406,52.924404 
z"/>
<path fill="#1B208C" opacity="1.000000" stroke="none" 
	d="
M27.072468,81.480629 
	C31.119671,81.159454 30.900858,84.445946 30.906197,86.854156 
	C30.942005,103.010056 40.023693,114.265762 51.085934,124.370399 
	C58.599876,131.233917 67.339500,136.163818 76.556465,140.570480 
	C81.355972,142.865128 85.841721,145.400070 91.708359,146.241547 
	C92.485115,147.007797 92.742905,147.504517 93.000694,148.001221 
	C89.850563,147.645050 86.449631,147.933334 83.593445,146.821823 
	C70.796234,141.841675 58.774925,135.652695 48.373119,126.240814 
	C42.968643,121.350670 38.483288,116.104561 35.008049,109.889130 
	C33.342361,106.910072 32.375267,103.547607 30.838867,100.485695 
	C30.179699,99.172020 28.876797,98.181358 27.500126,97.031219 
	C27.100092,91.993866 27.066303,86.969231 27.072468,81.480629 
z"/>
<path fill="#262EC2" opacity="1.000000" stroke="none" 
	d="
M62.837467,156.700668 
	C61.708496,158.119659 60.417023,159.235260 58.725273,160.674805 
	C57.875931,161.005081 57.426868,161.011429 56.977802,161.017792 
	C56.977802,161.017776 56.996986,160.997650 56.829666,160.778198 
	C56.318020,160.409592 55.973701,160.260437 55.629379,160.111267 
	C55.629379,160.111267 55.291611,160.124863 54.981537,159.828766 
	C54.344326,159.386597 54.017189,159.240540 53.690052,159.094467 
	C53.690052,159.094467 53.321495,159.064285 53.084335,158.648285 
	C51.890415,157.824860 50.933651,157.417435 49.976891,157.010010 
	C49.675148,157.002350 49.405842,156.904968 48.932343,156.188919 
	C46.997017,154.826004 45.298313,153.992050 43.599609,153.158112 
	C42.857124,152.893433 42.114639,152.628754 41.030289,151.926575 
	C40.379681,151.350769 40.070938,151.212479 39.762199,151.074188 
	C39.762199,151.074188 39.356316,151.013397 39.096233,150.597137 
	C38.104263,149.835770 37.372375,149.490631 36.640488,149.145508 
	C36.640488,149.145508 36.296597,149.118423 36.080173,148.701233 
	C33.593464,146.854568 31.323174,145.425095 29.052883,143.995621 
	C29.052883,143.995621 28.878571,143.679749 28.855423,143.502502 
	C28.558620,139.518646 28.284964,135.712036 28.371349,131.546509 
	C30.713795,133.240677 29.862074,138.351578 35.001228,136.998779 
	C36.141541,137.565643 37.281857,138.132507 38.755978,139.185577 
	C40.060150,140.447662 41.030521,141.223526 42.000893,141.999390 
	C42.820648,142.576096 43.640408,143.152817 44.742966,144.230316 
	C46.018024,145.486374 47.010281,146.241669 48.002541,146.996948 
	C49.780128,147.838486 51.691071,148.480972 53.307121,149.563644 
	C56.515690,151.713211 59.561749,154.105377 62.837467,156.700668 
z"/>
<path fill="#1B208B" opacity="1.000000" stroke="none" 
	d="
M170.000000,85.000000 
	C170.002289,84.556274 170.004578,84.112549 170.318909,83.280647 
	C171.086670,82.261841 171.542374,81.631210 172.061798,80.673706 
	C172.818146,79.878288 173.510757,79.409729 174.203369,78.941177 
	C174.492432,83.984688 174.781494,89.028206 174.790985,94.536194 
	C174.340088,95.000854 174.168716,95.001038 173.997330,95.001221 
	C173.349335,95.641541 172.255463,96.199203 172.119171,96.934395 
	C169.383499,111.690659 160.384567,121.811455 148.635330,130.389420 
	C141.477600,135.615189 134.465607,140.725159 125.431076,142.630356 
	C126.076836,141.237579 126.862320,139.667084 128.063644,139.224014 
	C140.679977,134.570847 149.905975,125.347748 159.127548,116.195854 
	C160.976974,114.360397 161.736252,111.426491 162.999084,108.999527 
	C163.000000,109.000000 163.000610,109.000305 163.351303,108.951263 
	C164.801331,107.268242 165.900665,105.634270 167.243362,103.777496 
	C167.659042,102.703323 167.831360,101.851944 168.315323,100.945633 
	C169.083069,100.259956 169.539169,99.629211 169.996201,98.581871 
	C169.997284,96.776512 169.997421,95.387764 169.998489,93.666077 
	C170.000427,92.889252 170.001434,92.445343 170.281509,91.961601 
	C170.706146,91.281265 170.851715,90.640778 170.949402,89.637299 
	C170.600998,87.849541 170.300491,86.424774 170.000000,85.000000 
z"/>
<path fill="#111458" opacity="1.000000" stroke="none" 
	d="
M65.991348,112.004623 
	C65.994804,113.392502 65.998260,114.780388 65.656281,116.538635 
	C63.893024,115.791023 62.261066,114.860580 61.091549,113.525146 
	C52.399479,103.599945 46.043961,92.289131 44.312325,79.179420 
	C43.501152,73.038292 42.774784,66.533546 46.076912,60.176311 
	C48.215168,56.059761 48.107929,50.776829 49.006874,46.016544 
	C50.437386,45.356842 51.867901,44.697140 53.647110,44.411701 
	C53.721718,46.728123 53.930424,48.914669 53.091930,50.571125 
	C48.940487,58.772400 47.449043,67.361893 47.939899,76.509529 
	C48.514561,87.219063 51.750977,96.838486 58.639435,105.066505 
	C60.787617,107.632423 63.524151,109.705780 65.991348,112.004623 
z"/>
<path fill="#131660" opacity="1.000000" stroke="none" 
	d="
M48.667122,46.054901 
	C48.107929,50.776829 48.215168,56.059761 46.076912,60.176311 
	C42.774784,66.533546 43.501152,73.038292 44.312325,79.179420 
	C46.043961,92.289131 52.399479,103.599945 61.091549,113.525146 
	C62.261066,114.860580 63.893024,115.791023 65.653168,116.955002 
	C65.993309,117.753380 65.991119,118.505768 65.977753,119.634499 
	C63.785091,118.974335 60.799446,118.519630 59.557648,116.803253 
	C53.298523,108.152092 44.486652,100.580444 43.451626,89.286316 
	C42.528702,79.215485 43.441639,68.977478 43.520531,58.813065 
	C43.542080,56.036762 43.477612,53.259800 43.171165,50.169846 
	C44.702271,48.602119 46.514820,47.347691 48.667122,46.054901 
z"/>
<path fill="#101251" opacity="1.000000" stroke="none" 
	d="
M65.994102,111.604279 
	C63.524151,109.705780 60.787617,107.632423 58.639435,105.066505 
	C51.750977,96.838486 48.514561,87.219063 47.939899,76.509529 
	C47.449043,67.361893 48.940487,58.772400 53.091930,50.571125 
	C53.930424,48.914669 53.721718,46.728123 53.992424,44.358627 
	C55.413845,42.949081 56.838642,41.966881 58.677734,41.344883 
	C59.394989,43.137218 59.697952,44.569347 60.000916,46.001476 
	C59.872993,46.305038 59.678787,46.557632 58.840027,46.940155 
	C56.812897,50.475548 55.444508,53.867634 53.899082,57.177044 
	C50.221344,65.052650 50.499722,73.438873 51.346363,81.672821 
	C51.678936,84.907219 54.377491,87.898346 55.998573,91.000259 
	C55.999458,91.749763 56.000340,92.499260 56.009769,93.996506 
	C57.345245,96.829597 58.672176,98.914955 59.999107,101.000305 
	C59.999107,101.000305 60.000019,101.499695 60.045212,102.091209 
	C62.057549,104.455788 64.024696,106.228859 65.991837,108.001930 
	C65.993507,109.069267 65.995178,110.136604 65.994102,111.604279 
z"/>
<path fill="#11155C" opacity="1.000000" stroke="none" 
	d="
M153.102875,46.926090 
	C154.303497,47.410580 155.504105,47.895069 156.569397,48.850403 
	C156.308685,51.114822 155.772659,52.996395 156.134613,54.685535 
	C157.237030,59.829952 159.401993,64.837868 159.851913,70.012093 
	C160.813354,81.068993 156.638245,91.291847 152.157715,100.979591 
	C149.975708,105.697472 144.813675,109.037094 141.044830,112.649872 
	C142.707520,110.051384 144.286789,107.774010 145.956207,105.564751 
	C147.439758,103.601471 149.610321,101.944061 150.468918,99.755852 
	C156.810013,83.594681 158.643738,67.239868 151.946289,50.614906 
	C151.573944,49.690617 152.683228,48.169441 153.102875,46.926090 
z"/>
<path fill="#2A31D5" opacity="1.000000" stroke="none" 
	d="
M85.005783,175.986496 
	C85.124649,174.440353 85.243507,172.894196 85.439140,170.349442 
	C93.767860,177.849579 102.661674,175.313705 111.354469,174.797836 
	C113.153381,174.691071 115.024269,175.797134 116.936066,176.702484 
	C115.308014,178.066925 113.605881,179.073090 111.228394,180.115784 
	C110.043976,180.780396 109.534912,181.408432 109.025848,182.036469 
	C109.025841,182.036469 108.997849,182.002930 108.705841,182.028961 
	C107.942268,182.412445 107.470718,182.769897 106.999161,183.127350 
	C106.999161,183.127350 106.764061,183.285614 106.210350,183.237366 
	C103.444641,183.748337 101.232643,184.307541 99.020645,184.866730 
	C98.465828,184.746704 97.911018,184.626663 97.047684,184.061096 
	C96.443932,183.457581 96.148697,183.299576 95.853462,183.141586 
	C95.853462,183.141586 95.953888,183.161606 95.793488,182.838409 
	C94.588188,182.109680 93.543282,181.704132 92.498367,181.298584 
	C92.498367,181.298599 92.222198,181.326706 91.964409,180.925934 
	C90.079468,179.740479 88.452316,178.955811 86.825165,178.171143 
	C86.825165,178.171143 86.908813,178.063278 86.818481,177.834122 
	C86.154030,177.065475 85.579903,176.525986 85.005783,175.986496 
z"/>
<path fill="#131762" opacity="1.000000" stroke="none" 
	d="
M141.000610,113.000610 
	C144.813675,109.037094 149.975708,105.697472 152.157715,100.979591 
	C156.638245,91.291847 160.813354,81.068993 159.851913,70.012093 
	C159.401993,64.837868 157.237030,59.829952 156.134613,54.685535 
	C155.772659,52.996395 156.308685,51.114822 156.744873,49.139057 
	C157.594406,49.114315 158.133118,49.271763 158.845337,50.078457 
	C159.899155,54.642891 158.369690,59.408562 162.997559,62.001141 
	C163.000824,63.066898 163.004089,64.132652 162.733917,65.909393 
	C162.640717,71.413582 162.820969,76.206787 163.001221,81.000000 
	C163.000641,81.444283 163.000061,81.888565 162.643692,82.756218 
	C162.024719,83.371735 161.635162,83.505959 161.516708,83.764427 
	C157.746567,91.991493 154.315063,100.394005 150.126297,108.400612 
	C147.952545,112.555626 144.933609,116.740631 139.041931,115.686768 
	C139.717499,114.579407 140.359055,113.790009 141.000610,113.000610 
z"/>
<path fill="#111456" opacity="1.000000" stroke="none" 
	d="
M141.044830,112.649864 
	C140.359055,113.790009 139.717499,114.579407 138.792542,115.687943 
	C138.509125,116.007080 138.010529,116.008293 138.010529,116.008293 
	C138.007217,113.964554 138.003906,111.920815 138.343445,109.393433 
	C145.849121,104.213638 149.299149,97.355232 151.623215,89.224937 
	C155.273605,76.454849 154.623322,64.159477 149.922028,51.959518 
	C148.596313,48.519199 146.658493,45.314758 145.001419,42.002132 
	C145.001663,41.835033 145.001907,41.667934 145.001068,41.250191 
	C147.634094,42.756226 150.268188,44.512913 153.002579,46.597847 
	C152.683228,48.169441 151.573944,49.690617 151.946289,50.614906 
	C158.643738,67.239868 156.810013,83.594681 150.468918,99.755852 
	C149.610321,101.944061 147.439758,103.601471 145.956207,105.564751 
	C144.286789,107.774010 142.707520,110.051384 141.044830,112.649864 
z"/>
<path fill="#0E1147" opacity="1.000000" stroke="none" 
	d="
M136.843231,36.680637 
	C136.575821,39.105461 136.143753,41.229733 135.508881,43.672066 
	C134.204056,43.326653 133.102036,42.663181 131.953735,41.655006 
	C130.595108,39.867825 129.552811,37.853413 127.922775,37.083721 
	C121.499840,34.050854 114.847572,31.506899 108.383919,28.554874 
	C106.726913,27.798100 105.449043,26.211178 104.372314,25.004301 
	C105.498299,25.002298 106.248947,25.001631 107.090965,25.357908 
	C109.871246,26.660200 112.514496,27.825514 115.280464,28.399721 
	C115.991943,28.547422 117.089844,26.833687 118.010231,25.975079 
	C124.233017,29.443413 130.455795,32.911751 136.843231,36.680637 
z"/>
<path fill="#10124E" opacity="1.000000" stroke="none" 
	d="
M106.999603,25.000965 
	C106.248947,25.001631 105.498299,25.002298 103.997910,25.002998 
	C102.499214,25.002804 101.750267,25.002577 101.001312,25.002350 
	C98.000778,25.489044 95.011696,26.204058 91.994347,26.355337 
	C90.702515,26.420103 89.351852,25.311213 88.006256,24.354017 
	C90.339417,22.182383 92.563538,20.177317 95.077538,18.649132 
	C99.652512,15.868144 104.169418,16.260153 108.681290,20.204288 
	C108.331421,22.164021 107.665512,23.582491 106.999603,25.000965 
z"/>
<path fill="#1E259F" opacity="1.000000" stroke="none" 
	d="
M174.088684,116.534775 
	C170.676743,119.704453 167.283295,122.390800 163.947174,125.146553 
	C162.702942,126.174339 161.592590,127.364235 159.836182,128.740356 
	C158.500366,128.999924 157.749573,128.999359 156.998779,128.998779 
	C159.291687,126.519104 161.891037,124.252693 163.801788,121.507065 
	C166.325958,117.880020 168.276123,113.856964 170.545258,110.047150 
	C171.358673,108.681442 172.381989,107.440765 173.658020,106.070900 
	C174.047668,109.358856 174.088806,112.718925 174.088684,116.534775 
z"/>
<path fill="#1B1F84" opacity="1.000000" stroke="none" 
	d="
M174.219650,78.491859 
	C173.510757,79.409729 172.818146,79.878288 171.830109,80.506760 
	C171.023331,80.110970 170.511978,79.555267 170.000610,78.999565 
	C170.000458,75.306877 170.000290,71.614189 170.241013,67.235352 
	C170.320450,65.365776 170.158997,64.182343 169.997559,62.998909 
	C169.996841,62.554733 169.996124,62.110554 170.200409,61.177410 
	C170.267349,60.125633 170.129303,59.562824 169.991272,59.000015 
	C170.197433,58.424122 170.403595,57.848232 170.845840,57.062508 
	C171.081924,56.852669 171.076111,56.906334 171.178131,57.152931 
	C171.567657,57.583618 171.855148,57.767704 172.142639,57.951790 
	C176.103287,60.113190 175.030884,63.883583 174.967758,67.223335 
	C174.899521,70.833061 174.494217,74.436417 174.219650,78.491859 
z"/>
<path fill="#2229B4" opacity="1.000000" stroke="none" 
	d="
M160.994965,135.994507 
	C162.458038,134.060318 163.740341,131.948303 165.426849,130.233887 
	C167.917267,127.702225 170.695145,125.453354 173.700027,123.038445 
	C174.081879,124.710152 174.114319,126.427483 174.088074,128.570297 
	C169.055664,128.864014 168.614075,133.116440 166.620270,136.612762 
	C164.482758,136.649811 162.738861,136.322159 160.994965,135.994507 
z"/>
<path fill="#0F114A" opacity="1.000000" stroke="none" 
	d="
M107.090965,25.357906 
	C107.665512,23.582491 108.331421,22.164021 108.997444,20.378292 
	C111.861229,21.828695 114.724892,23.646353 117.799393,25.719543 
	C117.089844,26.833687 115.991943,28.547422 115.280464,28.399721 
	C112.514496,27.825514 109.871246,26.660200 107.090965,25.357906 
z"/>
<path fill="#151A69" opacity="1.000000" stroke="none" 
	d="
M162.998383,61.573540 
	C158.369690,59.408562 159.899155,54.642891 159.035828,50.290321 
	C160.572998,50.709599 162.093185,51.566257 163.811890,52.673660 
	C163.673340,55.664917 163.336273,58.405430 162.998383,61.573540 
z"/>
<path fill="#10124E" opacity="1.000000" stroke="none" 
	d="
M60.340195,45.928768 
	C59.697952,44.569347 59.394989,43.137218 59.042351,41.338913 
	C60.765865,39.674706 62.539059,38.376678 64.654907,37.033546 
	C63.558197,39.944317 62.118835,42.900188 60.340195,45.928768 
z"/>
<path fill="#1F25A3" opacity="1.000000" stroke="none" 
	d="
M30.995453,114.004883 
	C29.955244,114.004257 28.915035,114.003632 27.486195,114.005829 
	C27.061153,111.966591 27.024740,109.924530 27.029732,107.446915 
	C30.327211,106.567398 31.343203,108.234550 31.000776,111.923935 
	C30.998718,113.112534 30.997086,113.558708 30.995453,114.004883 
z"/>
<path fill="#242BBA" opacity="1.000000" stroke="none" 
	d="
M84.700073,175.819427 
	C85.579903,176.525986 86.154030,177.065475 86.803719,177.900757 
	C82.911263,176.041489 78.943237,173.886414 74.809158,171.423431 
	C77.893532,172.627792 81.143951,174.140076 84.700073,175.819427 
z"/>
<path fill="#242BBA" opacity="1.000000" stroke="none" 
	d="
M64.164505,165.292191 
	C66.951324,166.645981 69.911972,168.284210 72.957939,170.222534 
	C70.141617,168.873962 67.239975,167.225296 64.164505,165.292191 
z"/>
<path fill="#242BBA" opacity="1.000000" stroke="none" 
	d="
M29.107265,144.329193 
	C31.323174,145.425095 33.593464,146.854568 35.932041,148.612885 
	C33.720772,147.515396 31.441208,146.089096 29.107265,144.329193 
z"/>
<path fill="#262EC2" opacity="1.000000" stroke="none" 
	d="
M126.389969,172.045349 
	C127.585037,170.934708 129.112839,169.775543 130.842529,168.853699 
	C129.603836,170.059616 128.163269,171.028198 126.389969,172.045349 
z"/>
<path fill="#242BBA" opacity="1.000000" stroke="none" 
	d="
M43.783970,153.457382 
	C45.298313,153.992050 46.997017,154.826004 48.798203,156.017380 
	C47.256569,155.502090 45.612450,154.629379 43.783970,153.457382 
z"/>
<path fill="#242BBA" opacity="1.000000" stroke="none" 
	d="
M86.953033,178.483292 
	C88.452316,178.955811 90.079468,179.740479 91.849579,180.847961 
	C90.355316,180.378998 88.718102,179.587219 86.953033,178.483292 
z"/>
<path fill="#242BBA" opacity="1.000000" stroke="none" 
	d="
M99.428284,184.967682 
	C101.232643,184.307541 103.444641,183.748337 106.068802,183.230545 
	C104.265953,183.870850 102.050934,184.469727 99.428284,184.967682 
z"/>
<path fill="#242BBA" opacity="1.000000" stroke="none" 
	d="
M92.676857,181.591110 
	C93.543282,181.704132 94.588188,182.109680 95.746994,182.859833 
	C94.859039,182.764191 93.857185,182.323914 92.676857,181.591110 
z"/>
<path fill="#242BBA" opacity="1.000000" stroke="none" 
	d="
M57.153091,161.303787 
	C57.426868,161.011429 57.875931,161.005081 58.661751,160.999817 
	C59.557274,161.534943 60.116039,162.068985 60.813114,162.861664 
	C59.743744,162.610123 58.536064,162.099945 57.153091,161.303787 
z"/>
<path fill="#242BBA" opacity="1.000000" stroke="none" 
	d="
M50.138535,157.276001 
	C50.933651,157.417435 51.890415,157.824860 52.924202,158.555847 
	C52.100883,158.433624 51.200531,157.987808 50.138535,157.276001 
z"/>
<path fill="#242BBA" opacity="1.000000" stroke="none" 
	d="
M36.792839,149.415878 
	C37.372375,149.490631 38.104263,149.835770 38.919266,150.493256 
	C38.316650,150.432495 37.630924,150.059372 36.792839,149.415878 
z"/>
<path fill="#242BBA" opacity="1.000000" stroke="none" 
	d="
M109.341423,181.997437 
	C109.534912,181.408432 110.043976,180.780396 110.890167,180.135925 
	C110.703873,180.732483 110.180435,181.345459 109.341423,181.997437 
z"/>
<path fill="#181C75" opacity="1.000000" stroke="none" 
	d="
M27.642326,62.062881 
	C27.752289,62.704571 27.636532,63.605721 27.278809,64.748901 
	C27.163431,64.101395 27.290020,63.211868 27.642326,62.062881 
z"/>
<path fill="#242BBA" opacity="1.000000" stroke="none" 
	d="
M107.304893,183.104462 
	C107.470718,182.769897 107.942268,182.412445 108.722595,182.041565 
	C108.557777,182.379303 108.084198,182.730438 107.304893,183.104462 
z"/>
<path fill="#242BBA" opacity="1.000000" stroke="none" 
	d="
M61.072411,163.345963 
	C61.488853,163.314026 62.071255,163.540527 62.771931,164.075897 
	C62.339596,164.124634 61.788982,163.864502 61.072411,163.345963 
z"/>
<path fill="#262EC2" opacity="1.000000" stroke="none" 
	d="
M136.372009,166.220749 
	C136.536331,165.886414 137.004654,165.487625 137.800079,165.071167 
	C137.643463,165.421097 137.159729,165.788696 136.372009,166.220749 
z"/>
<path fill="#262EC2" opacity="1.000000" stroke="none" 
	d="
M124.352386,173.121979 
	C124.518539,172.790283 124.988815,172.437302 125.768745,172.071716 
	C125.604439,172.406296 125.130486,172.753494 124.352386,173.121979 
z"/>
<path fill="#242BBA" opacity="1.000000" stroke="none" 
	d="
M95.958015,183.378815 
	C96.148697,183.299576 96.443932,183.457581 96.855583,183.844696 
	C96.668854,183.921249 96.365715,183.768646 95.958015,183.378815 
z"/>
<path fill="#262EC2" opacity="1.000000" stroke="none" 
	d="
M123.242462,173.909668 
	C123.136742,173.664139 123.354591,173.418701 123.881912,173.150665 
	C123.906631,173.320923 123.698189,173.581497 123.242462,173.909668 
z"/>
<path fill="#181D7C" opacity="1.000000" stroke="none" 
	d="
M172.004517,57.735115 
	C171.855148,57.767704 171.567657,57.583618 171.157745,57.170616 
	C171.312363,57.133949 171.589386,57.326195 172.004517,57.735115 
z"/>
<path fill="#1B1F84" opacity="1.000000" stroke="none" 
	d="
M174.120102,95.211502 
	C174.168716,95.001038 174.340088,95.000854 174.768738,95.001526 
	C175.036026,95.168770 175.046021,95.335167 175.035751,95.750793 
	C174.705139,95.877838 174.447601,95.685089 174.120102,95.211502 
z"/>
<path fill="#242BBA" opacity="1.000000" stroke="none" 
	d="
M55.802357,160.336288 
	C55.973701,160.260437 56.318020,160.409592 56.826599,160.790955 
	C56.652348,160.869217 56.313843,160.715256 55.802357,160.336288 
z"/>
<path fill="#242BBA" opacity="1.000000" stroke="none" 
	d="
M53.855278,159.310715 
	C54.017189,159.240540 54.344326,159.386597 54.831108,159.751694 
	C54.667336,159.822815 54.343918,159.674896 53.855278,159.310715 
z"/>
<path fill="#191E82" opacity="1.000000" stroke="none" 
	d="
M27.033314,104.249268 
	C27.199543,104.171944 27.352686,104.332603 27.452038,104.521538 
	C27.481453,104.577469 27.359274,104.713127 27.164715,104.905945 
	C27.015133,104.832451 27.007397,104.665260 27.033314,104.249268 
z"/>
<path fill="#242BBA" opacity="1.000000" stroke="none" 
	d="
M39.918240,151.282715 
	C40.070938,151.212479 40.379681,151.350769 40.851807,151.685242 
	C40.701553,151.751358 40.387917,151.621292 39.918240,151.282715 
z"/>
<path fill="#F9F9FB" opacity="1.000000" stroke="none" 
	d="
M136.177261,102.980278 
	C136.129166,107.013222 136.081055,111.046165 136.028076,115.948799 
	C136.007919,118.210274 135.992615,119.602051 135.670731,121.147659 
	C132.472733,123.092575 129.581345,124.883682 126.689949,126.674789 
	C126.689949,126.674789 126.851715,126.790703 126.577621,126.740799 
	C126.019974,126.800461 125.795494,126.982758 125.630074,127.237770 
	C125.630074,127.237770 125.376457,127.238724 124.984978,127.451981 
	C120.677780,130.009201 116.762062,132.353165 112.846344,134.697128 
	C112.309448,134.912476 111.772560,135.127823 110.797897,135.641815 
	C109.895683,136.288773 109.431229,136.637085 108.966774,136.985382 
	C108.966774,136.985382 108.994583,137.007034 108.719833,137.010956 
	C108.190163,137.258087 107.935242,137.501312 107.680313,137.744537 
	C107.680305,137.744537 107.820267,137.780289 107.505165,137.784637 
	C106.702118,138.159149 106.214172,138.529327 105.726227,138.899490 
	C104.234283,139.547379 102.742340,140.195267 100.753784,140.586334 
	C99.844940,140.194916 99.432716,140.060333 99.020493,139.925751 
	C98.575668,139.575882 98.130836,139.225998 97.222839,138.562241 
	C95.643387,137.684357 94.527100,137.120361 93.410812,136.556366 
	C93.410812,136.556366 93.251991,136.642014 93.180748,136.403946 
	C92.756493,136.055847 92.403473,135.945816 92.050461,135.835785 
	C91.602234,135.497726 91.154007,135.159653 90.421326,134.764481 
	C82.630981,130.239304 75.125099,125.771225 67.311790,121.155136 
	C66.995071,114.313156 66.985764,107.619171 66.975227,100.065788 
	C66.924698,98.136841 66.875389,97.067307 66.899925,95.565025 
	C66.924942,93.087906 66.876129,91.043526 66.901276,88.560745 
	C66.984283,85.750641 66.993332,83.378922 67.305618,80.848511 
	C77.955536,74.688210 88.249084,68.590691 98.709976,62.795227 
	C100.168335,61.987274 102.831718,61.969402 104.288780,62.768406 
	C113.902275,68.040100 123.411697,73.515625 132.760193,79.242767 
	C134.328430,80.203506 135.731888,82.655006 135.864410,84.513718 
	C136.301544,90.645508 136.120773,96.821350 136.177261,102.980278 
M110.950005,124.019760 
	C115.653671,120.724068 120.357338,117.428375 125.779388,113.741058 
	C125.802742,111.834602 125.826103,109.928139 126.013809,107.172516 
	C125.961578,105.447571 125.909355,103.722633 126.015076,101.077072 
	C126.020363,100.744362 125.970993,100.400032 126.038849,100.080620 
	C128.186859,89.969208 123.316841,84.901199 114.802261,79.630951 
	C105.018776,73.575272 97.766762,73.278076 88.334793,79.813202 
	C76.843208,87.775368 76.358711,87.076103 76.982399,101.882385 
	C77.034805,104.586998 77.087219,107.291618 76.975365,110.744545 
	C77.032921,111.504150 77.090469,112.263763 77.004730,113.673553 
	C77.100754,114.095879 77.196777,114.518204 77.457695,115.594414 
	C81.929695,118.082230 86.401695,120.570045 91.255386,123.636154 
	C97.306061,127.992981 103.411781,131.210831 109.989532,124.533745 
	C110.102135,124.419434 110.176460,124.267426 110.950005,124.019760 
z"/>
<path fill="#151A69" opacity="1.000000" stroke="none" 
	d="
M138.005493,116.004494 
	C138.010529,116.008293 138.509125,116.007080 138.758530,116.005905 
	C144.933609,116.740631 147.952545,112.555626 150.126297,108.400612 
	C154.315063,100.394005 157.746567,91.991493 161.516708,83.764427 
	C161.635162,83.505959 162.024719,83.371735 162.643036,83.089432 
	C165.276566,97.279305 156.048019,106.566986 148.419678,116.537407 
	C147.131332,118.221298 145.685547,119.784744 143.914108,121.884201 
	C143.008087,123.240112 142.500458,124.115669 141.609039,124.993370 
	C139.816605,125.330147 138.408005,125.664764 136.999390,125.999390 
	C135.464661,126.474770 133.929932,126.950142 132.356018,126.904846 
	C134.211136,124.590981 136.105423,122.797791 137.999649,120.587326 
	C138.000351,118.780830 138.001129,117.391624 138.001923,116.002411 
	C138.001923,116.002411 138.000458,116.000694 138.005493,116.004494 
z"/>
<path fill="#191E81" opacity="1.000000" stroke="none" 
	d="
M162.998169,108.999046 
	C161.736252,111.426491 160.976974,114.360397 159.127548,116.195854 
	C149.905975,125.347748 140.679977,134.570847 128.063644,139.224014 
	C126.862320,139.667084 126.076836,141.237579 125.046204,142.638672 
	C124.247932,142.997833 123.501755,143.002991 121.943863,143.006149 
	C119.087738,143.004807 117.043327,143.005447 114.999306,143.002869 
	C114.999695,142.999664 114.998474,142.988861 114.998474,142.988861 
	C118.072990,138.210083 122.141464,135.299271 128.916931,135.954803 
	C131.468185,134.606277 133.234390,133.303452 135.000610,132.000610 
	C135.000610,132.000610 135.499695,131.999634 136.086060,131.932114 
	C140.448288,128.576401 144.224152,125.288200 148.000000,122.000000 
	C148.128296,121.696533 148.322693,121.443939 149.157318,121.113373 
	C151.816391,119.330971 153.999985,117.785561 155.961243,115.996422 
	C158.402802,113.769127 160.660858,111.340645 162.998169,108.999046 
z"/>
<path fill="#1B208C" opacity="1.000000" stroke="none" 
	d="
M118.011162,145.007324 
	C117.297089,145.834274 116.608467,147.352905 115.864967,147.380264 
	C109.076721,147.630051 102.456688,151.140076 95.488205,148.016907 
	C96.633621,147.013321 97.816643,146.508438 99.399857,146.002625 
	C100.867226,146.002213 101.934402,146.002731 103.261765,146.256531 
	C106.800652,146.447144 110.515755,147.444901 111.999649,143.020966 
	C112.749367,143.012054 113.499092,143.003159 114.623642,142.991562 
	C114.998474,142.988861 114.999695,142.999664 115.069763,143.337616 
	C116.096947,144.119476 117.054054,144.563400 118.011162,145.007324 
z"/>
<path fill="#202368" opacity="1.000000" stroke="none" 
	d="
M113.103394,134.998322 
	C116.762062,132.353165 120.677780,130.009201 124.904724,127.550163 
	C126.274117,132.805511 120.169884,136.854797 113.103394,134.998322 
z"/>
<path fill="#181D7C" opacity="1.000000" stroke="none" 
	d="
M147.599854,121.999832 
	C144.224152,125.288200 140.448288,128.576401 136.335617,131.931686 
	C136.237442,130.877914 136.476089,129.757034 137.195694,128.277069 
	C139.115372,126.942375 140.554108,125.966797 141.992844,124.991219 
	C142.500458,124.115669 143.008087,123.240112 143.756927,122.181671 
	C145.065353,121.999077 146.132523,121.999374 147.599854,121.999832 
z"/>
<path fill="#1B208B" opacity="1.000000" stroke="none" 
	d="
M98.999664,146.003540 
	C97.816643,146.508438 96.633621,147.013321 95.224731,147.760025 
	C94.554810,148.001755 94.110779,148.001663 93.333717,148.001404 
	C92.742905,147.504517 92.485115,147.007797 92.113419,146.255249 
	C91.999939,145.250412 92.000374,144.501419 92.000504,143.378052 
	C93.388023,143.004486 94.775833,143.005325 96.716385,143.276886 
	C97.845963,144.366257 98.422813,145.184891 98.999664,146.003540 
z"/>
<path fill="#202368" opacity="1.000000" stroke="none" 
	d="
M137.999725,121.004593 
	C136.105423,122.797791 134.211136,124.590981 132.150345,126.682465 
	C130.446915,126.934334 128.910004,126.887901 127.031509,126.758125 
	C129.581345,124.883682 132.472733,123.092575 136.008057,121.151840 
	C137.101242,121.003006 137.550476,121.003799 137.999725,121.004593 
z"/>
<path fill="#191E82" opacity="1.000000" stroke="none" 
	d="
M99.399857,146.002609 
	C98.422813,145.184891 97.845963,144.366257 97.132729,143.279114 
	C99.777176,142.981903 102.557999,142.953201 105.524628,143.237427 
	C104.807472,144.367996 103.904526,145.185638 103.001579,146.003265 
	C101.934402,146.002731 100.867226,146.002213 99.399857,146.002609 
z"/>
<path fill="#1B208B" opacity="1.000000" stroke="none" 
	d="
M103.261765,146.256531 
	C103.904526,145.185638 104.807472,144.367996 105.856018,143.277283 
	C106.001625,143.004196 106.500412,143.003754 106.947128,143.233307 
	C108.262482,143.309189 109.131111,143.155548 109.999733,143.001892 
	C110.444199,143.004181 110.888664,143.006470 111.666389,143.014862 
	C110.515755,147.444901 106.800652,146.447144 103.261765,146.256531 
z"/>
<path fill="#181D7C" opacity="1.000000" stroke="none" 
	d="
M134.649109,132.045624 
	C133.234390,133.303452 131.468185,134.606277 129.350372,135.954041 
	C130.765060,134.696167 132.531326,133.393387 134.649109,132.045624 
z"/>
<path fill="#161B74" opacity="1.000000" stroke="none" 
	d="
M141.609039,124.993370 
	C140.554108,125.966797 139.115372,126.942375 137.338318,127.958977 
	C136.999924,127.555428 136.999847,127.110847 136.999588,126.332832 
	C138.408005,125.664764 139.816605,125.330147 141.609039,124.993370 
z"/>
<path fill="#161A6A" opacity="1.000000" stroke="none" 
	d="
M93.345535,136.906052 
	C94.527100,137.120361 95.643387,137.684357 96.933304,138.512207 
	C95.831375,138.269287 94.555817,137.762512 93.345535,136.906052 
z"/>
<path fill="#191E82" opacity="1.000000" stroke="none" 
	d="
M109.820099,142.785522 
	C109.131111,143.155548 108.262482,143.309189 107.196533,143.233719 
	C107.879623,142.859436 108.760048,142.714279 109.820099,142.785522 
z"/>
<path fill="#202368" opacity="1.000000" stroke="none" 
	d="
M109.271835,136.958557 
	C109.431229,136.637085 109.895683,136.288773 110.656464,135.896759 
	C110.494156,136.212616 110.035530,136.572159 109.271835,136.958557 
z"/>
<path fill="#202368" opacity="1.000000" stroke="none" 
	d="
M106.062820,138.888336 
	C106.214172,138.529327 106.702118,138.159149 107.497665,137.712799 
	C107.336655,138.050125 106.868034,138.463654 106.062820,138.888336 
z"/>
<path fill="#161A6A" opacity="1.000000" stroke="none" 
	d="
M99.230659,140.170471 
	C99.432716,140.060333 99.844940,140.194916 100.448006,140.601028 
	C100.239502,140.720093 99.840164,140.567642 99.230659,140.170471 
z"/>
<path fill="#202368" opacity="1.000000" stroke="none" 
	d="
M125.878891,127.309067 
	C125.795494,126.982758 126.019974,126.800461 126.521118,126.658890 
	C126.535042,126.878044 126.331375,127.129204 125.878891,127.309067 
z"/>
<path fill="#161A6A" opacity="1.000000" stroke="none" 
	d="
M92.209579,136.072021 
	C92.403473,135.945816 92.756493,136.055847 93.270805,136.398529 
	C93.077637,136.523544 92.723167,136.415894 92.209579,136.072021 
z"/>
<path fill="#202368" opacity="1.000000" stroke="none" 
	d="
M107.946938,137.711304 
	C107.935242,137.501312 108.190163,137.258087 108.719345,136.993408 
	C108.733589,137.207336 108.473579,137.442703 107.946938,137.711304 
z"/>
<path fill="#2229B4" opacity="1.000000" stroke="none" 
	d="
M145.119034,149.789719 
	C137.935486,152.694366 131.050995,156.112289 123.766548,157.904831 
	C114.577972,160.165939 105.085495,161.283844 95.668236,162.439636 
	C93.966911,162.648422 91.996254,160.662720 90.073288,159.347839 
	C104.553429,161.330643 118.490250,158.518311 131.690460,152.751038 
	C138.901672,149.600403 145.337662,144.673630 152.117508,140.538406 
	C154.522446,139.071548 156.910339,137.576767 159.606689,136.392120 
	C158.835876,137.849609 157.865402,139.127762 156.673843,140.147629 
	C153.162659,143.152893 149.563889,146.055801 145.999390,148.998779 
	C145.695724,149.126877 145.442764,149.321045 145.119034,149.789719 
z"/>
<path fill="#242BBA" opacity="1.000000" stroke="none" 
	d="
M146.304047,149.161987 
	C149.563889,146.055801 153.162659,143.152893 156.673843,140.147629 
	C157.865402,139.127762 158.835876,137.849609 159.954285,136.345352 
	C160.001205,136.001221 160.498138,135.998291 160.746552,135.996399 
	C162.738861,136.322159 164.482758,136.649811 166.609222,136.985992 
	C165.828537,137.972672 164.703156,139.000580 163.494980,139.919693 
	C159.798386,142.731873 155.589478,145.064056 152.514832,148.435623 
	C150.288818,150.876587 148.969147,151.448822 146.304047,149.161987 
z"/>
<path fill="#1F25A3" opacity="1.000000" stroke="none" 
	d="
M137.003052,145.002441 
	C135.289429,146.630859 133.853806,148.988373 131.815598,149.765579 
	C121.118736,153.844452 110.187645,156.928513 98.547104,157.070724 
	C89.135780,157.185684 80.827705,153.495224 72.222916,150.609528 
	C63.214153,147.588379 56.362991,141.366684 49.427689,135.344391 
	C51.484188,135.676529 53.243462,136.337097 55.002731,136.997650 
	C55.002731,136.997665 55.501225,136.998703 55.816154,137.335510 
	C62.384815,144.214432 70.726212,147.345398 78.776184,150.516602 
	C84.977196,152.959396 91.971230,154.994385 98.482788,154.662567 
	C107.943657,154.180435 117.333328,151.602066 126.645416,149.450424 
	C128.665527,148.983658 130.228302,146.537521 132.001709,145.003052 
	C132.750244,145.001144 133.498779,144.999237 134.956146,144.998169 
	C136.111008,145.000153 136.557022,145.001297 137.003052,145.002441 
z"/>
<path fill="#1E249E" opacity="1.000000" stroke="none" 
	d="
M131.637512,145.050842 
	C130.228302,146.537521 128.665527,148.983658 126.645416,149.450424 
	C117.333328,151.602066 107.943657,154.180435 98.482788,154.662567 
	C91.971230,154.994385 84.977196,152.959396 78.776184,150.516602 
	C70.726212,147.345398 62.384815,144.214432 56.065403,137.336472 
	C62.031403,140.016525 67.920540,143.372375 74.125809,145.974319 
	C85.440964,150.718933 96.900803,153.413193 109.617615,151.447144 
	C117.305153,150.258636 124.281532,147.984085 131.637512,145.050842 
z"/>
<path fill="#1E249E" opacity="1.000000" stroke="none" 
	d="
M54.952892,136.652069 
	C53.243462,136.337097 51.484188,135.676529 49.361847,135.008591 
	C48.998779,135.001221 49.000000,135.000000 48.937004,134.669861 
	C45.153690,130.398438 41.518143,126.371964 37.678734,122.550301 
	C35.635632,120.516647 33.239605,118.837555 31.002872,116.998428 
	C31.001087,116.249969 30.999304,115.501518 30.996487,114.378967 
	C30.997086,113.558708 30.998718,113.112534 31.001575,112.331726 
	C33.416489,114.581909 35.734219,117.265182 38.263985,119.730919 
	C43.422932,124.759293 48.705288,129.660889 53.905960,134.646881 
	C54.355507,135.077866 54.576107,135.747650 54.952892,136.652069 
z"/>
<path fill="#1F25A3" opacity="1.000000" stroke="none" 
	d="
M156.999390,128.999390 
	C157.749573,128.999359 158.500366,128.999924 159.626587,129.000854 
	C159.140411,130.360413 158.587067,132.175247 157.365189,133.001923 
	C151.251785,137.138046 144.963150,141.015152 138.433487,144.656097 
	C139.933289,142.958405 141.807266,141.670914 143.519058,140.195297 
	C145.423462,138.553650 147.180191,136.740677 149.001221,135.002289 
	C150.472214,134.103516 151.943192,133.204727 154.041626,132.107712 
	C155.445663,130.939255 156.222214,129.969009 156.998779,128.998779 
	C156.998779,128.998779 157.000000,129.000000 156.999390,128.999390 
z"/>
<path fill="#1E249E" opacity="1.000000" stroke="none" 
	d="
M148.647644,135.046906 
	C147.180191,136.740677 145.423462,138.553650 143.519058,140.195297 
	C141.807266,141.670914 139.933289,142.958405 138.065430,144.664429 
	C138.000000,145.000000 137.501495,145.001221 137.252274,145.001831 
	C136.557022,145.001297 136.111008,145.000153 135.330414,144.997681 
	C139.428589,141.694733 143.861328,138.393127 148.647644,135.046906 
z"/>
<path fill="#1B208B" opacity="1.000000" stroke="none" 
	d="
M118.380974,145.004761 
	C117.054054,144.563400 116.096947,144.119476 115.069382,143.340820 
	C117.043327,143.005447 119.087738,143.004807 121.570694,143.008331 
	C120.923088,143.675751 119.836937,144.338974 118.380974,145.004761 
z"/>
<path fill="#1E259F" opacity="1.000000" stroke="none" 
	d="
M156.663239,129.043930 
	C156.222214,129.969009 155.445663,130.939255 154.333023,131.953705 
	C154.773880,131.028305 155.550812,130.058701 156.663239,129.043930 
z"/>
<path fill="#1F25A3" opacity="1.000000" stroke="none" 
	d="
M31.009777,117.362549 
	C33.239605,118.837555 35.635632,120.516647 37.678734,122.550301 
	C41.518143,126.371964 45.153690,130.398438 48.936493,134.670471 
	C45.994297,132.998581 42.593758,131.393967 40.081959,128.895767 
	C36.701389,125.533501 34.006092,121.482224 31.009777,117.362549 
z"/>
<path fill="#2229B4" opacity="1.000000" stroke="none" 
	d="
M86.739502,158.745148 
	C84.199348,159.020233 81.119720,159.794708 78.661438,158.886795 
	C74.611748,157.391159 70.964020,154.807144 67.072464,152.342499 
	C73.491776,154.164948 79.985466,156.326843 86.739502,158.745148 
z"/>
<path fill="#242CBE" opacity="1.000000" stroke="none" 
	d="
M34.926250,136.648712 
	C29.862074,138.351578 30.713795,133.240677 28.376616,131.097626 
	C29.230436,128.115341 30.516054,128.163101 31.927038,130.879898 
	C32.872913,132.701141 33.874577,134.493423 34.926250,136.648712 
z"/>
<path fill="#242CBE" opacity="1.000000" stroke="none" 
	d="
M41.955631,141.663803 
	C41.030521,141.223526 40.060150,140.447662 39.044586,139.336212 
	C39.969719,139.776474 40.940044,140.552353 41.955631,141.663803 
z"/>
<path fill="#242CBE" opacity="1.000000" stroke="none" 
	d="
M47.947304,146.681610 
	C47.010281,146.241669 46.018024,145.486374 45.012573,144.365845 
	C45.963615,144.789169 46.927845,145.577728 47.947304,146.681610 
z"/>
<path fill="#0D1043" opacity="1.000000" stroke="none" 
	d="
M100.946159,25.307472 
	C101.750267,25.002577 102.499214,25.002804 103.622581,25.004335 
	C105.449043,26.211178 106.726913,27.798100 108.383919,28.554874 
	C114.847572,31.506899 121.499840,34.050854 127.922775,37.083721 
	C129.552811,37.853413 130.595108,39.867825 131.602890,41.606678 
	C118.338020,34.413128 105.368507,27.062202 89.439056,31.998774 
	C82.346588,34.196747 76.268723,37.754684 71.684074,44.054222 
	C70.578964,45.072449 69.789482,46.036148 68.656952,47.041351 
	C67.209679,47.388836 66.105446,47.694813 65.001221,48.000790 
	C69.898483,38.070377 78.728111,33.344151 88.665337,30.027208 
	C92.773979,28.655788 96.817741,27.089993 100.946159,25.307472 
z"/>
<path fill="#0C0F3F" opacity="1.000000" stroke="none" 
	d="
M65.000786,48.250519 
	C66.105446,47.694813 67.209679,47.388836 68.607903,47.394371 
	C61.791294,58.472332 61.205990,70.575684 62.230911,82.817177 
	C62.412910,84.990875 65.228058,86.944107 66.827309,88.999146 
	C66.876129,91.043526 66.924942,93.087906 66.562927,95.505989 
	C61.643845,91.410255 59.599125,85.911026 58.964031,79.664848 
	C57.859081,68.797585 60.741234,58.778225 64.999695,48.999695 
	C64.999695,48.999695 65.000351,48.500244 65.000786,48.250519 
z"/>
<path fill="#0D1043" opacity="1.000000" stroke="none" 
	d="
M64.648270,49.051033 
	C60.741234,58.778225 57.859081,68.797585 58.964031,79.664848 
	C59.599125,85.911026 61.643845,91.410255 66.489090,95.938728 
	C66.875389,97.067307 66.924698,98.136841 66.900452,99.602463 
	C65.408287,99.300064 63.370144,98.984261 62.666050,97.844398 
	C54.880608,85.240517 54.742908,62.644871 62.648857,50.124268 
	C62.959221,49.632744 63.736900,49.436302 64.648270,49.051033 
z"/>
<path fill="#10124E" opacity="1.000000" stroke="none" 
	d="
M55.986198,90.596893 
	C54.377491,87.898346 51.678936,84.907219 51.346363,81.672821 
	C50.499722,73.438873 50.221344,65.052650 53.899082,57.177044 
	C55.444508,53.867634 56.812897,50.475548 58.631264,47.060753 
	C57.338966,53.217953 54.615887,59.378796 54.280163,65.667091 
	C53.846527,73.789276 55.321003,82.013329 55.986198,90.596893 
z"/>
<path fill="#10124E" opacity="1.000000" stroke="none" 
	d="
M65.983070,107.644028 
	C64.024696,106.228859 62.057549,104.455788 60.045479,102.340904 
	C61.991806,103.761429 63.983055,105.523773 65.983070,107.644028 
z"/>
<path fill="#10124E" opacity="1.000000" stroke="none" 
	d="
M59.951553,100.640320 
	C58.672176,98.914955 57.345245,96.829597 56.009842,94.371254 
	C57.302246,96.092285 58.603123,98.186310 59.951553,100.640320 
z"/>
<path fill="#0B0D32" opacity="1.000000" stroke="none" 
	d="
M136.387894,102.740723 
	C136.120773,96.821350 136.301544,90.645508 135.864410,84.513718 
	C135.731888,82.655006 134.328430,80.203506 132.760193,79.242767 
	C123.411697,73.515625 113.902275,68.040100 104.288780,62.768406 
	C102.831718,61.969402 100.168335,61.987274 98.709976,62.795227 
	C88.249084,68.590691 77.955536,74.688210 67.308258,80.431274 
	C67.003242,78.781937 66.998810,77.391151 67.316833,75.857849 
	C68.966393,75.234367 70.293495,74.753387 72.151047,74.080170 
	C68.826584,71.056725 68.638802,68.436478 71.577454,65.413353 
	C72.666039,64.293480 72.716660,62.053703 73.004669,60.286209 
	C74.112877,53.485188 76.981285,48.678200 84.048729,45.862366 
	C90.514824,43.286121 96.926605,43.564453 103.466759,42.853054 
	C115.182961,41.578636 122.623093,47.622108 129.009033,56.077572 
	C130.386292,57.901146 132.149368,59.842621 132.506119,61.938885 
	C133.164444,65.807121 132.791245,69.840164 133.113968,73.782761 
	C133.211578,74.975197 134.198669,76.090103 134.757233,77.250679 
	C135.517075,78.829453 136.256622,80.417984 137.004028,82.446342 
	C137.004730,85.260765 137.006287,87.631172 137.005890,90.438980 
	C137.004654,92.917915 137.005386,94.959450 137.004333,97.376205 
	C137.004761,98.501961 137.006943,99.252495 137.009125,100.003021 
	C136.872269,100.835739 136.735397,101.668449 136.387894,102.740723 
z"/>
<path fill="#0C0F3F" opacity="1.000000" stroke="none" 
	d="
M71.999695,43.999695 
	C76.268723,37.754684 82.346588,34.196747 89.439056,31.998774 
	C105.368507,27.062202 118.338020,34.413128 131.649155,41.951385 
	C133.102036,42.663181 134.204056,43.326653 135.652435,43.996094 
	C135.998779,44.002068 135.999390,44.501034 136.053192,45.113724 
	C138.055359,50.450039 140.381012,55.063370 141.806580,59.939823 
	C142.625000,62.739517 141.983612,65.965965 141.748932,69.000168 
	C141.331497,68.999916 141.164536,68.999817 140.997894,68.666611 
	C140.998413,67.889359 140.998596,67.445229 140.988663,66.615181 
	C138.454926,59.794720 137.549225,51.664520 133.014496,47.337753 
	C126.789040,41.397812 118.249832,36.484982 109.904640,34.521709 
	C99.689911,32.118614 88.670174,33.196892 79.280144,39.830456 
	C77.006332,41.436787 74.434494,42.621243 71.999695,43.999695 
z"/>
<path fill="#101251" opacity="1.000000" stroke="none" 
	d="
M144.657120,42.044930 
	C146.658493,45.314758 148.596313,48.519199 149.922028,51.959518 
	C154.623322,64.159477 155.273605,76.454849 151.623215,89.224937 
	C149.299149,97.355232 145.849121,104.213638 138.344086,108.955536 
	C138.516602,107.656776 138.716232,106.045967 139.593506,105.007759 
	C152.279358,89.994629 154.264236,73.264328 147.553665,55.229565 
	C146.462143,52.296139 144.496582,49.640469 142.672760,47.040363 
	C140.851944,44.444519 141.026398,42.834797 144.657120,42.044930 
z"/>
<path fill="#0D1043" opacity="1.000000" stroke="none" 
	d="
M141.999390,69.000305 
	C141.983612,65.965965 142.625000,62.739517 141.806580,59.939823 
	C140.381012,55.063370 138.055359,50.450039 136.053497,45.363209 
	C138.087936,47.184223 140.861847,49.026062 142.151031,51.608967 
	C149.757599,66.848755 148.483658,81.987808 140.696854,96.796219 
	C140.054626,98.017548 138.718353,98.873924 137.356842,99.951447 
	C137.006943,99.252495 137.004761,98.501961 137.350082,97.297729 
	C139.388580,91.806458 141.644730,86.869858 142.569138,81.695351 
	C143.171371,78.324265 145.499771,74.344032 141.999420,70.666718 
	C141.999435,69.889061 141.999405,69.444679 141.999390,69.000305 
z"/>
<path fill="#111456" opacity="1.000000" stroke="none" 
	d="
M137.999649,120.587318 
	C137.550476,121.003799 137.101242,121.003006 136.314667,120.998024 
	C135.992615,119.602051 136.007919,118.210274 136.101746,116.406876 
	C136.584671,115.996857 136.989090,115.998466 137.697708,116.001244 
	C138.001129,117.391624 138.000351,118.780830 137.999649,120.587318 
z"/>
<path fill="#181D7C" opacity="1.000000" stroke="none" 
	d="
M170.002441,92.001442 
	C170.001434,92.445343 170.000427,92.889252 169.662628,93.737686 
	C168.551163,95.761787 167.776489,97.381355 167.001190,99.334045 
	C166.999969,100.111343 166.999374,100.555519 166.655792,101.041252 
	C165.208755,101.388748 164.104675,101.694679 163.000610,102.000610 
	C165.097397,96.392334 167.194168,90.784058 169.645462,85.087891 
	C170.300491,86.424774 170.600998,87.849541 170.720886,89.819923 
	C170.360992,90.910843 170.181717,91.456139 170.002441,92.001442 
z"/>
<path fill="#181D7C" opacity="1.000000" stroke="none" 
	d="
M162.999084,108.999527 
	C160.660858,111.340645 158.402802,113.769127 155.961243,115.996422 
	C153.999985,117.785561 151.816391,119.330971 149.366043,120.992569 
	C153.436630,115.698997 157.872650,110.397392 162.654327,105.047890 
	C163.000000,105.000000 163.002441,105.000282 163.001740,105.400269 
	C163.000900,106.866943 163.000763,107.933624 163.000610,109.000305 
	C163.000610,109.000305 163.000000,109.000000 162.999084,108.999527 
z"/>
<path fill="#151A69" opacity="1.000000" stroke="none" 
	d="
M163.335388,80.791451 
	C162.820969,76.206787 162.640717,71.413582 162.733902,66.309052 
	C165.536423,68.521019 165.881363,76.118202 163.335388,80.791451 
z"/>
<path fill="#191E81" opacity="1.000000" stroke="none" 
	d="
M163.000000,102.375320 
	C164.104675,101.694679 165.208755,101.388748 166.907028,101.041428 
	C167.668716,101.000221 167.836197,101.000389 168.003662,101.000565 
	C167.831360,101.851944 167.659042,102.703323 166.900391,103.818878 
	C165.210190,104.388794 164.106308,104.694534 163.002441,105.000282 
	C163.002441,105.000282 163.000000,105.000000 162.997559,104.999084 
	C162.996536,104.248787 162.997971,103.499413 163.000000,102.375320 
z"/>
<path fill="#181D7C" opacity="1.000000" stroke="none" 
	d="
M169.665924,63.007004 
	C170.158997,64.182343 170.320450,65.365776 170.240936,66.774742 
	C166.687515,64.529617 166.636902,64.226624 169.665924,63.007004 
z"/>
<path fill="#181D7C" opacity="1.000000" stroke="none" 
	d="
M169.965057,79.316811 
	C170.511978,79.555267 171.023331,80.110970 171.766388,80.833626 
	C171.542374,81.631210 171.086670,82.261841 170.320007,82.947861 
	C169.982544,81.880180 169.956024,80.757118 169.965057,79.316811 
z"/>
<path fill="#181D7C" opacity="1.000000" stroke="none" 
	d="
M169.787842,59.156715 
	C170.129303,59.562824 170.267349,60.125633 170.199356,60.844276 
	C169.857010,60.437885 169.720718,59.875652 169.787842,59.156715 
z"/>
<path fill="#1B1F84" opacity="1.000000" stroke="none" 
	d="
M163.001740,105.400269 
	C164.106308,104.694534 165.210190,104.388794 166.657028,104.041672 
	C165.900665,105.634270 164.801331,107.268242 163.351303,108.951263 
	C163.000763,107.933624 163.000900,106.866943 163.001740,105.400269 
z"/>
<path fill="#191E81" opacity="1.000000" stroke="none" 
	d="
M167.001831,99.000916 
	C167.776489,97.381355 168.551163,95.761787 169.661682,94.070618 
	C169.997421,95.387764 169.997284,96.776512 169.622101,98.582367 
	C168.498642,98.999947 167.750229,99.000427 167.001831,99.000916 
z"/>
<path fill="#1B1F84" opacity="1.000000" stroke="none" 
	d="
M167.001190,99.334045 
	C167.750229,99.000427 168.498642,98.999947 169.621155,98.998970 
	C169.539169,99.629211 169.083069,100.259956 168.315323,100.945633 
	C167.836197,101.000389 167.668716,101.000221 167.250000,100.999870 
	C166.999374,100.555519 166.999969,100.111343 167.001190,99.334045 
z"/>
<path fill="#1B1F84" opacity="1.000000" stroke="none" 
	d="
M170.281509,91.961601 
	C170.181717,91.456139 170.360992,90.910843 170.768768,90.182907 
	C170.851715,90.640778 170.706146,91.281265 170.281509,91.961601 
z"/>
<path fill="#0B0D31" opacity="1.000000" stroke="none" 
	d="
M77.145103,100.993469 
	C76.358711,87.076103 76.843208,87.775368 88.334793,79.813202 
	C97.766762,73.278076 105.018776,73.575272 114.802261,79.630951 
	C123.316841,84.901199 128.186859,89.969208 126.038849,100.080620 
	C125.970993,100.400032 126.020363,100.744362 125.556274,101.540047 
	C121.466713,102.519913 117.674088,102.537933 114.237434,103.653053 
	C105.979469,106.332581 97.866486,106.628525 89.556450,104.061844 
	C85.491241,102.806236 81.286621,102.001999 77.145103,100.993469 
z"/>
<path fill="#0C0E3C" opacity="1.000000" stroke="none" 
	d="
M71.684074,44.054222 
	C74.434494,42.621243 77.006332,41.436787 79.280144,39.830456 
	C88.670174,33.196892 99.689911,32.118614 109.904640,34.521709 
	C118.249832,36.484982 126.789040,41.397812 133.014496,47.337753 
	C137.549225,51.664520 138.454926,59.794720 140.644974,66.544815 
	C139.191101,65.115875 137.837311,63.476864 136.992935,61.607727 
	C134.124405,55.257732 131.715103,48.539528 125.387169,44.683342 
	C109.637054,35.085358 91.508255,34.546139 75.372604,44.904366 
	C73.734512,45.955936 72.532272,47.999954 71.637909,49.832397 
	C69.678185,53.847584 68.385292,58.214642 66.195328,62.084454 
	C63.368553,67.079582 64.384178,71.499886 66.994377,76.000359 
	C66.998810,77.391151 67.003242,78.781937 67.005028,80.589966 
	C66.993332,83.378922 66.984283,85.750641 66.901276,88.560745 
	C65.228058,86.944107 62.412910,84.990875 62.230911,82.817177 
	C61.205990,70.575684 61.791294,58.472332 68.950951,47.352863 
	C69.789482,46.036148 70.578964,45.072449 71.684074,44.054222 
z"/>
<path fill="#0B0E3A" opacity="1.000000" stroke="none" 
	d="
M77.063751,101.437927 
	C81.286621,102.001999 85.491241,102.806236 89.556450,104.061844 
	C97.866486,106.628525 105.979469,106.332581 114.237434,103.653053 
	C117.674088,102.537933 121.466713,102.519913 125.477303,102.000351 
	C125.909355,103.722633 125.961578,105.447571 125.748337,107.722488 
	C125.259987,108.477173 125.096542,108.721634 124.604012,109.016167 
	C114.196976,114.372620 102.897751,112.421974 92.314278,114.565742 
	C91.483757,114.733971 90.480927,114.013664 89.550331,113.732262 
	C85.414993,112.481743 81.276794,111.240700 77.139626,109.996231 
	C77.087219,107.291618 77.034805,104.586998 77.063751,101.437927 
z"/>
<path fill="#111346" opacity="1.000000" stroke="none" 
	d="
M77.057495,110.370392 
	C81.276794,111.240700 85.414993,112.481743 89.550331,113.732262 
	C90.480927,114.013664 91.483757,114.733971 92.314278,114.565742 
	C102.897751,112.421974 114.196976,114.372620 124.605347,109.443451 
	C125.017151,111.284500 125.039078,112.708595 125.061012,114.132683 
	C120.357338,117.428375 115.653671,120.724068 110.317146,123.874138 
	C105.411217,118.949554 98.361252,118.698212 90.873695,123.057869 
	C86.401695,120.570045 81.929695,118.082230 77.527687,115.092270 
	C77.447792,114.067871 77.297913,113.545624 77.148026,113.023369 
	C77.090469,112.263763 77.032921,111.504150 77.057495,110.370392 
z"/>
<path fill="#161850" opacity="1.000000" stroke="none" 
	d="
M91.064545,123.347015 
	C98.361252,118.698212 105.411217,118.949554 109.976471,123.930763 
	C110.176460,124.267426 110.102135,124.419434 109.989532,124.533745 
	C103.411781,131.210831 97.306061,127.992981 91.064545,123.347015 
z"/>
<path fill="#0B0D31" opacity="1.000000" stroke="none" 
	d="
M125.420197,113.936874 
	C125.039078,112.708595 125.017151,111.284500 124.993881,109.433121 
	C125.096542,108.721634 125.259987,108.477173 125.666153,108.147064 
	C125.826103,109.928139 125.802742,111.834602 125.420197,113.936874 
z"/>
<path fill="#0B0D31" opacity="1.000000" stroke="none" 
	d="
M77.076378,113.348465 
	C77.297913,113.545624 77.447792,114.067871 77.445244,114.765327 
	C77.196777,114.518204 77.100754,114.095879 77.076378,113.348465 
z"/>
<path fill="#0A0D37" opacity="1.000000" stroke="none" 
	d="
M67.316833,75.857849 
	C64.384178,71.499886 63.368553,67.079582 66.195328,62.084454 
	C68.385292,58.214642 69.678185,53.847584 71.637909,49.832397 
	C72.532272,47.999954 73.734512,45.955936 75.372604,44.904366 
	C91.508255,34.546139 109.637054,35.085358 125.387169,44.683342 
	C131.715103,48.539528 134.124405,55.257732 136.992935,61.607727 
	C137.837311,63.476864 139.191101,65.115875 140.655106,66.930725 
	C140.998596,67.445229 140.998413,67.889359 140.660248,68.735535 
	C136.928635,71.519821 134.445450,74.023430 137.977371,78.327682 
	C138.447601,78.900719 137.367188,80.746147 137.004883,82.002335 
	C136.256622,80.417984 135.517075,78.829453 134.757233,77.250679 
	C134.198669,76.090103 133.211578,74.975197 133.113968,73.782761 
	C132.791245,69.840164 133.164444,65.807121 132.506119,61.938885 
	C132.149368,59.842621 130.386292,57.901146 129.009033,56.077572 
	C122.623093,47.622108 115.182961,41.578636 103.466759,42.853054 
	C96.926605,43.564453 90.514824,43.286121 84.048729,45.862366 
	C76.981285,48.678200 74.112877,53.485188 73.004669,60.286209 
	C72.716660,62.053703 72.666039,64.293480 71.577454,65.413353 
	C68.638802,68.436478 68.826584,71.056725 72.151047,74.080170 
	C70.293495,74.753387 68.966393,75.234367 67.316833,75.857849 
z"/>
<path fill="#0C0E3C" opacity="1.000000" stroke="none" 
	d="
M137.004028,82.446342 
	C137.367188,80.746147 138.447601,78.900719 137.977371,78.327682 
	C134.445450,74.023430 136.928635,71.519821 140.659912,69.068649 
	C141.164536,68.999817 141.331497,68.999916 141.748932,69.000168 
	C141.999405,69.444679 141.999435,69.889061 141.729401,70.974442 
	C141.304825,73.907486 141.504852,76.295135 140.918228,78.470665 
	C139.863724,82.381432 138.337189,86.164917 137.007843,90.001587 
	C137.006287,87.631172 137.004730,85.260765 137.004028,82.446342 
z"/>
<path fill="#0C0F3F" opacity="1.000000" stroke="none" 
	d="
M137.005890,90.438980 
	C138.337189,86.164917 139.863724,82.381432 140.918228,78.470665 
	C141.504852,76.295135 141.304825,73.907486 141.729370,71.307724 
	C145.499771,74.344032 143.171371,78.324265 142.569138,81.695351 
	C141.644730,86.869858 139.388580,91.806458 137.351837,96.922501 
	C137.005386,94.959450 137.004654,92.917915 137.005890,90.438980 
z"/>
</svg>